<?xml version="1.0" encoding="UTF-8" standalone="no"?>
<!-- Created with Inkscape (http://www.inkscape.org/) -->

<svg
   width="52.916668mm"
   height="52.916672mm"
   viewBox="0 0 52.916667 52.916671"
   version="1.1"
   id="svg3102"
   inkscape:version="1.2.1 (9c6d41e410, 2022-07-14)"
   sodipodi:docname="mercurio.svg"
   xmlns:inkscape="http://www.inkscape.org/namespaces/inkscape"
   xmlns:sodipodi="http://sodipodi.sourceforge.net/DTD/sodipodi-0.dtd"
   xmlns="http://www.w3.org/2000/svg"
   xmlns:svg="http://www.w3.org/2000/svg"
   xmlns:rdf="http://www.w3.org/1999/02/22-rdf-syntax-ns#"
   xmlns:cc="http://creativecommons.org/ns#"
   xmlns:dc="http://purl.org/dc/elements/1.1/">
  <title
     id="title3464">Planeta Mercurio</title>
  <sodipodi:namedview
     id="namedview3104"
     pagecolor="#ffffff"
     bordercolor="#666666"
     borderopacity="1.0"
     inkscape:showpageshadow="2"
     inkscape:pageopacity="0.0"
     inkscape:pagecheckerboard="0"
     inkscape:deskcolor="#d1d1d1"
     inkscape:document-units="mm"
     showgrid="false"
     inkscape:zoom="1.9966906"
     inkscape:cx="73.120993"
     inkscape:cy="73.120993"
     inkscape:window-width="1360"
     inkscape:window-height="697"
     inkscape:window-x="-8"
     inkscape:window-y="-8"
     inkscape:window-maximized="1"
     inkscape:current-layer="layer1" />
  <defs
     id="defs3099">
    <clipPath
       clipPathUnits="userSpaceOnUse"
       id="clipPath27">
      <path
         d="m 41.35,360.169 c 0,-30.355 24.607,-54.963 54.964,-54.963 v 0 c 30.355,0 54.963,24.608 54.963,54.963 v 0 c 0,30.356 -24.608,54.964 -54.963,54.964 v 0 c -30.357,0 -54.964,-24.608 -54.964,-54.964"
         id="path25" />
    </clipPath>
    <clipPath
       clipPathUnits="userSpaceOnUse"
       id="clipPath139">
      <path
         d="M 0,500 H 750 V 0 H 0 Z"
         id="path137" />
    </clipPath>
    <clipPath
       clipPathUnits="userSpaceOnUse"
       id="clipPath147">
      <path
         d="M 44.9732,411.729 H 127.13 V 358.834 H 44.9732 Z"
         id="path145" />
    </clipPath>
  </defs>
  <g
     inkscape:label="Capa 1"
     inkscape:groupmode="layer"
     id="layer1"
     transform="translate(-70.388666,-100.14085)">
    <g
       id="g1872"
       transform="matrix(1.364542,0,0,1.364542,-249.71564,59.287569)">
      <g
         id="g21"
         transform="matrix(0.35277776,0,0,-0.35277778,220,176.38889)">
        <g
           id="g23"
           clip-path="url(#clipPath27)">
          <g
             id="g29"
             transform="translate(151.277,360.1696)">
            <path
               d="m 0,0 c 0,-30.355 -24.608,-54.963 -54.964,-54.963 -30.355,0 -54.963,24.608 -54.963,54.963 0,30.355 24.608,54.963 54.963,54.963 C -24.608,54.963 0,30.355 0,0"
               style="fill:#808080;fill-opacity:1;fill-rule:nonzero;stroke:none"
               id="path31" />
          </g>
          <g
             id="g33"
             transform="translate(81.4689,386.7975)">
            <path
               d="m 0,0 c 1.178,-1.002 1.839,-2.491 2.219,-3.99 0.531,-2.093 0.495,-4.314 -0.021,-6.416 -0.988,-4.024 -3.735,-7.607 -7.626,-8.999 -2.514,-0.9 -5.259,-0.898 -7.921,-0.686 C -28.922,-18.854 -9.963,8.472 0,0"
               style="fill:#b5b5b5;fill-opacity:1;fill-rule:nonzero;stroke:none"
               id="path35" />
          </g>
          <g
             id="g37"
             transform="translate(172.8175,360.7829)">
            <path
               d="m 0,0 c -1.063,6.26 -2.726,12.523 -6.022,17.95 -3.296,5.427 -8.4,9.976 -14.555,11.534 -2.627,0.666 -5.575,0.73 -7.876,-0.699 -1.988,-1.234 -3.195,-3.376 -4.318,-5.428 -0.33,-0.602 -0.66,-1.204 -0.989,-1.806 -1.22,1.005 -2.74,1.68 -4.02,0.909 -0.907,-0.545 -1.305,-1.635 -1.592,-2.653 -0.896,-3.184 -1.315,-6.564 -0.805,-9.818 -1.142,-1.858 -2.419,-3.619 -4.02,-5.089 -2.623,-2.407 -6.314,-3.943 -9.773,-3.101 -4.039,0.984 -6.651,4.767 -9.01,8.19 -0.44,0.638 -0.912,1.299 -1.602,1.649 -1.529,0.777 -3.344,-0.27 -4.606,-1.43 -4.513,-4.149 -6.929,-10.086 -10.87,-14.781 -1.574,-1.875 -3.461,-3.544 -5.543,-4.876 0.516,1.871 0.833,3.795 0.928,5.738 0.096,1.997 -0.218,4.341 -1.941,5.355 -2.085,1.225 -4.714,-0.334 -6.35,-2.115 -3.036,-3.302 -4.92,-7.626 -5.348,-12.087 -0.26,0.037 -0.519,0.08 -0.778,0.131 -6.281,1.249 -11.086,6.107 -16.164,10.009 -5.078,3.901 -11.878,7.085 -17.711,4.443 -5.519,-2.5 -7.753,-9.156 -8.371,-15.183 -0.572,-5.566 -0.272,-11.22 0.885,-16.694 l -8.025,4.486 c -0.875,-9.409 6.857,-17.47 15.059,-22.163 8.632,-4.938 18.32,-7.747 28.061,-9.75 18.593,-3.824 38.088,-4.823 56.438,0.036 18.349,4.859 35.482,16.049 44.964,32.493 2.035,3.529 3.722,7.312 4.414,11.326 C 1.225,-8.991 0.753,-4.436 0,0"
               style="fill:#b5b5b5;fill-opacity:1;fill-rule:nonzero;stroke:none"
               id="path39" />
          </g>
          <g
             id="g41"
             transform="translate(133.0294,426.6823)">
            <path
               d="m 0,0 c -10.784,4.557 -22.882,5.474 -34.483,3.903 -11.601,-1.571 -22.764,-5.54 -33.398,-10.436 -9.607,-4.422 -18.858,-9.618 -27.633,-15.522 l -2.728,-3.631 c 0.987,0.849 1.995,1.671 3.027,2.465 5.469,4.207 12.391,7.747 19.05,5.94 0.695,-0.188 1.362,-0.432 2.009,-0.717 -1.467,-1.536 -2.793,-3.206 -3.941,-4.994 -1.252,-1.948 -2.318,-4.087 -2.56,-6.391 -0.242,-2.303 0.458,-4.803 2.238,-6.285 1.625,-1.355 3.923,-1.685 6.004,-1.307 2.082,0.377 3.993,1.385 5.808,2.471 2.265,1.356 4.436,2.86 6.511,4.487 3.068,-2.571 6.575,-4.551 10.486,-4.445 4.911,0.132 9.082,3.541 12.487,7.081 2.774,2.884 6.091,6.267 10.038,5.611 3.654,-0.607 5.732,-4.349 7.959,-7.31 3.37,-4.482 8.512,-7.977 14.119,-8.002 4.48,-0.02 8.715,2.145 12.233,4.92 4.149,3.273 7.715,7.818 8.119,13.087 C 16.011,-10.373 8.04,-3.397 0,0"
               style="fill:#b5b5b5;fill-opacity:1;fill-rule:nonzero;stroke:none"
               id="path43" />
          </g>
          <g
             id="g45"
             transform="translate(47.549,371.7424)">
            <path
               d="m 0,0 c -0.714,-0.019 -0.859,1.002 -0.75,1.708 0.296,1.92 0.622,3.917 1.735,5.508 C 2.1,8.809 4.253,9.854 6.034,9.076 7.759,8.322 8.481,6.111 8.043,4.28 7.606,2.449 6.276,0.962 4.838,-0.253 c -1.135,-0.96 -2.574,-1.85 -4.02,-1.503 -1.446,0.346 -2.22,2.62 -0.915,3.33"
               style="fill:#b5b5b5;fill-opacity:1;fill-rule:nonzero;stroke:none"
               id="path47" />
          </g>
          <g
             id="g49"
             transform="translate(56.2902,354.3)">
            <path
               d="m 0,0 c 0.686,-3.912 0.673,-8.109 -1.113,-11.657 -1.786,-3.548 -5.684,-6.23 -9.614,-5.652 -1.593,0.234 -3.078,0.967 -4.402,1.885 -6.382,4.422 -10.295,16.38 -4.251,22.671 C -12.416,14.494 -1.518,8.655 0,0"
               style="fill:#808080;fill-opacity:1;fill-rule:nonzero;stroke:none"
               id="path51" />
          </g>
          <g
             id="g53"
             transform="translate(61.5499,390.1349)">
            <path
               d="M 0,0 C 1.25,1.361 3.045,2.542 4.84,2.103 5.881,1.849 6.725,1.086 7.395,0.25 c 2.74,-3.419 3.145,-8.299 1.889,-12.498 -0.815,-2.726 -2.357,-5.344 -4.766,-6.859 -4.898,-3.08 -10.121,0.054 -10.16,5.665 C -5.672,-8.984 -2.965,-3.229 0,0"
               style="fill:#575757;fill-opacity:1;fill-rule:nonzero;stroke:none"
               id="path55" />
          </g>
          <g
             id="g57"
             transform="translate(80.4235,385.9245)">
            <path
               d="M 0,0 C 1.206,1.006 2.811,1.648 4.352,1.347 6.254,0.975 7.673,-0.803 8.037,-2.707 8.401,-4.611 7.867,-6.591 6.995,-8.322 6.187,-9.929 4.969,-11.473 3.248,-11.997 1.081,-12.656 -1.408,-11.371 -2.401,-9.334 -3.395,-7.299 -1.206,-1.005 0,0"
               style="fill:#575757;fill-opacity:1;fill-rule:nonzero;stroke:none"
               id="path59" />
          </g>
          <g
             id="g61"
             transform="translate(90.7096,372.4675)">
            <path
               d="m 0,0 c 1.336,2.055 3.413,4.103 5.841,3.776 2.897,-0.39 4.252,-3.821 4.477,-6.735 0.145,-1.876 0.066,-3.77 -0.235,-5.627 -0.345,-2.122 -1.202,-4.457 -3.191,-5.272 -2.551,-1.044 -5.264,0.981 -7.173,2.969 C -1.298,-9.829 -1.505,-2.315 0,0"
               style="fill:#575757;fill-opacity:1;fill-rule:nonzero;stroke:none"
               id="path63" />
          </g>
          <g
             id="g65"
             transform="translate(77.2702,406.2668)">
            <path
               d="m 0,0 c 2.463,2.135 6.158,3.709 8.889,1.93 2.266,-1.476 2.774,-4.649 2.235,-7.3 C 10.031,-10.742 5.279,-15.163 -0.158,-15.866 -12.905,-17.515 -4.694,-4.069 0,0"
               style="fill:#808080;fill-opacity:1;fill-rule:nonzero;stroke:none"
               id="path67" />
          </g>
          <g
             id="g69"
             transform="translate(61.713,405.8312)">
            <path
               d="m 0,0 c 1.933,0.501 3.437,2.024 5.292,2.759 1.856,0.736 4.612,0.095 4.791,-1.893 0.064,-0.711 -0.234,-1.401 -0.558,-2.037 -1.981,-3.9 -5.201,-7.157 -9.078,-9.183 -1.372,-0.717 -2.876,-1.293 -4.423,-1.23 -1.546,0.062 -3.139,0.886 -3.746,2.31 z"
               style="fill:#808080;fill-opacity:1;fill-rule:nonzero;stroke:none"
               id="path71" />
          </g>
          <g
             id="g73"
             transform="translate(99.8317,403.4929)">
            <path
               d="M 0,0 C 1.867,0.613 3.997,0.746 5.736,-0.169 8.704,-1.73 9.472,-5.923 8.113,-8.989 6.754,-12.055 3.844,-14.143 0.86,-15.673 -3.912,-18.121 -9.771,-16.523 -9.147,-10.11 -8.731,-5.839 -3.874,-1.271 0,0"
               style="fill:#b5b5b5;fill-opacity:1;fill-rule:nonzero;stroke:none"
               id="path75" />
          </g>
          <g
             id="g77"
             transform="translate(108.9181,387.7453)">
            <path
               d="M 0,0 C 1.644,0.479 3.653,0.191 4.787,-1.091 6.283,-2.781 5.461,-5.522 3.989,-7.232 2.315,-9.177 -0.252,-10.256 -2.808,-10.029 -7.82,-9.584 -14.098,-4.104 0,0"
               style="fill:#b5b5b5;fill-opacity:1;fill-rule:nonzero;stroke:none"
               id="path79" />
          </g>
          <g
             id="g81"
             transform="translate(96.3727,414.9997)">
            <path
               d="M 0,0 C 2.461,1.453 5.337,2.194 8.194,2.11 9.608,2.069 11.055,1.815 12.255,1.067 13.456,0.32 14.369,-0.993 14.351,-2.407 14.333,-3.839 13.375,-5.13 12.174,-5.912 10.975,-6.694 9.554,-7.051 8.156,-7.363 6.226,-7.795 4.238,-8.167 2.28,-7.89 -2.188,-7.258 -4.623,-2.73 0,0"
               style="fill:#808080;fill-opacity:1;fill-rule:nonzero;stroke:none"
               id="path83" />
          </g>
          <g
             id="g85"
             transform="translate(124.7663,406.0573)">
            <path
               d="m 0,0 c 2.552,-1.156 4.268,-3.613 5.498,-6.13 0.967,-1.981 1.723,-4.11 1.793,-6.312 0.109,-3.423 -1.608,-6.906 -4.524,-8.702 -2.916,-1.796 -6.945,-1.71 -9.647,0.394 -2.342,1.823 -3.489,4.855 -3.682,7.817 C -10.957,-6.86 -9.001,4.079 0,0"
               style="fill:#575757;fill-opacity:1;fill-rule:nonzero;stroke:none"
               id="path87" />
          </g>
          <g
             id="g89"
             transform="translate(86.4098,344.2023)">
            <path
               d="M 0,0 C -0.987,2.054 0.143,4.662 1.613,6.402 3.084,8.143 5.38,9.153 7.657,9.061 9.26,8.996 10.987,8.259 11.593,6.773 12.015,5.739 11.81,4.545 11.37,3.519 9.631,-0.533 2.625,-5.458 0,0"
               style="fill:#808080;fill-opacity:1;fill-rule:nonzero;stroke:none"
               id="path91" />
          </g>
          <g
             id="g93"
             transform="translate(103.6769,351.9772)">
            <path
               d="M 0,0 C -0.37,2.673 1.654,5.454 4.312,5.923 6.97,6.393 9.824,4.475 10.394,1.837 10.963,-0.801 9.153,-3.726 6.539,-4.394 3.923,-5.062 0.933,-3.364 0.167,-0.776 Z"
               style="fill:#808080;fill-opacity:1;fill-rule:nonzero;stroke:none"
               id="path95" />
          </g>
          <g
             id="g97"
             transform="translate(72.0817,344.2634)">
            <path
               d="M 0,0 C 1.154,0.755 2.631,0.794 4.008,0.871 5.694,0.965 7.45,0.989 8.989,0.296 10.528,-0.398 11.78,-2.012 11.518,-3.68 11.366,-4.646 10.743,-5.481 10.013,-6.133 7.865,-8.053 4.607,-8.627 1.933,-7.558 0.058,-6.808 -3.908,-2.557 0,0"
               style="fill:#575757;fill-opacity:1;fill-rule:nonzero;stroke:none"
               id="path99" />
          </g>
          <g
             id="g101"
             transform="translate(55.8654,330.7302)">
            <path
               d="m 0,0 c 2.074,2.409 4.839,4.215 7.879,5.146 4.957,1.518 11.055,0.3 13.955,-3.997 1.657,-2.454 2.084,-5.55 1.965,-8.508 -0.127,-3.186 -0.957,-6.559 -3.323,-8.697 -3.415,-3.086 -8.782,-2.558 -13.068,-0.88 C 0.942,-14.404 -5.595,-6.5 0,0"
               style="fill:#808080;fill-opacity:1;fill-rule:nonzero;stroke:none"
               id="path103" />
          </g>
          <g
             id="g105"
             transform="translate(100.505,337.3527)">
            <path
               d="M 0,0 C 6.916,-5.658 -4.49,-16.165 -11.14,-10.391 -18.863,-3.685 -5.818,4.76 0,0"
               style="fill:#575757;fill-opacity:1;fill-rule:nonzero;stroke:none"
               id="path107" />
          </g>
          <g
             id="g109"
             transform="translate(123.2345,344.1393)">
            <path
               d="m 0,0 c 1.737,-1.966 1.224,-5.061 0.044,-7.404 -1.172,-2.327 -2.948,-4.411 -5.266,-5.601 -5.831,-2.994 -13.346,1.661 -9.284,7.874 C -12.112,-1.469 -4.081,4.616 0,0"
               style="fill:#808080;fill-opacity:1;fill-rule:nonzero;stroke:none"
               id="path111" />
          </g>
          <g
             id="g113"
             transform="translate(136.2091,365.4255)">
            <path
               d="m 0,0 c 2.035,1.416 4.252,2.764 6.723,2.972 2.47,0.208 5.233,-1.073 5.944,-3.449 0.381,-1.273 0.136,-2.641 -0.149,-3.94 -0.775,-3.528 -1.849,-7.044 -3.78,-10.098 C 5.345,-19.876 -4.319,-25.305 -9.08,-18.304 -13.781,-11.389 -5.036,-3.505 0,0"
               style="fill:#808080;fill-opacity:1;fill-rule:nonzero;stroke:none"
               id="path115" />
          </g>
          <g
             id="g117"
             transform="translate(132.3449,333.9504)">
            <path
               d="M 0,0 C 0.507,3.255 4.501,5.729 7.73,5.074 9.499,4.716 10.917,3.299 11.676,1.663 12.435,0.026 12.623,-1.815 12.671,-3.619 12.71,-5.078 12.6,-6.7 11.559,-7.723 10.62,-8.647 9.188,-8.815 7.872,-8.845 3.969,-8.935 -1.521,-9.753 0,0"
               style="fill:#808080;fill-opacity:1;fill-rule:nonzero;stroke:none"
               id="path119" />
          </g>
          <g
             id="g121"
             transform="translate(115.9845,323.173)">
            <path
               d="M 0,0 C 1.014,1.583 2.674,2.634 4.302,3.572 5.558,4.295 6.957,4.966 8.394,4.782 9.638,4.622 10.724,3.83 11.542,2.879 14.783,-0.893 13.712,-7.504 9.445,-10.06 5.178,-12.615 -5.26,-8.207 0,0"
               style="fill:#575757;fill-opacity:1;fill-rule:nonzero;stroke:none"
               id="path123" />
          </g>
          <g
             id="g125"
             transform="translate(107.3556,317.2209)">
            <path
               d="m 0,0 c 2.407,-7.23 -8.946,-21.586 -13.11,-11.225 -1.401,3.488 -0.647,9.121 1.376,12.214 C -8.648,5.707 -1.958,5.881 0,0"
               style="fill:#575757;fill-opacity:1;fill-rule:nonzero;stroke:none"
               id="path127" />
          </g>
          <g
             id="g129"
             transform="translate(150.2462,385.3493)">
            <path
               d="m 0,0 c 1.323,0.23 2.771,0.06 3.853,-0.734 1.605,-1.179 2.008,-3.468 1.614,-5.42 -0.748,-3.708 -4.081,-6.741 -7.843,-7.135 -1.527,-0.16 -3.167,0.114 -4.35,1.093 C -7.908,-11.216 -9.812,-1.708 0,0"
               style="fill:#575757;fill-opacity:1;fill-rule:nonzero;stroke:none"
               id="path131" />
          </g>
        </g>
      </g>
      <g
         id="g133"
         transform="matrix(0.35277776,0,0,-0.35277778,220,176.38889)">
        <g
           id="g135"
           clip-path="url(#clipPath139)">
          <g
             id="g141">
            <g
               id="g143" />
            <g
               id="g155">
              <g
                 clip-path="url(#clipPath147)"
                 opacity="0.399994"
                 id="g153">
                <g
                   transform="translate(116.1779,409.6037)"
                   id="g151">
                  <path
                     d="m 0,0 c 4.85,-1.154 10.331,-3.84 10.905,-8.792 0.344,-2.969 -1.255,-5.777 -2.796,-8.337 -6.461,-10.738 -13.873,-22.779 -25.539,-28.487 -10.877,-5.323 -27.983,-5.3 -40.118,-5.087 -32.062,0.565 0.74,41.643 13.166,47.797 C -32.05,3.201 -13.458,3.204 0,0"
                     style="fill:#ffffff;fill-opacity:1;fill-rule:nonzero;stroke:none"
                     id="path149" />
                </g>
              </g>
            </g>
          </g>
        </g>
      </g>
    </g>
  </g>
  <metadata
     id="metadata3462">
    <rdf:RDF>
      <cc:Work
         rdf:about="">
        <dc:title>Planeta Mercurio</dc:title>
      </cc:Work>
    </rdf:RDF>
  </metadata>
</svg>
