<?xml version="1.0" encoding="UTF-8" standalone="no"?>
<!-- Created with Inkscape (http://www.inkscape.org/) -->

<svg
   width="38.779804mm"
   height="38.779808mm"
   viewBox="0 0 38.779804 38.779808"
   version="1.1"
   id="svg5"
   xml:space="preserve"
   xmlns:inkscape="http://www.inkscape.org/namespaces/inkscape"
   xmlns:sodipodi="http://sodipodi.sourceforge.net/DTD/sodipodi-0.dtd"
   xmlns="http://www.w3.org/2000/svg"
   xmlns:svg="http://www.w3.org/2000/svg"><sodipodi:namedview
     id="namedview7"
     pagecolor="#ffffff"
     bordercolor="#666666"
     borderopacity="1.0"
     inkscape:showpageshadow="2"
     inkscape:pageopacity="0.0"
     inkscape:pagecheckerboard="0"
     inkscape:deskcolor="#d1d1d1"
     inkscape:document-units="mm"
     showgrid="false" /><defs
     id="defs2"><clipPath
       clipPathUnits="userSpaceOnUse"
       id="clipPath5515"><path
         d="m 2912.04,3601.7 c 0,-303.56 -246.09,-549.64 -549.64,-549.64 -303.55,0 -549.63,246.08 -549.63,549.64 0,303.55 246.08,549.63 549.63,549.63 303.55,0 549.64,-246.08 549.64,-549.63"
         id="path5513" /></clipPath><clipPath
       clipPathUnits="userSpaceOnUse"
       id="clipPath5559"><path
         d="m 2052.44,3640.55 c -17.96,7.52 -35.15,17.93 -50.75,29.14 -27.55,19.79 -53.76,42.8 -83.06,59.27 7.91,10.68 15.18,22.07 22.13,32.51 8.28,12.46 17.38,24.23 27.16,35.37 46.94,-9.91 64.37,-40.14 70.74,-96.01 2.33,-20.44 6.91,-40.8 13.78,-60.28 m 388.58,156.39 c -10.34,0 -19.92,3.15 -28.92,8.09 0.17,10.57 0.83,21.1 2.56,31.55 5,30.14 21.25,60.89 49.59,72.32 26.49,10.7 57.96,2.57 84.04,14.25 23.18,10.38 36.76,34.26 42.34,59.57 12.03,-7.35 24.02,-14.79 36.09,-22.03 -12.25,-14.39 -21.55,-31.1 -26.37,-48.41 -4.12,-14.76 -4.07,-31.47 0.76,-45.01 -30.7,-11.44 -63.3,-18.58 -91.06,-35.86 -21.71,-13.51 -41.74,-33.56 -67.29,-34.44 -0.58,-0.02 -1.16,-0.03 -1.74,-0.03"
         id="path5557" /></clipPath></defs><g
     id="g7306"
     transform="translate(-283.95051,-29.939183)"><g
       id="g5509"
       transform="matrix(0.03527778,0,0,-0.03527778,220,176.38889)"><g
         id="g5511"
         clip-path="url(#clipPath5515)"><path
           d="m 2912.04,3601.7 c 0,-303.56 -246.09,-549.64 -549.64,-549.64 -303.55,0 -549.63,246.08 -549.63,549.64 0,303.55 246.08,549.63 549.63,549.63 303.55,0 549.64,-246.08 549.64,-549.63"
           style="fill:#f4b535;fill-opacity:1;fill-rule:nonzero;stroke:none"
           id="path5517" /><path
           d="m 1735.26,3713.93 c 40.28,32.65 96.55,45.82 146.26,31.08 45.58,-13.52 81.56,-47.58 120.17,-75.32 38.61,-27.75 86.97,-50.56 132.53,-36.96 39.35,11.74 66.46,48.06 83.28,85.52 16.81,37.47 26.3,78.14 46.02,114.17 7.64,13.97 17.66,27.86 32.49,33.69 26.35,10.36 54.69,-8.46 75.27,-27.9 20.58,-19.44 43.18,-42.21 71.48,-41.24 25.55,0.88 45.58,20.93 67.29,34.44 34.47,21.45 76.39,27.28 112.88,45.1 39.78,19.42 71.22,52.08 106.05,79.41 34.83,27.33 77.23,50.47 121.19,45.24 66.11,-7.87 109.43,-78.59 112.34,-145.11 2.91,-66.52 -23.57,-130.25 -45.08,-193.26 -20.21,-59.19 -36.38,-119.77 -48.35,-181.16 -3.89,-19.95 -9.29,-42.73 -27.37,-52 -19.7,-10.11 -44.21,2.1 -58.38,19.12 -14.16,17.03 -22.2,38.45 -36.15,55.67 -30.18,37.23 -83.86,48.44 -131.06,40.08 -47.2,-8.37 -89.67,-33.05 -131.02,-57.3 -115.11,-67.52 -230.22,-135.04 -345.33,-202.55 -36.26,-21.28 -76.28,-43.34 -117.86,-37.1 -43.51,6.51 -76.04,42.03 -104.76,75.36 -64.51,74.86 -125.35,163.51 -204.06,223.4 -68.78,52.32 -32.83,112.62 22.17,167.62"
           style="fill:#e69c21;fill-opacity:1;fill-rule:nonzero;stroke:none"
           id="path5519" /><path
           d="m 2088.47,3181.59 c 39.7,-7.81 80.86,6.58 114.99,28.28 34.13,21.71 63.1,50.49 94.74,75.69 99.42,79.17 227.02,122.17 354.08,119.3 25.37,-0.58 54.11,-4.77 68.62,-25.59 9.09,-13.04 10.4,-29.74 14.56,-45.08 11.79,-43.39 47.83,-76.92 88.32,-96.47 40.48,-19.56 85.54,-27.15 129.9,-34.52 -44.45,-60.82 -113.29,-98.99 -182.97,-127.62 -82.24,-33.78 -168.48,-56.88 -255.24,-76.25 -100.34,-22.38 -202.66,-39.96 -305.4,-36.36 -102.66,3.59 -327.16,39.61 -351.48,166.24 -7.89,41.06 9.9,95.06 51.1,112.07 63.17,26.07 120.28,-48.17 178.78,-59.69"
           style="fill:#e69c21;fill-opacity:1;fill-rule:nonzero;stroke:none"
           id="path5521" /><path
           d="m 2697.38,3666.57 c 24.01,-24.62 68.83,-15.33 90.77,11.15 21.95,26.47 25.93,63.45 24.27,97.8 -9.98,206.63 -195.81,-26.1 -115.04,-108.95"
           style="fill:#f7d56a;fill-opacity:1;fill-rule:nonzero;stroke:none"
           id="path5523" /><path
           d="m 2442.03,3618.76 c -7.37,-10.58 -13.73,-23.77 -9.61,-35.99 3.8,-11.25 15.93,-18.16 27.79,-18.77 11.86,-0.6 23.39,4 33.76,9.79 20.44,11.41 96.3,83.17 69.47,111.59 -27.56,29.18 -107.13,-46.1 -121.41,-66.62"
           style="fill:#f7d56a;fill-opacity:1;fill-rule:nonzero;stroke:none"
           id="path5525" /><path
           d="m 2030.15,3353.68 c -1.32,1.32 -2.64,2.64 -3.96,3.96"
           style="fill:#f7d56a;fill-opacity:1;fill-rule:nonzero;stroke:none"
           id="path5527" /><path
           d="m 1924.55,3535.68 c 3.57,27.64 22.23,55.03 49.51,60.75 21,4.39 42.75,-4.56 59.99,-17.33 57.79,-42.78 119.73,-180.24 28.22,-220.63 -90.41,-39.9 -146.42,109.9 -137.72,177.21"
           style="fill:#f7d56a;fill-opacity:1;fill-rule:nonzero;stroke:none"
           id="path5529" /><path
           d="m 2366.84,3222.49 c 9.68,-0.13 19.83,-0.98 27.94,-6.27 8.11,-5.29 13.21,-16.35 8.83,-24.99 -2.3,-4.55 -6.7,-7.63 -11.02,-10.36 -27.69,-17.5 -116.74,-59.95 -139.19,-17.83 -28.15,52.84 84.8,59.84 113.44,59.45"
           style="fill:#f7d56a;fill-opacity:1;fill-rule:nonzero;stroke:none"
           id="path5531" /><path
           d="m 2172.58,3164.2 c -22.33,3.3 -37.16,27.58 -36.05,50.14 1.11,22.55 14.55,42.76 30.47,58.77 9.57,9.62 20.56,18.39 33.58,22.21 23.22,6.81 48.87,-3.84 65.71,-21.22 16.82,-17.38 26.33,-40.48 33.94,-63.44 5.35,-16.13 9,-36.39 -3.42,-47.99 -6.88,-6.43 -16.87,-8.09 -26.26,-8.88 -39.1,-3.27 -79.02,3.71 -114.69,20.06"
           style="fill:#f7d56a;fill-opacity:1;fill-rule:nonzero;stroke:none"
           id="path5533" /><path
           d="m 2309.01,4007.63 c 52.66,54.14 143.27,45.78 211.72,13.86 68.45,-31.93 127.83,-82.82 199.63,-106.27 71.79,-23.46 166.67,-7.27 196.74,62.02 22.6,52.09 -1.41,115.12 -42.86,153.96 -41.43,38.83 -96.8,58.59 -150.84,76.04 -137.03,44.25 -282.24,80.6 -423.93,54.95 -139.63,-25.28 -261.6,-108.27 -371.8,-197.64 -54.68,-44.34 -109.17,-92.73 -139,-156.49 -29.84,-63.75 -29.03,-146.83 19.7,-197.62 11.29,-11.77 25.51,-21.76 41.71,-23.61 41.17,-4.72 67.73,40.14 90.68,74.64 53.11,79.88 139.37,131.35 226.82,170.78 102.89,46.39 141.43,75.38 141.43,75.38"
           style="fill:#e69c21;fill-opacity:1;fill-rule:nonzero;stroke:none"
           id="path5535" /><path
           d="m 2038.66,3700.83 c 6.88,-60.43 33.47,-120.21 80.64,-158.6 47.18,-38.4 116.19,-51.81 170.98,-25.4 32.73,15.77 58.15,43.88 77.2,74.82 28.28,45.93 44.11,99.45 45.34,153.39 0.71,30.55 -3.15,61.38 1.84,91.54 5,30.14 21.25,60.89 49.59,72.32 26.49,10.7 57.96,2.57 84.04,14.25 28.52,12.78 42.51,45.98 44.95,77.15 6.07,77.27 -44.47,151.41 -111.79,189.85 -77.24,44.11 -172.73,47.23 -259.11,26.05 -86.38,-21.19 -165.47,-64.67 -241.93,-110.11 -47.7,-28.35 -98.62,-60.19 -128.72,-108.31 -25.38,-40.58 -46.49,-131.06 -17.54,-175.23 17.64,-26.93 47.43,-25.03 76.74,-23.13 9.8,0.64 19.54,1.27 28.76,0.83 68.6,-3.29 91.49,-33.51 99.01,-99.42"
           style="fill:#f7d56a;fill-opacity:1;fill-rule:nonzero;stroke:none"
           id="path5537" /><path
           d="m 2700.37,4004.84 c 14.4,2.38 31.54,1.33 40.25,-10.38 7.61,-10.23 5.72,-24.54 2.29,-36.81 -3.29,-11.78 -7.72,-23.23 -13.15,-34.18 -12.6,-25.39 -30.64,-48.08 -52.68,-65.89 -7.35,-5.94 -15.29,-11.43 -24.34,-14.13 -47.8,-14.29 -62.38,33 -52.39,68.83 12.39,44.49 54.33,84.98 100.02,92.56"
           style="fill:#f7d56a;fill-opacity:1;fill-rule:nonzero;stroke:none"
           id="path5539" /><path
           d="m 2366.99,4124.95 c 38.24,-6.91 72.45,-33.2 88.99,-68.36 6.13,-13.02 9.68,-29.14 1.92,-41.25 -2.89,-4.51 -7.1,-8.01 -11.46,-11.13 -31.96,-22.75 -76.29,-26.82 -111.85,-10.24 -25.41,11.84 -69.98,54.37 -68.75,85.84 1.67,42.68 67.24,51.27 101.15,45.14"
           style="fill:#f4b535;fill-opacity:1;fill-rule:nonzero;stroke:none"
           id="path5541" /><path
           d="m 1938.07,3962.08 c 7.82,2.18 16.16,3.54 24.04,1.55 23.43,-5.9 30.12,-36.43 26.71,-60.36 -5.75,-40.4 -27.76,-78.24 -60.04,-103.22 -41.26,-31.91 -125.32,-29.71 -116.08,39.52 6.81,51.08 79.09,109.62 125.37,122.51"
           style="fill:#f4b535;fill-opacity:1;fill-rule:nonzero;stroke:none"
           id="path5543" /><path
           d="m 2410.32,3535.83 c 3.97,-4.36 7.83,-9.43 8.09,-15.32 0.29,-6.29 -3.57,-11.96 -7.65,-16.75 -37.92,-44.53 -164.43,-84.52 -162.41,8.22 2.04,94.16 116.25,74.08 161.97,23.85"
           style="fill:#f4b535;fill-opacity:1;fill-rule:nonzero;stroke:none"
           id="path5545" /><path
           d="m 2777.79,3365.97 c 4.11,-3.39 8.02,-7.5 9.3,-12.68 1.84,-7.49 -2.2,-15.08 -6.42,-21.54 -29.81,-45.65 -151.55,-148.14 -192.13,-57.02 -33.87,76.07 136.59,134.63 189.25,91.24"
           style="fill:#f4b535;fill-opacity:1;fill-rule:nonzero;stroke:none"
           id="path5547" /><path
           d="m 2791.94,3643.94 c 12.9,-0.32 27.1,-2.46 35.48,-12.26 11.53,-13.48 6.51,-34.04 -0.21,-50.46 -34.33,-83.93 -249.88,-188.72 -342.11,-94.02 0,0 243.92,158.32 306.84,156.74"
           style="fill:#f4b535;fill-opacity:1;fill-rule:nonzero;stroke:none"
           id="path5549" /><path
           d="m 2605.15,3645.48 c 14.4,14.57 37.18,24.71 55.23,15.04 10.59,-5.67 16.31,-16.12 19.09,-28 2.26,-9.69 2.58,-20.32 2,-30.1 -1.47,-24.83 -5.88,-50.21 -18.96,-71.37 -62.01,-100.26 -121.5,49.45 -57.36,114.43"
           style="fill:#f7d56a;fill-opacity:1;fill-rule:nonzero;stroke:none"
           id="path5551" /></g></g><g
       id="g5553"
       transform="matrix(0.03527778,0,0,-0.03527778,220,176.38889)"><g
         id="g5555"
         clip-path="url(#clipPath5559)"><path
           d="m 1918.63,3640.55 h 708.09 v 342.168 h -708.09 z"
           style="fill:#f9cf44;fill-opacity:1;fill-rule:nonzero;stroke:none"
           id="path5561" /></g></g><path
       d="m 292.30957,49.800221 c -0.36795,0 -0.72919,-0.0021 -1.08267,-0.006 -0.37571,-0.194028 -0.78423,-0.319264 -1.19486,-0.319264 -0.13053,0 -0.26141,0.0127 -0.39159,0.03986 -0.19579,0.04092 -0.37853,0.113594 -0.54715,0.211314 -2.80494,-0.274814 -3.8922,-1.605845 -3.91513,-3.412773 0.0293,0.0049 0.0589,0.0092 0.0885,0.01235 0.0713,0.0081 0.14111,0.01235 0.2099,0.01235 0.90946,0 1.61043,-0.691798 2.20839,-1.498601 1.03364,0.581026 1.95827,1.392767 2.93017,2.090915 0.55033,0.395463 1.15676,0.762705 1.79035,1.027994 0.22789,0.647347 0.52775,1.267178 0.89993,1.835856 -0.33619,0.0042 -0.66851,0.006 -0.99589,0.006 m 12.11192,-1.956153 c 0.43039,-1.140178 0.66957,-2.353028 0.69744,-3.571875 0.0162,-0.704145 -0.0363,-1.412875 -0.0254,-2.116314 0.3175,0.174272 0.65546,0.285397 1.02024,0.285397 0.0205,0 0.0409,-3.53e-4 0.0614,-0.0011 0.90135,-0.03104 1.60796,-0.738364 2.37384,-1.214967 0.97931,-0.6096 2.12937,-0.861483 3.2124,-1.265061 0.0183,0.05151 0.0388,0.1016 0.061,0.150283 -1.93076,3.049059 -4.20723,6.067425 -7.40093,7.733595"
       style="fill:#eebf17;fill-opacity:1;fill-rule:nonzero;stroke:none;stroke-width:0.0352778"
       id="path5563" /><path
       d="m 291.2269,49.794224 c -0.42334,-0.0042 -0.83503,-0.01058 -1.2312,-0.01764 -0.31891,-0.0056 -0.61912,-0.02258 -0.9024,-0.05045 0.16862,-0.09772 0.35136,-0.170392 0.54715,-0.211314 0.13018,-0.02716 0.26106,-0.03986 0.39159,-0.03986 0.41063,0 0.81915,0.125236 1.19486,0.319264"
       style="fill:#f7e492;fill-opacity:1;fill-rule:nonzero;stroke:none;stroke-width:0.0352778"
       id="path5565" /><path
       d="m 285.47662,46.33806 c -0.0688,0 -0.13864,-0.0042 -0.2099,-0.01235 -0.0296,-0.0032 -0.0593,-0.0074 -0.0885,-0.01235 -0.0127,-0.984603 0.28998,-2.109611 0.80257,-3.283303 0.72919,-0.01411 1.50601,-0.268464 2.06234,-0.6985 0.005,-0.0035 0.009,-0.0071 0.0134,-0.01058 0.0473,-0.0011 0.0942,-0.0018 0.14076,-0.0018 0.0773,0 0.15381,0.0018 0.22931,0.0053 0.36865,0.01764 0.69955,0.0575 0.9973,0.120297 -0.34502,0.392994 -0.66605,0.808214 -0.95815,1.247775 -0.24518,0.3683 -0.50165,0.770114 -0.78069,1.14688 -0.59796,0.806803 -1.29893,1.498601 -2.20839,1.498601 m 27.18823,-9.67352 c -0.4258,-0.255412 -0.84878,-0.517878 -1.27317,-0.77717 0.0455,-0.205669 0.0758,-0.414161 0.0921,-0.620183 0.0882,-1.12395 -0.16298,-2.22885 -0.65511,-3.23462 1.55787,0.467431 3.13373,1.391356 3.31541,2.9591 0.0187,0.163689 0.0212,0.325967 0.009,0.486481 -0.56056,0.284339 -1.0728,0.697794 -1.48837,1.186392"
       style="fill:#eebf17;fill-opacity:1;fill-rule:nonzero;stroke:none;stroke-width:0.0352778"
       id="path5567" /><path
       d="m 293.30546,49.794224 c -0.37218,-0.568678 -0.67204,-1.188509 -0.89993,-1.835856 -0.24236,-0.687211 -0.40393,-1.405467 -0.48613,-2.126545 -0.22472,-1.970969 -0.83961,-3.037416 -2.49555,-3.387019 -0.29775,-0.0628 -0.62865,-0.102659 -0.9973,-0.120297 -0.0755,-0.0035 -0.15205,-0.0053 -0.22931,-0.0053 -0.0466,0 -0.0935,7.05e-4 -0.14076,0.0018 1.13136,-0.881239 1.90289,-2.211211 2.10467,-3.630789 0.0766,-0.535517 0.009,-1.164873 -0.26105,-1.60655 1.7025,-1.969912 3.5059,-3.557412 4.73992,-4.168423 1.74343,-0.8636 3.8414,-1.381125 6.03497,-1.618544 -0.4258,0.261761 -0.72072,0.640291 -0.74118,1.165577 -0.0434,1.110192 1.52893,2.610556 2.42534,3.028245 0.51365,0.239536 1.0788,0.356658 1.64501,0.356658 0.81668,0 1.63512,-0.244122 2.30081,-0.717902 0.15381,-0.110067 0.30233,-0.233539 0.40429,-0.392642 0.27375,-0.427214 0.14851,-0.995892 -0.0677,-1.455209 -0.44626,-0.949325 -1.258,-1.714852 -2.21897,-2.131483 2.07151,0.05292 4.09963,0.317147 5.87481,0.739775 0.17533,0.04198 0.35313,0.08925 0.53128,0.142875 0.49213,1.00577 0.7433,2.11067 0.65511,3.23462 -0.0162,0.206022 -0.0466,0.414514 -0.0921,0.620183 -0.19685,0.892881 -0.67593,1.735314 -1.49367,2.101497 -0.92004,0.412045 -2.03023,0.125237 -2.96474,0.502709 -0.99977,0.403225 -1.57304,1.488017 -1.74943,2.551289 -0.061,0.368653 -0.0843,0.740128 -0.0903,1.113014 -0.0109,0.703439 0.0416,1.412169 0.0254,2.116314 -0.0279,1.218847 -0.26705,2.431697 -0.69744,3.571875 -0.0903,0.04727 -0.18133,0.09313 -0.2734,0.137936 -2.92171,1.429809 -7.11729,1.766359 -10.84263,1.81222"
       style="fill:#f7e492;fill-opacity:1;fill-rule:nonzero;stroke:none;stroke-width:0.0352778"
       id="path5569" /><path
       d="m 311.82242,40.110473 c -0.0222,-0.04868 -0.0427,-0.09878 -0.061,-0.150283 -0.1704,-0.477661 -0.17216,-1.067153 -0.0268,-1.587853 0.17003,-0.610659 0.49812,-1.20015 0.93027,-1.707797 0.41557,-0.488598 0.92781,-0.902053 1.48837,-1.186392 -0.0639,0.868186 -0.53693,1.692628 -0.99519,2.454628 -0.43074,0.715433 -0.87312,1.447447 -1.33561,2.177697"
       style="fill:#f7e492;fill-opacity:1;fill-rule:nonzero;stroke:none;stroke-width:0.0352778"
       id="path5571" /><path
       d="m 304.00416,35.847153 c -0.56621,0 -1.13136,-0.117122 -1.64501,-0.356658 -0.89641,-0.417689 -2.46874,-1.918053 -2.42534,-3.028245 0.0205,-0.525286 0.31538,-0.903816 0.74118,-1.165577 0.98213,-0.106187 1.98402,-0.156634 2.98133,-0.156634 0.25611,0 0.51152,0.0032 0.76623,0.0099 0.96097,0.416631 1.77271,1.182158 2.21897,2.131483 0.21625,0.459317 0.34149,1.027995 0.0677,1.455209 -0.10196,0.159103 -0.25048,0.282575 -0.40429,0.392642 -0.66569,0.47378 -1.48413,0.717902 -2.30081,0.717902"
       style="fill:#f9cf44;fill-opacity:1;fill-rule:nonzero;stroke:none;stroke-width:0.0352778"
       id="path5573" /><path
       d="m 285.98074,43.030062 c 0.87277,-1.997781 2.35303,-4.134203 3.91936,-5.946422 0.27023,0.441677 0.33761,1.071033 0.26105,1.60655 -0.20178,1.419578 -0.97331,2.74955 -2.10467,3.630789 -0.004,0.0035 -0.009,0.0071 -0.0134,0.01058 -0.55633,0.430036 -1.33315,0.684389 -2.06234,0.6985"
       style="fill:#f9cf44;fill-opacity:1;fill-rule:nonzero;stroke:none;stroke-width:0.0352778"
       id="path5575" /></g></svg>
