<?xml version="1.0" encoding="UTF-8" standalone="no"?>
<!-- Created with Inkscape (http://www.inkscape.org/) -->

<svg
   width="38.779804mm"
   height="38.779808mm"
   viewBox="0 0 38.779804 38.779808"
   version="1.1"
   id="svg5"
   xml:space="preserve"
   xmlns:inkscape="http://www.inkscape.org/namespaces/inkscape"
   xmlns:sodipodi="http://sodipodi.sourceforge.net/DTD/sodipodi-0.dtd"
   xmlns="http://www.w3.org/2000/svg"
   xmlns:svg="http://www.w3.org/2000/svg"><sodipodi:namedview
     id="namedview7"
     pagecolor="#ffffff"
     bordercolor="#666666"
     borderopacity="1.0"
     inkscape:showpageshadow="2"
     inkscape:pageopacity="0.0"
     inkscape:pagecheckerboard="0"
     inkscape:deskcolor="#d1d1d1"
     inkscape:document-units="mm"
     showgrid="false" /><defs
     id="defs2"><clipPath
       clipPathUnits="userSpaceOnUse"
       id="clipPath5583"><path
         d="m 4311.31,3601.7 c 0,-303.56 -246.08,-549.64 -549.63,-549.64 -303.56,0 -549.64,246.08 -549.64,549.64 0,303.55 246.08,549.63 549.64,549.63 303.55,0 549.63,-246.08 549.63,-549.63"
         id="path5581" /></clipPath></defs><g
     id="g7343"
     transform="translate(-333.31364,-29.939183)"><g
       id="g5577"
       transform="matrix(0.03527778,0,0,-0.03527778,220,176.38889)"><g
         id="g5579"
         clip-path="url(#clipPath5583)"><path
           d="m 4311.31,3601.7 c 0,-303.56 -246.08,-549.64 -549.63,-549.64 -303.56,0 -549.64,246.08 -549.64,549.64 0,303.55 246.08,549.63 549.64,549.63 303.55,0 549.63,-246.08 549.63,-549.63"
           style="fill:#3a69bb;fill-opacity:1;fill-rule:nonzero;stroke:none"
           id="path5585" /><path
           d="m 3147.18,3798.44 c 29.08,85.42 85.54,161.28 159.03,213.65 19.43,13.84 40.52,26.29 63.87,31.19 30.99,6.51 56.82,-17.07 82.35,-40.65 26.78,-24.74 53.22,-49.48 84.9,-39.47 242.67,76.69 239.11,-130.42 259.98,-181.64 39.2,-96.21 83.48,53.63 169.94,111.22 81.22,54.08 157.2,116.03 226.54,184.69 18.78,18.59 38.31,40.72 37.57,67.13 -0.62,22.53 -16.05,41.71 -31.84,57.82 -148.16,151.12 -391.47,185.55 -589.88,111.91 -198.41,-73.63 -352.36,-241.17 -443.57,-432.15 l -18.89,-83.7"
           style="fill:#3581cc;fill-opacity:1;fill-rule:nonzero;stroke:none"
           id="path5587" /><path
           d="m 4264.57,3969.14 c -174.27,-89.28 -248.05,-322.31 -502.89,-281.37 -37.6,6.04 -354.54,0.49 -354,-37.58 0.83,-58.51 196.11,-110.33 254.48,-114.28 194.71,-13.18 136.25,-252.68 200.9,-68.55 26.77,76.25 61.97,39.7 90.78,3.16 21.95,-27.84 40.19,-55.68 48.15,-33.65 23.56,65.23 496.1,527.78 445.26,581.3 -56.12,59.08 -125.13,-19.54 -182.68,-49.03"
           style="fill:#3581cc;fill-opacity:1;fill-rule:nonzero;stroke:none"
           id="path5589" /><path
           d="m 3159.82,3873.39 c 113.09,137.9 721.28,231.9 634.85,-4.72 -31.96,-87.49 -664.34,-264.66 -654.91,-287.42 l 20.06,292.14"
           style="fill:#3581cc;fill-opacity:1;fill-rule:nonzero;stroke:none"
           id="path5591" /><path
           d="m 3363.53,3539.32 c 17.79,7.57 290.69,-341.13 310.03,-340.8 49.15,0.85 62.23,159.31 88.12,117.52 25.88,-41.78 9.44,-115.92 46.2,-148.55 71.11,-63.14 24.7,215.71 113.56,249.57 88.86,33.87 -159.76,-176.95 236.81,-1.2 24.84,11.01 55.75,-8.05 74.61,-27.62 23.5,-24.4 25.79,-63.77 13.11,-95.19 -12.67,-31.41 -37.72,-56.14 -64.09,-77.41 -183.65,-148.18 -438.31,-160.99 -674.2,-167.23 -80.51,-2.13 -164.55,-3.55 -237.13,31.34 -80.86,38.87 -167.17,155.29 -147.36,251.11 19.21,92.91 161.57,174.94 240.34,208.46"
           style="fill:#3581cc;fill-opacity:1;fill-rule:nonzero;stroke:none"
           id="path5593" /><path
           d="m 3846.38,4165.06 c 31.17,13.82 75.55,22.52 92.66,-6.96 10.79,-18.58 3.17,-42.11 -5.72,-61.67 -53.7,-118.08 -300.82,-396.86 -461.96,-328.18 -194.78,83.03 293.32,360.59 375.02,396.81"
           style="fill:#21aae8;fill-opacity:1;fill-rule:nonzero;stroke:none"
           id="path5595" /><path
           d="m 3720.96,3627.48 c 20.19,-3.25 41.28,-11.07 52.47,-28.19 11.23,-17.16 9.7,-40.54 0.02,-58.62 -9.68,-18.09 -26.33,-31.51 -44.13,-41.74 -46.07,-26.48 -192.76,-53.79 -204.37,31.61 -10.38,76.29 142.41,105.58 196.01,96.94"
           style="fill:#21aae8;fill-opacity:1;fill-rule:nonzero;stroke:none"
           id="path5597" /><path
           d="m 4210.59,3889.69 c 30.4,-20.07 60.38,-51.81 54.17,-87.71 -6.65,-38.45 -54.55,-58.38 -92.14,-47.9 -37.57,10.49 -65.36,42.02 -87.07,74.44 -82.08,122.54 51.13,109.98 125.04,61.17"
           style="fill:#21aae8;fill-opacity:1;fill-rule:nonzero;stroke:none"
           id="path5599" /><path
           d="m 3462.03,3550.78 c 20.67,-22.93 37.9,-52.05 35.23,-82.8 -1.89,-21.86 -13.62,-41.65 -27.16,-58.91 -32.64,-41.68 -85.84,-75.03 -136.77,-60.58 -27.43,7.78 -49.59,28.26 -66.64,51.12 -39.69,53.26 -71.98,176.66 -1.76,223.27 59.41,39.45 157.93,-28.68 197.1,-72.1"
           style="fill:#21aae8;fill-opacity:1;fill-rule:nonzero;stroke:none"
           id="path5601" /><path
           d="m 4024.04,3395.02 c 1.85,39.58 21.81,84.87 60.92,91.24 20.74,3.37 41.48,-5.35 59.82,-15.61 65.15,-36.43 119.3,-100.08 126.03,-174.41 19.94,-220.02 -254.44,-65.49 -246.77,98.78"
           style="fill:#21aae8;fill-opacity:1;fill-rule:nonzero;stroke:none"
           id="path5603" /><path
           d="m 3314.67,3936.23 c 15.69,1.84 33.56,0.86 44.33,-10.68 6.63,-7.1 9.32,-16.98 10.9,-26.57 9.95,-60.14 -14.61,-120.68 -45.52,-173.23 -17.42,-29.62 -37.8,-58.73 -66.7,-77.34 -94.38,-60.77 -145.47,32.87 -117.4,112.59 28.89,82.03 79.96,164.13 174.39,175.23"
           style="fill:#21aae8;fill-opacity:1;fill-rule:nonzero;stroke:none"
           id="path5605" /><path
           d="m 3480.18,3721.34 c 28.68,-16.52 33.69,-55.63 54.18,-81.63 31.48,-39.96 91.55,-40.82 141.43,-30.79 18.29,3.68 37.74,8.25 55.12,1.46 34.16,-13.33 38.62,-62.04 22.9,-95.15 -15.74,-33.12 -44.58,-58.5 -61.03,-91.27 -34.15,-68.02 -8.29,-150.12 -19.22,-225.44 -8.85,-61.01 -43.42,-117.87 -93.53,-153.8 -7.82,-5.61 -16.41,-10.87 -26,-11.76 -15.58,-1.44 -29.81,8.96 -40.15,20.7 -48.66,55.35 -41.88,140.82 -78.46,204.81 -50.39,88.11 -195.77,133.97 -182.15,252.82 8.75,76.35 132.21,264.64 226.91,210.05"
           style="fill:#159e7b;fill-opacity:1;fill-rule:nonzero;stroke:none"
           id="path5607" /><path
           d="m 3555.72,3846.63 c -15.05,-20.55 -26.22,-44.83 -46.7,-59.98 -35.66,-26.39 -78.43,-27.12 -109.93,-62 -23.64,-26.19 -29.71,-79.4 -73.14,-83.3 -96.64,-8.68 -52.49,148.02 -5.39,181.5 7.41,5.27 15.78,10.17 19.74,18.36 7.93,16.44 -5.86,34.54 -17.92,48.24 -28.55,32.41 -53.62,71.43 -54.27,114.6 -0.81,54.05 37.93,102.44 85.11,128.84 47.17,26.4 101.91,35.01 155.35,43.17 49,7.5 98.01,14.99 147.02,22.48 53.24,8.14 108.3,16.19 160.33,2.3 42.75,-11.41 84.41,-42.57 90.68,-86.38 8.13,-56.78 -44.4,-103.72 -96.12,-128.5 l -254.76,-139.33"
           style="fill:#159e7b;fill-opacity:1;fill-rule:nonzero;stroke:none"
           id="path5609" /><path
           d="m 4085.96,3877.33 c 46.23,-35.8 103.77,-55.4 147.98,-93.67 22.28,-19.28 40.64,-42.89 63.79,-61.14 23.14,-18.24 53.5,-30.96 81.95,-23.31 37.61,10.12 58.2,52.03 60.94,90.87 5.38,76.14 -39.87,148.76 -99.75,196.1 -50.4,39.84 -127.78,93.15 -191.6,61.46 -58.11,-28.85 -128.79,-119.62 -63.31,-170.31"
           style="fill:#159e7b;fill-opacity:1;fill-rule:nonzero;stroke:none"
           id="path5611" /><path
           d="m 4000.57,3476.96 c -0.93,-13.77 -0.79,-28.04 4.52,-40.79 4.21,-10.1 11.41,-18.62 18.41,-27.05 80.76,-97.27 148.47,-205.37 200.73,-320.5 65.08,49.58 109.01,121.25 151.43,191.21 20.36,33.59 41.09,68.08 48.68,106.63 23.28,118.11 -24.06,325.96 -133.95,267.76 -109.12,-57.8 -273.94,-50.21 -289.82,-177.26"
           style="fill:#159e7b;fill-opacity:1;fill-rule:nonzero;stroke:none"
           id="path5613" /><path
           d="m 3706.15,4195.86 c 59.93,-22.19 169.01,-39.43 232.89,-37.76 -84.86,-64.17 -173.01,-164.17 -273.78,-198.31 -37.51,-12.71 -102.53,-32.35 -134.69,-55.46 -32.17,-23.12 -89.64,-24.64 -82.51,-63.6 2.35,-12.85 7.92,-26.33 3.01,-38.44 -3.37,-8.31 -11.01,-13.98 -18.29,-19.21 -45.06,-32.33 -90.12,-64.66 -135.18,-96.98 -39.44,79.03 55.28,178.74 14.93,257.32 -22.03,42.89 -116.98,68.06 -120.73,116.47 -4.02,51.79 95.78,86.3 133.51,103.24 118.57,53.23 255.66,79.07 380.84,32.73"
           style="fill:#15ae68;fill-opacity:1;fill-rule:nonzero;stroke:none"
           id="path5615" /><path
           d="m 3584.14,3593.55 c 9.17,0.28 17.92,-5.22 24.9,-11.16 17.8,-15.13 99.25,-15.64 103.76,-38.56 4.56,-23.16 -42.73,-106.68 -62.25,-149.08 -33.36,-72.44 -24.06,-137.05 -9.06,-215.38 2.72,-14.19 -51.04,-123.9 -54.43,-137.94 -3.39,-14.04 -16.47,-27.03 -30.71,-24.6 -4.53,0.78 -8.79,3.08 -11.93,6.44 -3.16,3.39 -5.13,7.71 -6.89,11.99 -34.86,84.76 -13.17,188.01 -61.24,266.04 -26.57,43.09 -70.59,71.7 -109.59,103.99 -64.32,53.28 -115.11,156.03 -34.87,231.59 87.5,82.38 99.84,42.36 137.41,2.33 22.34,-23.8 53.6,-47.6 114.9,-45.66"
           style="fill:#15ae68;fill-opacity:1;fill-rule:nonzero;stroke:none"
           id="path5617" /><path
           d="m 4334.83,3814.12 c 59.74,1.12 119.16,15.92 178.68,10.68 5.41,98.4 -32.69,198.41 -102.21,268.27 -10.29,10.35 -21.65,20.31 -35.47,24.99 -16.61,5.62 -34.89,2.99 -51.82,-1.58 -64.23,-17.32 -202.63,-98.56 -191.35,-170.92 13.39,-85.91 128.38,-132.82 202.17,-131.44"
           style="fill:#15ae68;fill-opacity:1;fill-rule:nonzero;stroke:none"
           id="path5619" /><path
           d="m 4450.16,3603.01 c 6.94,19.26 -4.97,41.35 -22.34,52.16 -17.36,10.81 -38.72,12.76 -59.18,13.07 -26.77,0.39 -54.44,-1.77 -78.25,-14.02 -54.91,-28.27 -77.43,-103.31 -136.27,-122.08 -27.82,-8.88 -63.71,-5.63 -79.77,-30.02 -11.2,-17 -6.5,-39.54 -0.66,-59.03 25.55,-85.4 65.45,-166.49 117.51,-238.85 8.68,-12.06 18.2,-24.31 31.59,-30.76 11.89,-5.74 25.7,-6.27 38.8,-4.53 73.93,9.77 121.59,82.51 150.61,151.21 49.69,117.6 73.02,259.26 7.21,368.66"
           style="fill:#15ae68;fill-opacity:1;fill-rule:nonzero;stroke:none"
           id="path5621" /></g></g><path
       d="m 343.89521,46.543376 c -0.21414,-0.449086 -0.4445,-0.877358 -0.79163,-1.193094 4.45241,-1.6383 8.75277,-3.400425 10.25101,-4.766028 0.26812,1.000478 0.40464,1.906411 0.60608,2.401005 0.32173,0.78987 0.65334,1.109839 1.01106,1.109839 1.17969,0 2.64371,-3.474508 4.98404,-5.033433 1.18322,-0.787753 2.33469,-1.622778 3.45123,-2.502253 -0.19297,0.475897 -0.46144,0.934861 -0.72496,1.373364 -1.78047,2.958042 -3.7652,6.196895 -6.50946,8.433153 -0.45967,0.06244 -0.93944,0.09525 -1.44004,0.09525 -0.63993,0 -1.31339,-0.05362 -2.02882,-0.168628 -0.28893,-0.04621 -1.04528,-0.07338 -2.0514,-0.07338 -1.85667,0 -4.5646,0.09208 -6.75711,0.324203"
       style="fill:#4580ca;fill-opacity:1;fill-rule:nonzero;stroke:none;stroke-width:0.0352778"
       id="path5623" /><path
       d="m 354.97173,44.095098 c -0.35772,0 -0.68933,-0.319969 -1.01106,-1.109839 -0.20144,-0.494594 -0.33796,-1.400527 -0.60608,-2.401005 0.26035,-0.23742 0.43604,-0.462845 0.51294,-0.673453 0.24342,-0.666045 0.33091,-1.256947 0.28328,-1.779764 2.165,-2.245784 3.88444,-4.664075 4.60799,-6.255103 0.0293,-0.06456 0.0582,-0.130528 0.0864,-0.197556 0.33267,0.06526 0.65793,0.13582 0.97543,0.211314 1.71132,0.407106 3.64455,1.35502 3.84739,3.101975 0.0625,0.539045 -0.0568,1.06292 -0.26105,1.567745 -1.11654,0.879475 -2.26801,1.7145 -3.45123,2.502253 -2.34033,1.558925 -3.80435,5.033433 -4.98404,5.033433"
       style="fill:#3ea5e2;fill-opacity:1;fill-rule:nonzero;stroke:none;stroke-width:0.0352778"
       id="path5625" /><path
       d="m 346.62924,49.134529 c -0.76659,-0.170039 -1.45415,-0.523522 -1.94487,-1.146528 -0.33408,-0.424039 -0.55174,-0.947208 -0.78916,-1.444625 2.19251,-0.232128 4.90044,-0.324203 6.75711,-0.324203 1.00612,0 1.76247,0.02716 2.0514,0.07338 0.71543,0.115006 1.38889,0.168628 2.02882,0.168628 0.5006,0 0.98037,-0.03281 1.44004,-0.09525 -0.76976,0.626886 -1.59914,1.175103 -2.50049,1.616075 -0.50165,0.245533 -1.04069,0.458964 -1.60866,0.64382 -0.25647,-0.09737 -0.52846,-0.163337 -0.79622,-0.206375 -0.21237,-0.03422 -0.46884,-0.05151 -0.75671,-0.05151 -1.08656,0 -2.61655,0.247297 -3.88126,0.766586"
       style="fill:#3ea5e2;fill-opacity:1;fill-rule:nonzero;stroke:none;stroke-width:0.0352778"
       id="path5627" /><path
       d="m 343.10358,45.350282 c -0.0995,-0.09066 -0.2092,-0.172156 -0.33056,-0.242006 -0.41275,-0.238125 -0.84067,-0.345017 -1.27493,-0.345017 -0.61278,0 -1.2379,0.213784 -1.84785,0.574676 0.0815,-0.125237 0.16756,-0.241653 0.26211,-0.346428 0.75847,-0.839964 1.7025,-1.118306 2.62502,-1.506714 0.58773,0.238125 1.20579,0.347133 1.84609,0.347133 3.17817,0 6.87211,-2.696633 9.76735,-5.700889 0.0476,0.522817 -0.0399,1.113719 -0.28328,1.779764 -0.0769,0.210608 -0.25259,0.436033 -0.51294,0.673453 -1.49824,1.365603 -5.7986,3.127728 -10.25101,4.766028"
       style="fill:#3ea5e2;fill-opacity:1;fill-rule:nonzero;stroke:none;stroke-width:0.0352778"
       id="path5629" /><path
       d="m 344.38346,43.831926 c -0.6403,0 -1.25836,-0.109008 -1.84609,-0.347133 0.42933,-0.180622 0.85372,-0.384881 1.25307,-0.680509 0.72248,-0.534458 1.11654,-1.391003 1.64747,-2.115961 l 8.98737,-4.915253 c 1.74448,-0.835731 3.51507,-2.386189 3.4163,-4.271434 0.34043,0.05362 0.67556,0.112537 1.00365,0.176742 -0.0282,0.06703 -0.0572,0.132997 -0.0864,0.197556 -0.72355,1.591028 -2.44299,4.009319 -4.60799,6.255103 -2.89524,3.004256 -6.58918,5.700889 -9.76735,5.700889"
       style="fill:#1ab5ed;fill-opacity:1;fill-rule:nonzero;stroke:none;stroke-width:0.0352778"
       id="path5631" /><path
       d="m 347.89536,49.263293 c -0.43251,0 -0.86043,-0.0388 -1.26612,-0.128764 1.26471,-0.519289 2.7947,-0.766586 3.88126,-0.766586 0.28787,0 0.54434,0.01729 0.75671,0.05151 0.26776,0.04304 0.53975,0.109008 0.79622,0.206375 -0.31292,0.101952 -0.635,0.195791 -0.96414,0.281164 -0.0642,-0.0049 -0.12912,-0.0074 -0.19403,-0.0074 -0.40781,0 -0.82797,0.09349 -1.23155,0.174625 -0.57079,0.114653 -1.17898,0.189089 -1.77835,0.189089"
       style="fill:#1ab5ed;fill-opacity:1;fill-rule:nonzero;stroke:none;stroke-width:0.0352778"
       id="path5633" /><path
       d="m 335.45183,48.425446 c -0.0797,-0.08925 -0.15276,-0.182386 -0.21908,-0.278695 0.33055,-0.117475 0.67416,-0.238477 1.02764,-0.363008 0.19297,0.08819 0.41875,0.142522 0.68016,0.155575 -0.0557,0.07514 -0.11077,0.150636 -0.1651,0.226483 -0.0402,-0.0014 -0.0804,-0.0021 -0.12065,-0.0021 -0.42475,0 -0.8315,0.07973 -1.20297,0.261761"
       style="fill:#4580ca;fill-opacity:1;fill-rule:nonzero;stroke:none;stroke-width:0.0352778"
       id="path5635" /><path
       d="m 335.23275,48.146751 c -0.10689,-0.155222 -0.19614,-0.318911 -0.26952,-0.491772 0.22401,-0.147461 0.43356,-0.312561 0.63041,-0.492125 0.15311,0.271286 0.37148,0.486128 0.66675,0.620889 -0.35348,0.124531 -0.69709,0.245533 -1.02764,0.363008"
       style="fill:#3ea5e2;fill-opacity:1;fill-rule:nonzero;stroke:none;stroke-width:0.0352778"
       id="path5637" /><path
       d="m 336.20113,49.032224 c -0.29704,-0.175684 -0.5454,-0.378884 -0.7493,-0.606778 0.37147,-0.182034 0.77822,-0.261761 1.20297,-0.261761 0.0402,0 0.0804,7.05e-4 0.12065,0.0021 -0.2032,0.284692 -0.39511,0.575028 -0.57432,0.866423"
       style="fill:#1ab5ed;fill-opacity:1;fill-rule:nonzero;stroke:none;stroke-width:0.0352778"
       id="path5639" /><path
       d="m 334.96323,47.654979 c -0.79587,-1.873603 0.31644,-4.72052 2.08633,-7.433381 -0.14746,0.662517 -0.36901,1.337381 -0.57186,2.00907 -0.92921,1.31445 -1.57903,3.701697 -0.88406,4.932186 -0.19685,0.179564 -0.4064,0.344664 -0.63041,0.492125"
       style="fill:#1ab5ed;fill-opacity:1;fill-rule:nonzero;stroke:none;stroke-width:0.0352778"
       id="path5641" /><path
       d="m 346.5929,49.626301 c -0.0423,-0.0067 -0.085,-0.01023 -0.12806,-0.01023 -0.008,0 -0.0162,3.53e-4 -0.0243,3.53e-4 -0.0832,0.0028 -0.16474,0.0039 -0.24483,0.0039 -2.00166,0 -3.05082,-0.807155 -3.80858,-1.614664 -0.75777,-0.807508 -1.2245,-1.615017 -2.0627,-1.615017 -0.43709,0 -0.97472,0.219428 -1.70744,0.773289 0.40922,-0.542572 0.66992,-1.267177 1.03329,-1.825977 0.60995,-0.360892 1.23507,-0.574676 1.84785,-0.574676 0.43426,0 0.86218,0.106892 1.27493,0.345017 0.12136,0.06985 0.23107,0.151342 0.33056,0.242006 0.34713,0.315736 0.57749,0.744008 0.79163,1.193094 0.23742,0.497417 0.45508,1.020586 0.78916,1.444625 0.49072,0.623006 1.17828,0.976489 1.94487,1.146528 0.40569,0.08996 0.83361,0.128764 1.26612,0.128764 0.59937,0 1.20756,-0.07444 1.77835,-0.189089 0.40358,-0.08114 0.82374,-0.174625 1.23155,-0.174625 0.0649,0 0.12982,0.0025 0.19403,0.0074 -1.40794,0.366183 -2.94887,0.588433 -4.50639,0.719313 m -9.9755,-0.381 c -0.14816,-0.06562 -0.2868,-0.136877 -0.41627,-0.213077 0.17921,-0.291395 0.37112,-0.581731 0.57432,-0.866423 0.0543,-0.07585 0.10936,-0.151341 0.1651,-0.226483 0.0416,0.0021 0.0843,0.0032 0.1277,0.0032 0.0843,0 0.17251,-0.0042 0.26388,-0.01235 0.19262,-0.01729 0.36407,-0.06209 0.51859,-0.128764 -0.10055,0.09031 -0.20426,0.185914 -0.31115,0.286455 -0.39265,0.369712 -0.69639,0.75812 -0.92217,1.157464"
       style="fill:#1ab196;fill-opacity:1;fill-rule:nonzero;stroke:none;stroke-width:0.0352778"
       id="path5643" /><path
       d="m 337.06825,47.942493 c -0.0434,0 -0.0861,-0.0011 -0.1277,-0.0032 -0.26141,-0.01305 -0.48719,-0.06738 -0.68016,-0.155575 -0.29527,-0.134761 -0.51364,-0.349603 -0.66675,-0.620889 -0.69497,-1.230489 -0.0451,-3.617736 0.88406,-4.932186 -0.4318,1.432278 -0.77893,2.851855 -0.14569,4.120797 1.58961,-1.140178 3.17923,-2.280708 4.76885,-3.421239 0.25682,-0.184503 0.52634,-0.384528 0.64523,-0.677686 0.17321,-0.427214 -0.0233,-0.902759 -0.10619,-1.356078 -0.25153,-1.374422 1.77589,-1.428045 2.91077,-2.243667 1.13454,-0.815269 3.4283,-1.508125 4.75157,-1.956505 2.75837,-0.934509 5.24827,-3.267428 7.62423,-5.32377 0.30903,0.03845 0.61383,0.08149 0.91511,0.129116 0.0988,1.885245 -1.67182,3.435703 -3.4163,4.271434 l -8.98737,4.915253 c -0.53093,0.724958 -0.92499,1.581503 -1.64747,2.115961 -0.39935,0.295628 -0.82374,0.499887 -1.25307,0.680509 -0.92252,0.388408 -1.86655,0.66675 -2.62502,1.506714 -0.0946,0.104775 -0.18062,0.221191 -0.26211,0.346428 -0.36337,0.5588 -0.62407,1.283405 -1.03329,1.825977 -0.23425,0.177095 -0.4886,0.388409 -0.76623,0.63747 -0.15452,0.06668 -0.32597,0.111478 -0.51859,0.128764 -0.0914,0.0081 -0.17956,0.01235 -0.26388,0.01235"
       style="fill:#1ab196;fill-opacity:1;fill-rule:nonzero;stroke:none;stroke-width:0.0352778"
       id="path5645" /><path
       d="m 336.33201,46.351465 c -0.63324,-1.268942 -0.28611,-2.688519 0.14569,-4.120797 0.20285,-0.671689 0.4244,-1.346553 0.57186,-2.00907 2.14983,-3.295297 5.26909,-6.392686 7.11447,-7.306381 2.52342,-1.249892 5.79084,-1.775178 9.01629,-1.775178 1.27106,0 2.53577,0.08149 3.74615,0.232481 -2.37596,2.056342 -4.86586,4.389261 -7.62423,5.32377 -1.32327,0.44838 -3.61703,1.141236 -4.75157,1.956505 -1.13488,0.815622 -3.1623,0.869245 -2.91077,2.243667 0.0829,0.453319 0.2794,0.928864 0.10619,1.356078 -0.11889,0.293158 -0.38841,0.493183 -0.64523,0.677686 -1.58962,1.140531 -3.17924,2.281061 -4.76885,3.421239"
       style="fill:#16af86;fill-opacity:1;fill-rule:nonzero;stroke:none;stroke-width:0.0352778"
       id="path5647" /><path
       d="m 341.83322,49.800221 c -0.80892,0 -1.58644,-0.01094 -2.31387,-0.02364 -1.22166,-0.02152 -2.17628,-0.20955 -2.90195,-0.531284 0.22578,-0.399344 0.52952,-0.787752 0.92217,-1.157464 0.10689,-0.100541 0.2106,-0.196144 0.31115,-0.286455 0.27763,-0.249061 0.53198,-0.460375 0.76623,-0.63747 0.73272,-0.553861 1.27035,-0.773289 1.70744,-0.773289 0.8382,0 1.30493,0.807509 2.0627,1.615017 0.75776,0.807509 1.80692,1.614664 3.80858,1.614664 0.0801,0 0.16158,-0.0011 0.24483,-0.0039 0.008,0 0.0162,-3.53e-4 0.0243,-3.53e-4 0.043,0 0.0857,0.0035 0.12806,0.01023 -1.61113,0.135467 -3.24026,0.17392 -4.75968,0.17392"
       style="fill:#16af86;fill-opacity:1;fill-rule:nonzero;stroke:none;stroke-width:0.0352778"
       id="path5649" /></g></svg>
