<?xml version="1.0" encoding="UTF-8" standalone="no"?>
<!-- Created with Inkscape (http://www.inkscape.org/) -->

<svg
   width="38.780159mm"
   height="38.779808mm"
   viewBox="0 0 38.780159 38.779808"
   version="1.1"
   id="svg5"
   xml:space="preserve"
   xmlns:inkscape="http://www.inkscape.org/namespaces/inkscape"
   xmlns:sodipodi="http://sodipodi.sourceforge.net/DTD/sodipodi-0.dtd"
   xmlns="http://www.w3.org/2000/svg"
   xmlns:svg="http://www.w3.org/2000/svg"><sodipodi:namedview
     id="namedview7"
     pagecolor="#ffffff"
     bordercolor="#666666"
     borderopacity="1.0"
     inkscape:showpageshadow="2"
     inkscape:pageopacity="0.0"
     inkscape:pagecheckerboard="0"
     inkscape:deskcolor="#d1d1d1"
     inkscape:document-units="mm"
     showgrid="false" /><defs
     id="defs2"><clipPath
       clipPathUnits="userSpaceOnUse"
       id="clipPath5657"><path
         d="m 5710.58,3601.7 c 0,-303.56 -246.08,-549.64 -549.64,-549.64 -303.55,0 -549.64,246.08 -549.64,549.64 0,303.55 246.09,549.63 549.64,549.63 303.56,0 549.64,-246.08 549.64,-549.63"
         id="path5655" /></clipPath></defs><g
     id="g7381"
     transform="translate(-382.67643,-29.939183)"><g
       id="g5651"
       transform="matrix(0.03527778,0,0,-0.03527778,220,176.38889)"><g
         id="g5653"
         clip-path="url(#clipPath5657)"><path
           d="m 5710.58,3601.7 c 0,-303.56 -246.08,-549.64 -549.64,-549.64 -303.55,0 -549.64,246.08 -549.64,549.64 0,303.55 246.09,549.63 549.64,549.63 303.56,0 549.64,-246.08 549.64,-549.63"
           style="fill:#9e3a2c;fill-opacity:1;fill-rule:nonzero;stroke:none"
           id="path5659" /><path
           d="m 4576.37,3197.6 c -50.27,54.68 -35.46,142.5 -3.69,209.65 40.1,84.75 114.2,165.03 207.93,167.47 58.22,1.51 113.58,-27.42 171.8,-29.04 97.07,-2.71 178.65,68.76 247.08,137.66 23.5,23.68 47.22,47.93 76.36,64.17 36.71,20.45 79.39,26.76 120.99,32.73 26.91,3.86 57.22,6.87 78.58,-9.95 19.28,-15.19 24.94,-43 19.77,-67.01 -5.17,-24 -19.27,-45.01 -33.84,-64.77 -41.9,-56.89 -93.22,-111.19 -160.3,-133.38 -47.94,-15.86 -99.83,-13.93 -149.33,-23.94 -49.49,-10.01 -101.29,-37.56 -115.48,-86.01 -10.77,-36.74 2.49,-77.9 -11.13,-113.68 -5.42,-14.24 -14.78,-26.63 -24.88,-38.03 -60.54,-68.33 -153.14,-106.95 -244.29,-101.86 -91.14,5.09 -178.87,53.78 -231.42,128.42 l 51.85,-72.43"
           style="fill:#b95146;fill-opacity:1;fill-rule:nonzero;stroke:none"
           id="path5661" /><path
           d="m 4994.81,4096.9 c -54.86,-14.7 -109.73,-29.39 -164.59,-44.09 -55.06,-14.75 -111.45,-30.11 -157.86,-63.22 -46.41,-33.11 -81.47,-88.25 -74.48,-144.83 3.12,-25.33 15.24,-50.27 36.05,-65.03 26.94,-19.11 63.06,-18.41 95.64,-12.92 147.8,24.96 285.62,131.85 432.54,102.19 107.03,-21.6 201.79,-114.47 308.9,-93.33 39.75,7.84 75.98,32.14 98.3,65.95 7.83,11.84 14.11,25.28 14.42,39.48 0.35,16.45 -7.3,31.91 -15.14,46.38 -38.56,71.11 -86.68,137.02 -142.67,195.41 -41.36,43.13 -88.22,82.9 -144.06,104.2 -47.92,18.28 -122.24,31.14 -152.92,-16.8 -15.56,-24.34 -13.33,-49.53 -37.53,-71.45 -26.18,-23.72 -63.42,-33.05 -96.6,-41.94"
           style="fill:#b95146;fill-opacity:1;fill-rule:nonzero;stroke:none"
           id="path5663" /><path
           d="m 4777.16,3387.49 c 56.33,-6.74 95.81,-56.23 136.91,-95.36 50.32,-47.92 113.08,-85.09 181.88,-94.89 68.81,-9.81 143.67,10.72 190.5,62.07 46.84,51.35 59.07,134.56 20.59,192.43 -9,13.51 -20.41,25.54 -27.25,40.25 -12.49,26.9 -6.82,61.19 13.65,82.63 20.49,21.45 54.48,28.68 81.92,17.43 20.65,-8.46 36.25,-25.56 53.49,-39.74 31.93,-26.24 73.39,-43.54 114.35,-38 40.95,5.56 79.29,38.18 82.99,79.34 4.44,49.39 -37.03,89.12 -60.61,132.74 -27.5,50.88 -30.84,114.18 -8.84,167.67 4.26,10.36 9.57,20.56 17.69,28.27 10.98,10.39 26.16,15.29 41.18,17.01 48.76,5.58 97.08,-19.98 130.1,-56.29 33.02,-36.31 53.12,-82.31 70.83,-128.07 50.67,-131.02 86.3,-267.85 105.96,-406.94 7.41,-52.45 12.52,-106.2 1.8,-158.07 -14.93,-72.26 -60.06,-135.8 -116.33,-183.52 -56.28,-47.71 -123.33,-80.97 -191.59,-109 -179.89,-73.88 -378.33,-114.63 -569.94,-81.36 -171.71,29.81 -306.81,121.42 -420.83,249.64 -48.01,53.98 -64.95,99.16 -36.64,169.05 29.15,71.97 100.51,163.21 188.19,152.71"
           style="fill:#e96f61;fill-opacity:1;fill-rule:nonzero;stroke:none"
           id="path5665" /><path
           d="m 4471.14,3588.6 c -41.25,163.62 186.83,134 264.35,96.68 82.66,-39.77 234.26,-252.56 345.23,-143.03 124.11,122.51 -292.43,490.04 85.64,348.16 304.85,-114.4 233.72,324.21 36.4,394.95 -92.65,33.21 -244.98,-11.52 -303.31,-96.58 -111.79,-163.02 26.32,-154.35 -7.31,-248.67 -27.17,-76.25 -106.15,-67.56 -172.86,-58.87 -28.24,3.68 -54.27,7.36 -73.26,4.6 -87.31,-12.68 -216.42,-132.93 -93.91,-211.9 l -80.97,-85.34"
           style="fill:#e96f61;fill-opacity:1;fill-rule:nonzero;stroke:none"
           id="path5667" /><path
           d="m 5233.09,3824.34 c 9.78,-25.52 0.4,-58.67 -24.15,-70.68 -23.09,-11.29 -51.08,-1.95 -72.7,11.94 -34.02,21.86 -98.76,84.53 -38.88,111.16 43.25,19.24 118.95,-8.61 135.73,-52.42"
           style="fill:#e96f61;fill-opacity:1;fill-rule:nonzero;stroke:none"
           id="path5669" /><path
           d="m 5173.86,3287.55 c 0.65,34.5 13.65,74.9 46.85,84.28 31.98,9.05 63.81,-16.61 80.88,-45.13 23.45,-39.15 30.93,-90.7 8.26,-130.31 -17.5,-30.58 -66.57,-58.65 -99.9,-36.54 -32.8,21.75 -36.7,94.35 -36.09,127.7"
           style="fill:#e96f61;fill-opacity:1;fill-rule:nonzero;stroke:none"
           id="path5671" /><path
           d="m 4643.51,3534.23 c 19.86,27.83 49.84,53.67 83.86,50.34 36.94,-3.61 63.01,-42.83 61.96,-79.92 -1.04,-37.1 -23.08,-70.66 -49.73,-96.48 -27.94,-27.07 -97.3,-58.1 -131.54,-21.63 -34.29,36.54 12.53,115.59 35.45,147.69"
           style="fill:#e96f61;fill-opacity:1;fill-rule:nonzero;stroke:none"
           id="path5673" /><path
           d="m 5345.56,3683.47 c 9.17,17.13 20.15,33.28 32.71,48.11 16.71,19.75 41.29,38.5 66.21,31.52 7.21,-2.01 13.74,-6.12 19.18,-11.27 19.85,-18.78 23.64,-51.17 11.58,-75.7 -12.05,-24.52 -37.78,-40.83 -64.8,-44.91 -17.7,-2.67 -37.04,-0.15 -50.97,11.09 -13.93,11.24 -20.37,32.53 -11.29,47.95"
           style="fill:#e96f61;fill-opacity:1;fill-rule:nonzero;stroke:none"
           id="path5675" /><path
           d="m 5485.13,4030.64 c 18.14,13.28 39.08,24.49 61.55,24.74 4.38,0.04 8.97,-0.4 12.68,-2.74 4.27,-2.7 6.73,-7.52 8.27,-12.34 4.91,-15.33 2.41,-32.09 -2.3,-47.49 -17.47,-57.14 -66.65,-103.45 -124.75,-117.47 -110.58,-26.66 15.24,133.85 44.55,155.3"
           style="fill:#e96f61;fill-opacity:1;fill-rule:nonzero;stroke:none"
           id="path5677" /><path
           d="m 5334.54,3368.24 c 8.59,6.29 18.5,11.6 29.15,11.71 2.08,0.02 4.25,-0.18 6,-1.29 2.03,-1.28 3.19,-3.57 3.92,-5.85 2.32,-7.26 1.14,-15.2 -1.08,-22.49 -8.29,-27.06 -31.58,-48.99 -59.1,-55.63 -52.37,-12.63 7.22,63.39 21.11,73.55"
           style="fill:#b95146;fill-opacity:1;fill-rule:nonzero;stroke:none"
           id="path5679" /><path
           d="m 4898.99,3456.45 c 20.97,-0.87 42.78,-9.85 53.68,-27.79 3.51,-5.76 5.81,-12.57 4.8,-19.24 -1.82,-11.97 -13.63,-20.02 -25.33,-23.09 -17.04,-4.47 -35.34,-1.5 -51.69,5.01 -14.89,5.93 -50,27.25 -42.16,48.37 6.13,16.53 46.89,17.32 60.7,16.74"
           style="fill:#e96f61;fill-opacity:1;fill-rule:nonzero;stroke:none"
           id="path5681" /><path
           d="m 5581.84,3695.55 c 23.68,17.73 54.52,27.2 83.47,21.08 28.94,-6.12 54.67,-29.57 59.2,-58.81 5.03,-32.47 -16.22,-64.56 -44.13,-81.91 -27.37,-16.99 -61.51,-22.71 -92.91,-15.55 -22.55,5.14 -44.67,17.86 -54.89,38.61 -18.31,37.18 21.88,76.08 49.26,96.58"
           style="fill:#b95146;fill-opacity:1;fill-rule:nonzero;stroke:none"
           id="path5683" /><path
           d="m 5508.9,3463.26 c 16.38,6.52 35.83,9.5 51.05,0.58 14.75,-8.65 21.87,-26.83 21.59,-43.93 -0.28,-17.11 -6.78,-33.45 -13.81,-49.05 -11.27,-24.96 -24.57,-49.71 -44.77,-68.19 -20.21,-18.49 -48.52,-29.95 -75.29,-24.17 -26.77,5.78 -53.89,33.15 -45.46,59.21 12.7,39.18 55.1,105.03 106.69,125.55"
           style="fill:#b95146;fill-opacity:1;fill-rule:nonzero;stroke:none"
           id="path5685" /><path
           d="m 5066.36,3259.04 c 10.12,-0.7 19.77,-4.34 29.12,-8.23 13.18,-5.48 27.79,-13.65 30.01,-27.75 2.02,-12.77 -7.29,-24.46 -17.05,-32.94 -26.03,-22.63 -124.27,-67.72 -144.71,-16.97 -19.45,48.23 68.55,88.22 102.63,85.89"
           style="fill:#b95146;fill-opacity:1;fill-rule:nonzero;stroke:none"
           id="path5687" /><path
           d="m 4825.37,3292.49 c 6.4,-3.05 12.52,-7.02 16.98,-12.53 11.89,-14.66 8.79,-37.98 -4.18,-51.69 -12.97,-13.72 -33.4,-18.56 -52.11,-16.1 -30.06,3.94 -83.32,26.59 -57.22,61.91 20.28,27.44 67.82,32.09 96.53,18.41"
           style="fill:#b95146;fill-opacity:1;fill-rule:nonzero;stroke:none"
           id="path5689" /><path
           d="m 5083.98,3702.98 c 9.39,2.2 19.21,3.67 28.66,1.71 9.45,-1.94 18.54,-7.88 22.06,-16.86 4.42,-11.22 -0.73,-24.09 -8.31,-33.48 -26.01,-32.21 -77.72,-34.35 -113,-12.59 -37.63,23.25 52.13,56.9 70.59,61.22"
           style="fill:#b95146;fill-opacity:1;fill-rule:nonzero;stroke:none"
           id="path5691" /><path
           d="m 4777.5,3688.52 c 23.81,9.45 50.18,14.76 75.15,9.03 10.21,-2.35 20.92,-7.42 24.86,-17.12 3.68,-9.1 0.07,-19.89 -6.51,-27.18 -6.58,-7.3 -15.64,-11.78 -24.6,-15.83 -18.25,-8.24 -37.34,-15.44 -57.3,-17 -67.85,-5.28 -69.02,45.32 -11.6,68.1"
           style="fill:#b95146;fill-opacity:1;fill-rule:nonzero;stroke:none"
           id="path5693" /><path
           d="m 5323.97,4045.3 c 3.53,-0.25 7.28,-0.73 9.98,-3.01 4.05,-3.41 4.32,-9.49 3.8,-14.75 -2.02,-20.56 -11.14,-39.99 -23.69,-56.39 -11.65,-15.22 -26.61,-28.29 -44.42,-35.39 -17.79,-7.11 -38.58,-7.76 -55.85,0.54 -10.86,5.22 -20.4,14.47 -23.07,26.21 -11.26,49.56 98.25,85.25 133.25,82.79"
           style="fill:#b95146;fill-opacity:1;fill-rule:nonzero;stroke:none"
           id="path5695" /><path
           d="m 5199.66,4103.45 c 9.7,1.19 20.3,0.76 28.18,-5.02 10.9,-7.98 13.05,-24.14 8.34,-36.8 -4.7,-12.67 -14.74,-22.52 -24.88,-31.44 -9.56,-8.4 -19.9,-16.58 -32.21,-19.81 -32.35,-8.51 -72.22,11.36 -55.75,43.26 14.04,27.2 46.69,46.19 76.32,49.81"
           style="fill:#b95146;fill-opacity:1;fill-rule:nonzero;stroke:none"
           id="path5697" /><path
           d="m 4924.77,3806.34 c 15.57,14.33 36.09,29.74 55.81,22.1 17.31,-6.7 23.89,-29.32 18.56,-47.09 -4.89,-16.29 -18.39,-30.15 -35,-33.77 -16.62,-3.64 -35.54,4.12 -43.44,19.17 -7.91,15.06 -2.68,36.15 12.14,44.5 l -8.07,-4.91"
           style="fill:#b95146;fill-opacity:1;fill-rule:nonzero;stroke:none"
           id="path5699" /><path
           d="m 5108.07,3940.83 c 3.05,-7.17 9.26,-13.39 16.95,-14.64 5.03,-0.82 10.17,0.52 15.01,2.15 12.28,4.12 24.83,11.15 29.64,23.17 6.34,15.84 -7.56,30.16 -22.02,39.22 -28.15,17.67 -42.62,-42.73 -39.58,-49.9"
           style="fill:#b95146;fill-opacity:1;fill-rule:nonzero;stroke:none"
           id="path5701" /></g></g><path
       d="m 390.9847,49.800221 c -0.80892,0 -1.5868,-0.01094 -2.31387,-0.02364 -3.93912,-0.0695 -5.10293,-1.871839 -4.76144,-4.283781 1.24565,0.184856 2.39712,0.525992 3.14818,0.887589 0.19897,0.0956 0.40887,0.219428 0.62901,0.366536 -1.02588,0.821267 -0.76271,1.934986 0.9271,1.934986 0.10583,0 0.21766,-0.0042 0.33514,-0.0134 0.30974,-0.02434 0.61348,-0.08678 0.91122,-0.174273 0.48895,0.424392 1.00013,0.870656 1.52471,1.304926 -0.13406,7.05e-4 -0.26741,0.0011 -0.40005,0.0011 m 9.09179,-0.848783 c -0.0134,-0.261762 -0.0473,-0.531284 -0.0984,-0.806803 0.33338,-0.155575 0.63218,-0.378884 0.8696,-0.6731 0.2674,-0.331259 0.44908,-0.785284 0.29316,-1.1811 -0.12418,-0.316795 -0.44486,-0.526345 -0.77823,-0.594784 -0.10901,-0.02258 -0.21978,-0.03245 -0.33055,-0.03245 -0.2279,0 -0.45756,0.04057 -0.68051,0.09278 -0.0303,0.0071 -0.0663,0.01658 -0.10725,0.02787 -0.81421,-2.007659 -1.99672,-4.054123 -2.49237,-5.542845 0.94544,-0.259292 1.89371,-0.443795 2.84974,-0.503414 -1.71874,0.993069 0.43885,3.067403 1.59349,3.809295 0.52494,0.337255 1.15676,0.598664 1.7653,0.598664 0.27517,0 0.54575,-0.05362 0.7994,-0.177448 0.86607,-0.423686 1.19697,-1.593144 0.85196,-2.493433 -0.15734,-0.410986 -0.46179,-0.782109 -0.85231,-1.092906 1.71062,0.636059 3.35562,1.60902 5.02214,2.25425 -0.19579,0.264231 -0.39582,0.525286 -0.60007,0.782109 -0.71861,0.172155 -1.41605,0.407811 -2.06128,0.766939 -1.028,0.572911 -1.86479,1.428397 -2.69382,2.263775 -0.76341,0.76835 -1.57268,1.545872 -2.43134,2.246842 -0.29916,0.09243 -0.60572,0.177447 -0.91863,0.255764"
       style="fill:#c14535;fill-opacity:1;fill-rule:nonzero;stroke:none;stroke-width:0.0352778"
       id="path5703" /><path
       d="m 400.99512,48.695674 c 0.85866,-0.70097 1.66793,-1.478492 2.43134,-2.246842 0.82903,-0.835378 1.66582,-1.690864 2.69382,-2.263775 0.64523,-0.359128 1.34267,-0.594784 2.06128,-0.766939 -1.49014,1.871839 -3.22228,3.518958 -5.35799,4.563886 -0.56586,0.276931 -1.17969,0.512939 -1.82845,0.71367"
       style="fill:#d16555;fill-opacity:1;fill-rule:nonzero;stroke:none;stroke-width:0.0352778"
       id="path5705" /><path
       d="m 408.78163,42.636009 c -1.66652,-0.64523 -3.31152,-1.618191 -5.02214,-2.25425 -0.75495,-0.600428 -1.83233,-0.974725 -2.79541,-0.974725 -0.41275,0 -0.80434,0.06879 -1.14054,0.21837 -0.0801,0.03563 -0.15416,0.07302 -0.22189,0.112183 -0.95603,0.05962 -1.9043,0.244122 -2.84974,0.503414 -0.44662,-1.340556 -0.33585,-2.228497 1.10313,-2.228497 0.89394,0 2.29941,0.342194 4.40267,1.131358 1.22873,0.46108 2.286,0.667808 3.18135,0.667808 3.95746,0 4.78967,-4.0259 3.63255,-7.897636 1.64818,0.410633 3.4664,1.322564 3.73204,2.964392 -1.27423,1.416755 -3.30976,4.350808 -2.05599,4.834114 -0.61524,0.986719 -1.264,1.975908 -1.96603,2.923469 m -19.97886,-2.972505 c -0.69709,0 -1.41888,-0.08079 -2.10962,-0.169334 1.53917,-2.196394 3.44453,-4.236156 5.02603,-5.508625 0.57785,1.021292 1.44427,1.779411 0.86466,3.405011 -0.65193,1.829506 -2.14948,2.272948 -3.78107,2.272948"
       style="fill:#d16555;fill-opacity:1;fill-rule:nonzero;stroke:none;stroke-width:0.0352778"
       id="path5707" /><path
       d="m 391.38475,49.799163 c -0.52458,-0.43427 -1.03576,-0.880534 -1.52471,-1.304926 0.37959,-0.111125 0.74965,-0.262819 1.11019,-0.42545 0.31609,-0.142875 0.63571,-0.300919 0.86784,-0.558447 0.23212,-0.257175 0.35948,-0.637822 0.22965,-0.95885 -0.13899,-0.342194 -0.51681,-0.521053 -0.877,-0.603955 -0.25118,-0.0575 -0.50588,-0.08361 -0.762,-0.08361 -0.6417,0 -1.28835,0.163689 -1.88913,0.402167 -0.34466,0.136878 -0.62935,0.301625 -0.85301,0.480836 -0.22014,-0.147108 -0.43004,-0.270933 -0.62901,-0.366536 -0.75106,-0.361597 -1.90253,-0.702733 -3.14818,-0.887589 0.25682,-1.814336 1.36489,-3.973336 2.78376,-5.998634 0.69074,0.08855 1.41253,0.169334 2.10962,0.169334 1.63159,0 3.12914,-0.443442 3.78107,-2.272948 0.57961,-1.6256 -0.28681,-2.383719 -0.86466,-3.405011 0.58879,-0.473781 1.13242,-0.84067 1.59632,-1.070328 2.52342,-1.249892 5.79085,-1.775178 9.01594,-1.775178 2.33504,0 4.64714,0.275167 6.64069,0.749653 0.0332,0.0081 0.0663,0.01588 0.0995,0.02434 1.15712,3.871736 0.32491,7.897636 -3.63255,7.897636 -0.89535,0 -1.95262,-0.206728 -3.18135,-0.667808 -2.10326,-0.789164 -3.50873,-1.131358 -4.40267,-1.131358 -1.43898,0 -1.54975,0.887941 -1.10313,2.228497 0.49565,1.488722 1.67816,3.535186 2.49237,5.542845 -0.83008,0.234597 -3.64842,1.35008 -2.38301,2.131836 0.53693,0.331258 1.1811,0.505178 1.81398,0.505178 0.45509,0 0.90382,-0.08996 1.30281,-0.276225 0.0511,0.275519 0.085,0.545041 0.0984,0.806803 -2.69981,0.674511 -5.86317,0.834672 -8.69174,0.847725 m 2.58057,-7.829551 c -0.48084,0.313972 -0.64312,1.024114 -0.37395,1.5367 0.23284,0.443795 0.73731,0.707672 1.23896,0.707672 0.0984,0 0.1972,-0.01023 0.29351,-0.0314 0.58596,-0.127705 1.06221,-0.616655 1.23472,-1.19133 0.18803,-0.626887 -0.0441,-1.42487 -0.65475,-1.661231 -0.12736,-0.04939 -0.25612,-0.07126 -0.38418,-0.07126 -0.57115,0 -1.1363,0.43815 -1.58468,0.8509 l 0.23037,-0.140053 m 7.27851,-6.478764 c -0.75883,0 -1.1363,1.653469 -1.04246,1.874308 0.1076,0.252942 0.32667,0.47237 0.59796,0.516467 0.0367,0.006 0.0741,0.0088 0.11112,0.0088 0.14147,0 0.28328,-0.03916 0.4184,-0.08467 0.43321,-0.145345 0.87594,-0.393348 1.04563,-0.817386 0.22366,-0.5588 -0.2667,-1.063978 -0.77682,-1.383595 -0.12558,-0.07902 -0.24377,-0.113947 -0.35383,-0.113947 m 6.44525,-1.815395 c -1.35361,0 -4.95618,1.233311 -4.572,2.924881 0.0942,0.414161 0.43074,0.740481 0.81386,0.924631 0.30374,0.145697 0.63782,0.21343 0.97472,0.21343 0.33902,0 0.68086,-0.06844 0.99554,-0.19438 0.6283,-0.250473 1.15605,-0.711553 1.56704,-1.248481 0.44274,-0.578556 0.76447,-1.264003 0.83573,-1.989314 0.0183,-0.185561 0.009,-0.40005 -0.13406,-0.520347 -0.0953,-0.08043 -0.22754,-0.09737 -0.35207,-0.106186 -0.0402,-0.0028 -0.0832,-0.0042 -0.12876,-0.0042 m -3.96628,-2.065867 c -0.0974,0 -0.19509,0.0071 -0.29034,0.0187 -1.04528,0.127705 -2.1971,0.79763 -2.6924,1.757186 -0.48965,0.948619 0.43321,1.595967 1.41852,1.595967 0.18345,0 0.36901,-0.02258 0.54822,-0.06985 0.43427,-0.113948 0.79904,-0.40252 1.13629,-0.698853 0.35772,-0.314678 0.71191,-0.662164 0.87772,-1.109134 0.16615,-0.446616 0.0903,-1.016705 -0.29422,-1.298222 -0.20073,-0.147108 -0.4512,-0.195792 -0.70379,-0.195792"
       style="fill:#f0957b;fill-opacity:1;fill-rule:nonzero;stroke:none;stroke-width:0.0352778"
       id="path5709" /><path
       d="m 402.96044,44.145546 c -0.60854,0 -1.24036,-0.261409 -1.7653,-0.598664 -1.15464,-0.741892 -3.31223,-2.816226 -1.59349,-3.809295 0.0677,-0.03916 0.14181,-0.07655 0.22189,-0.112183 0.3362,-0.149578 0.72779,-0.21837 1.14054,-0.21837 0.96308,0 2.04046,0.374297 2.79541,0.974725 0.39052,0.310797 0.69497,0.68192 0.85231,1.092906 0.34501,0.900289 0.0141,2.069747 -0.85196,2.493433 -0.25365,0.123825 -0.52423,0.177448 -0.7994,0.177448"
       style="fill:#f0957b;fill-opacity:1;fill-rule:nonzero;stroke:none;stroke-width:0.0352778"
       id="path5711" /><path
       d="m 410.74766,39.71254 c -1.25377,-0.483306 0.78176,-3.417359 2.05599,-4.834114 0.006,0.03739 0.0113,0.07514 0.0159,0.113241 0.12135,1.047045 -0.44274,2.037998 -0.98637,2.941109 -0.35243,0.585611 -0.71261,1.181805 -1.0855,1.779764"
       style="fill:#f0957b;fill-opacity:1;fill-rule:nonzero;stroke:none;stroke-width:0.0352778"
       id="path5713" /><path
       d="m 398.67525,48.42086 c -0.63288,0 -1.27705,-0.17392 -1.81398,-0.505178 -1.26541,-0.781756 1.55293,-1.897239 2.38301,-2.131836 0.0409,-0.01129 0.0769,-0.02081 0.10725,-0.02787 0.22295,-0.05221 0.45261,-0.09278 0.68051,-0.09278 0.11077,0 0.22154,0.0099 0.33055,0.03245 0.33337,0.06844 0.65405,0.277989 0.77823,0.594784 0.15592,0.395816 -0.0258,0.849841 -0.29316,1.1811 -0.23742,0.294216 -0.53622,0.517525 -0.8696,0.6731 -0.39899,0.186266 -0.84772,0.276225 -1.30281,0.276225"
       style="fill:#d16555;fill-opacity:1;fill-rule:nonzero;stroke:none;stroke-width:0.0352778"
       id="path5715" /><path
       d="m 388.61368,48.681915 c -1.68981,0 -1.95298,-1.113719 -0.9271,-1.934986 0.22366,-0.179211 0.50835,-0.343958 0.85301,-0.480836 0.60078,-0.238478 1.24743,-0.402167 1.88913,-0.402167 0.25612,0 0.51082,0.02611 0.762,0.08361 0.36019,0.0829 0.73801,0.261761 0.877,0.603955 0.12983,0.321028 0.002,0.701675 -0.22965,0.95885 -0.23213,0.257528 -0.55175,0.415572 -0.86784,0.558447 -0.36054,0.162631 -0.7306,0.314325 -1.11019,0.42545 -0.29774,0.08749 -0.60148,0.149931 -0.91122,0.174273 -0.11748,0.0092 -0.22931,0.0134 -0.33514,0.0134"
       style="fill:#d16555;fill-opacity:1;fill-rule:nonzero;stroke:none;stroke-width:0.0352778"
       id="path5717" /><path
       d="m 404.90566,37.738395 c -0.3369,0 -0.67098,-0.06773 -0.97472,-0.21343 -0.38312,-0.18415 -0.71967,-0.51047 -0.81386,-0.924631 -0.38418,-1.69157 3.21839,-2.924881 4.572,-2.924881 0.0455,0 0.0885,0.0014 0.12876,0.0042 0.12453,0.0088 0.25682,0.02575 0.35207,0.106186 0.14288,0.120297 0.1524,0.334786 0.13406,0.520347 -0.0713,0.725311 -0.39299,1.410758 -0.83573,1.989314 -0.41099,0.536928 -0.93874,0.998008 -1.56704,1.248481 -0.31468,0.125941 -0.65652,0.19438 -0.99554,0.19438"
       style="fill:#d16555;fill-opacity:1;fill-rule:nonzero;stroke:none;stroke-width:0.0352778"
       id="path5719" /><path
       d="m 402.15858,34.981437 c -0.98531,0 -1.90817,-0.647348 -1.41852,-1.595967 0.4953,-0.959556 1.64712,-1.629481 2.6924,-1.757186 0.0953,-0.01164 0.19297,-0.0187 0.29034,-0.0187 0.25259,0 0.50306,0.04868 0.70379,0.195792 0.38453,0.281517 0.46037,0.851606 0.29422,1.298222 -0.16581,0.44697 -0.52,0.794456 -0.87772,1.109134 -0.33725,0.296333 -0.70202,0.584905 -1.13629,0.698853 -0.17921,0.04727 -0.36477,0.06985 -0.54822,0.06985"
       style="fill:#d16555;fill-opacity:1;fill-rule:nonzero;stroke:none;stroke-width:0.0352778"
       id="path5721" /><path
       d="m 394.83033,44.213984 c -0.50165,0 -1.00612,-0.263877 -1.23896,-0.707672 -0.26917,-0.512586 -0.10689,-1.222728 0.37395,-1.5367 l -0.23037,0.140053 c 0.44838,-0.41275 1.01353,-0.8509 1.58468,-0.8509 0.12806,0 0.25682,0.02187 0.38418,0.07126 0.61065,0.236361 0.84278,1.034344 0.65475,1.661231 -0.17251,0.574675 -0.64876,1.063625 -1.23472,1.19133 -0.0963,0.02117 -0.19509,0.0314 -0.29351,0.0314"
       style="fill:#d16555;fill-opacity:1;fill-rule:nonzero;stroke:none;stroke-width:0.0352778"
       id="path5723" /><path
       d="m 400.91045,37.890442 c -0.037,0 -0.0744,-0.0028 -0.11112,-0.0088 -0.27129,-0.0441 -0.49036,-0.263525 -0.59796,-0.516467 -0.0938,-0.220839 0.28363,-1.874308 1.04246,-1.874308 0.11006,0 0.22825,0.03493 0.35383,0.113947 0.51012,0.319617 1.00048,0.824795 0.77682,1.383595 -0.16969,0.424038 -0.61242,0.672041 -1.04563,0.817386 -0.13512,0.04551 -0.27693,0.08467 -0.4184,0.08467"
       style="fill:#d16555;fill-opacity:1;fill-rule:nonzero;stroke:none;stroke-width:0.0352778"
       id="path5725" /></g></svg>
