<?xml version="1.0" encoding="UTF-8" standalone="no"?>
<!-- Created with Inkscape (http://www.inkscape.org/) -->

<svg
   width="38.779739mm"
   height="38.779739mm"
   viewBox="0 0 38.779739 38.779739"
   version="1.1"
   id="svg5"
   xml:space="preserve"
   xmlns:inkscape="http://www.inkscape.org/namespaces/inkscape"
   xmlns:sodipodi="http://sodipodi.sourceforge.net/DTD/sodipodi-0.dtd"
   xmlns="http://www.w3.org/2000/svg"
   xmlns:svg="http://www.w3.org/2000/svg"><sodipodi:namedview
     id="namedview7"
     pagecolor="#ffffff"
     bordercolor="#666666"
     borderopacity="1.0"
     inkscape:showpageshadow="2"
     inkscape:pageopacity="0.0"
     inkscape:pagecheckerboard="0"
     inkscape:deskcolor="#d1d1d1"
     inkscape:document-units="mm"
     showgrid="false" /><defs
     id="defs2"><clipPath
       clipPathUnits="userSpaceOnUse"
       id="clipPath5733"><path
         d="m 7109.84,3599.62 c -1.14,-303.56 -248.15,-548.71 -551.71,-547.55 -303.55,1.14 -548.7,248.16 -547.55,551.71 1.15,303.55 248.16,548.7 551.71,547.55 303.56,-1.15 548.7,-248.16 547.55,-551.71"
         id="path5731" /></clipPath></defs><g
     id="g8395"
     transform="translate(-432.03977,-29.939042)"><g
       id="g5727"
       transform="matrix(0.03527778,0,0,-0.03527778,220,176.38889)"><g
         id="g5729"
         clip-path="url(#clipPath5733)"><path
           d="m 7109.84,3599.62 c -1.14,-303.56 -248.15,-548.71 -551.71,-547.55 -303.55,1.14 -548.7,248.16 -547.55,551.71 1.15,303.55 248.16,548.7 551.71,547.55 303.56,-1.15 548.7,-248.16 547.55,-551.71"
           style="fill:#b6bac1;fill-opacity:1;fill-rule:nonzero;stroke:none"
           id="path5735" /><path
           d="m 5827.88,3315.63 c -13.02,62.33 25.76,124.42 73.11,166.98 41.49,37.28 90.84,65.75 143.88,82.99 37.8,12.29 78.16,18.91 117.45,12.93 80.56,-12.26 144.97,-74.63 223.55,-96.16 65.4,-17.92 134.81,-6.18 201.58,5.66 62.9,11.16 125.8,22.31 188.7,33.47 95.77,16.98 194.88,33.89 289.38,10.84 94.5,-23.05 183.75,-97.26 192.23,-194.15 8.14,-92.9 -57.92,-176.72 -132.85,-232.22 -137.05,-101.51 -312.28,-142.61 -482.8,-139.11 -170.51,3.5 -337.61,48.84 -498.07,106.65 -116.7,42.03 -233.7,92.56 -323.79,177.83 l 7.63,64.29"
           style="fill:#858c92;fill-opacity:1;fill-rule:nonzero;stroke:none"
           id="path5737" /><path
           d="m 5869.62,3745.88 c 56.15,33.02 115.64,60.36 177.27,81.44 42.72,14.62 90.25,26.09 132.18,9.36 72.93,-29.09 92.06,-125.32 153.2,-174.59 67,-54 165.3,-38.48 246.78,-10.75 151.54,51.6 292.73,135.83 450.18,164.81 54.51,10.04 113.3,12.66 162.88,-12.11 49.57,-24.78 85.14,-84.2 67.17,-136.63 -13.76,-40.19 -54.65,-66.06 -96.31,-74.41 -41.65,-8.35 -84.66,-2.35 -126.84,2.73 -102.04,12.29 -209.63,18.27 -303.56,-23.44 -70.74,-31.4 -128.01,-87.54 -197.9,-120.81 -22.18,-10.57 -46.04,-18.84 -70.61,-18.91 -54.33,-0.16 -100.95,39.28 -133.21,82.99 -32.27,43.71 -56,94.02 -94.11,132.74 -65.39,66.46 -169.13,89.29 -258.77,63.69 -89.66,-25.58 -163.62,-95.93 -201.18,-181.27 l 92.83,215.16"
           style="fill:#858c92;fill-opacity:1;fill-rule:nonzero;stroke:none"
           id="path5739" /><path
           d="m 6644.69,4068.36 c 174.46,34 353.84,-6.47 526.96,-46.76 37.56,-8.74 75.16,-17.5 112,-28.9 -0.12,-24.89 -31.63,-35.33 -56.45,-37.1 -68.47,-4.87 -137.43,2.24 -206.21,9.35 -92.1,9.52 -183.88,19.04 -273.77,-0.19 -99.11,-21.2 -187.26,-75.72 -275.49,-125.61 -47.24,-26.71 -96.06,-43.74 -146.24,-13.29 -51.43,31.21 -46.24,70.52 -3.66,105.76 84.3,69.76 216.85,116.08 322.86,136.74"
           style="fill:#858c92;fill-opacity:1;fill-rule:nonzero;stroke:none"
           id="path5741" /><path
           d="m 7005.77,3887.39 c 19.31,0.04 40.11,-1.04 60.79,-2.12 36.39,-1.9 72.4,-3.79 99.31,0.37 10.81,1.67 21.24,2.63 25.3,-6.29 -42.38,-14.32 -91.09,-15.18 -134.91,-19.11 -199.88,-17.91 -404.14,-18.46 -605.72,-11.22 -163.95,5.88 -402.58,-12.84 -509.71,53.32 -3.5,2.16 -6.65,1.46 -8.89,6.02 40.71,11.82 91.76,3.04 133.72,1.29 96.61,-4.02 193.16,-9.2 289.78,-12.91 216.74,-8.31 433.62,-9.72 650.33,-9.35"
           style="fill:#7d5041;fill-opacity:1;fill-rule:nonzero;stroke:none"
           id="path5743" /><path
           d="m 7069.08,3333.71 c 65.27,-4.36 126.2,-10.3 158.8,-17.21 68.12,-14.45 -7.93,-27.69 -111.03,-34.68 -232.87,-15.78 -1003.15,-22.83 -1111.2,28.2 -106.32,50.21 730.77,45.93 1063.43,23.69"
           style="fill:#7d5041;fill-opacity:1;fill-rule:nonzero;stroke:none"
           id="path5745" /><path
           d="m 7017.27,3519.48 c 65.28,-4.36 126.2,-10.3 158.8,-17.21 68.13,-14.45 -7.93,-27.69 -111.02,-34.68 -232.88,-15.78 -1003.16,-22.83 -1111.21,28.2 -106.3,50.21 730.79,45.94 1063.43,23.69"
           style="fill:#7d5041;fill-opacity:1;fill-rule:nonzero;stroke:none"
           id="path5747" /><path
           d="m 6255.1,3952.75 c -39.42,3.89 -79.79,8.07 -118.46,20.19 -38.68,12.11 -75.94,33.9 -88.22,58.98 -20.39,41.63 32.64,69.64 82.9,86.97 52.25,18.03 106.61,34.18 162.84,48.4 91.52,23.13 192.89,41.23 304.29,26.17 64.29,-8.69 128.19,-27.96 191.14,-47.03 53.56,-16.23 107.13,-32.46 160.71,-48.68 68.4,-20.72 176.86,-68.81 125.03,-113.04 -33.02,-28.16 -165.22,-39.36 -221.12,-46.29 -186.24,-23.08 -395.55,-5.77 -599.11,14.33"
           style="fill:#7d5041;fill-opacity:1;fill-rule:nonzero;stroke:none"
           id="path5749" /><path
           d="m 6873.92,3162.57 c 39.42,-3.89 79.8,-8.08 118.47,-20.19 38.66,-12.12 75.94,-33.9 88.21,-58.97 20.39,-41.65 -32.64,-69.65 -82.89,-86.99 -52.25,-18.02 -106.62,-34.18 -162.84,-48.39 -91.52,-23.14 -192.89,-41.24 -304.31,-26.18 -64.27,8.69 -128.17,27.97 -191.12,47.04 -53.57,16.22 -107.15,32.45 -160.72,48.68 -68.39,20.72 -176.87,68.81 -125.02,113.04 33.01,28.16 165.21,39.36 221.11,46.28 186.25,23.08 395.56,5.77 599.11,-14.32"
           style="fill:#7d5041;fill-opacity:1;fill-rule:nonzero;stroke:none"
           id="path5751" /><path
           d="m 6504.08,3770.6 c 254.03,3.85 522.09,-0.75 720.37,-42.42 17.44,-3.67 35.95,-9.11 29.71,-15.54 -4.85,-4.98 -22.51,-8 -38.57,-10.31 -323.82,-46.52 -688.39,-44.96 -1014.59,-22.35 -87.76,6.09 -427.26,23.65 -291.25,68.26 80.65,26.46 480.8,20.63 594.33,22.36"
           style="fill:#7d5041;fill-opacity:1;fill-rule:nonzero;stroke:none"
           id="path5753" /><path
           d="m 5975.65,4038.69 c 151.22,43.86 312.69,87.83 463.58,42.79 46.03,-13.73 89.51,-35.46 136.11,-47.1 58.61,-14.64 120.01,-12.82 180.23,-8.14 58.23,4.53 124.51,9.03 166.9,-31.15 -23.67,-17.51 -53.84,-23.1 -82.84,-28.2 -58.16,-10.23 -116.31,-20.46 -174.47,-30.69 -99.46,-17.5 -199.85,-35.06 -300.75,-30.98 -100.91,4.08 -203.76,31.59 -282.03,95.41 l -106.73,38.06"
           style="fill:#d47342;fill-opacity:1;fill-rule:nonzero;stroke:none"
           id="path5755" /><path
           d="m 5915.49,3732.42 c 204.63,86.14 432.4,98.7 654.36,93.6 221.96,-5.08 444.62,-26.58 665.48,-3.94 -54.04,-51.9 -134.44,-62.83 -209.11,-69.07 -393.03,-32.89 -789.9,-8.71 -1181.48,-55.76 l 70.75,35.17"
           style="fill:#d47342;fill-opacity:1;fill-rule:nonzero;stroke:none"
           id="path5757" /><path
           d="m 6172.19,3438.45 c 77.89,2.65 155.47,-9.31 233.3,-13.37 157.68,-8.24 315.35,15.9 473.24,14.96 100.76,-0.61 201.44,-11.48 300.01,-32.38 -80.75,10.76 -162.72,12.02 -243.87,4.8 -79.69,-7.09 -158.44,-22.32 -237.96,-31.01 -61.17,-6.7 -122.7,-9.52 -184.18,-12.34 -71.15,-3.26 -142.29,-6.53 -213.45,-9.79 -48.19,-2.21 -96.39,-4.45 -144.63,-5.46 -35.84,-0.75 -128.47,-16.59 -158.85,2.27 -67.38,41.82 145.46,81.27 176.39,82.32"
           style="fill:#d47342;fill-opacity:1;fill-rule:nonzero;stroke:none"
           id="path5759" /><path
           d="m 7115.02,3267.57 c -17.17,-11.65 -39.24,-12.53 -59.99,-12.49 -182.36,0.35 -363.89,41.33 -545.8,28.52 -156.35,-11.02 -307.7,-61.47 -463.84,-75.21 269.95,-23.38 542.61,-15.38 810.73,23.81 83.46,12.2 172.17,26.78 249.37,-7.21 22.36,-9.85 43.89,-23.8 68.28,-25.35 24.39,-1.56 52.42,16.43 49.74,40.72"
           style="fill:#d47342;fill-opacity:1;fill-rule:nonzero;stroke:none"
           id="path5761" /></g></g><path
       d="m 440.77752,50.173813 c -0.92816,0 -1.81892,-0.01517 -2.64478,-0.03281 -3.75602,-0.08043 -4.98228,-1.727905 -4.78437,-3.970867 2.07998,0.1905 4.16948,0.312914 5.28744,0.388761 0.49812,0.323851 0.96308,0.699559 1.38253,1.126067 0.72919,0.740834 1.30916,1.601964 1.86867,2.481086 -0.3743,0.0056 -0.74507,0.0078 -1.10949,0.0078 m 6.64069,-1.703564 c -1.47391,0 -2.8822,-0.346781 -4.02978,-1.271764 -0.14676,-0.118534 -0.28681,-0.244475 -0.42122,-0.37712 3.4163,0.175331 6.91656,0.278695 10.43552,0.286809 -0.43427,0.163336 -0.86995,0.319969 -1.30845,0.469547 -1.47885,0.503061 -3.11432,0.892528 -4.67607,0.892528 m -8.05674,-6.530623 c -0.39829,-0.377119 -0.84773,-0.688975 -1.3776,-0.900289 -0.51999,-0.207433 -1.06398,-0.2921 -1.61678,-0.2921 -0.27058,0 -0.54292,0.02011 -0.81527,0.05609 0.10125,-0.157692 0.20426,-0.314325 0.31009,-0.470959 1.9999,0.176742 4.17407,0.208139 6.29074,0.216253 0.21449,0.304447 0.54328,0.597253 0.99659,0.87242 0.0755,0.04586 0.15064,0.08855 0.22578,0.128058 -1.34443,0.08819 -2.68358,0.214842 -4.01355,0.390525 m 19.88926,-0.245886 c -2.49414,-0.105481 -4.98898,-0.221192 -7.48101,-0.278342 -0.94826,-0.02187 -1.89865,-0.03457 -2.85079,-0.03457 -0.48437,0 -0.96944,0.0035 -1.45415,0.01023 0.28257,-0.132291 0.56373,-0.280811 0.84349,-0.438855 0.17886,-0.101247 0.35771,-0.202847 0.53657,-0.305153 2.25884,0.0702 4.52508,0.110772 6.79168,0.110772 1.42169,0 2.8441,-0.01588 4.26367,-0.05045 -0.21202,0.329847 -0.42827,0.659342 -0.64946,0.986367 m 1.56598,-2.450748 c -3.09351,-0.01446 -6.18843,-0.04692 -9.28229,-0.110066 0.85266,-0.463197 1.71556,-0.904522 2.59503,-1.29787 0.24801,0.0025 0.49495,0.0035 0.74154,0.0035 2.37702,0 4.70112,-0.112183 6.93032,-0.388408 0.024,-0.0032 0.0487,-0.0063 0.0737,-0.0092 -0.16263,0.32385 -0.34995,0.638881 -0.53516,0.943681 -0.17216,0.283986 -0.34643,0.570442 -0.52317,0.858308 M 442.04502,38.83128 c -1.63971,-0.07126 -3.27942,-0.150284 -4.91913,-0.226484 0.34219,-0.433916 0.69356,-0.85478 1.04951,-1.259769 1.31657,0.52458 2.71286,0.873478 4.12891,1.075619 -0.10301,0.136525 -0.18979,0.273403 -0.25929,0.410634"
       style="fill:#d3d5db;fill-opacity:1;fill-rule:nonzero;stroke:none;stroke-width:0.0352778"
       id="path5763" /><path
       d="m 441.88701,50.166051 c -0.55951,-0.879122 -1.13948,-1.740252 -1.86867,-2.481086 -0.41945,-0.426508 -0.88441,-0.802216 -1.38253,-1.126067 0.042,0.0028 0.0826,0.0056 0.1217,0.0085 1.38501,0.09596 2.79048,0.181328 4.2097,0.254 0.13441,0.132645 0.27446,0.258586 0.42122,0.37712 1.14758,0.924983 2.55587,1.271764 4.02978,1.271764 1.56175,0 3.19722,-0.389467 4.67607,-0.892528 0.4385,-0.149578 0.87418,-0.306211 1.30845,-0.469547 0.15134,3.52e-4 0.30198,7.05e-4 0.45332,7.05e-4 0.17956,0 0.35983,-3.53e-4 0.5394,-7.05e-4 -0.65652,0.493536 -1.35537,0.929922 -2.10326,1.292225 -2.81129,1.362427 -6.7938,1.71203 -10.40518,1.765652 m -7.50112,-7.308144 c 0.33126,-0.679803 0.72672,-1.370895 1.16593,-2.054578 0.27235,-0.03598 0.54469,-0.05609 0.81527,-0.05609 0.5528,0 1.09679,0.08467 1.61678,0.2921 0.52987,0.211314 0.97931,0.52317 1.3776,0.900289 -1.67711,0.221897 -3.33975,0.521406 -4.97558,0.918281"
       style="fill:#b4b8bf;fill-opacity:1;fill-rule:nonzero;stroke:none;stroke-width:0.0352778"
       id="path5765" /><path
       d="m 443.37502,41.549101 c -0.0751,-0.03951 -0.15028,-0.0822 -0.22578,-0.128058 -0.45331,-0.275167 -0.7821,-0.567973 -0.99659,-0.87242 1.90464,0.0078 3.76273,-0.0035 5.40808,0.05539 0.42792,0.01552 0.85584,0.02999 1.28411,0.04304 -0.17886,0.102306 -0.35771,0.203906 -0.53657,0.305153 -0.27976,0.158044 -0.56092,0.306564 -0.84349,0.438855 -1.3642,0.01976 -2.7298,0.06914 -4.08976,0.158045 m 8.1594,-2.416175 c -2.44334,-0.05009 -4.88597,-0.118886 -7.32861,-0.212372 -0.72037,-0.02787 -1.44074,-0.05786 -2.16076,-0.08925 0.0695,-0.137231 0.15628,-0.274109 0.25929,-0.410634 0.7366,0.105481 1.47885,0.170745 2.21792,0.200731 0.35313,0.01411 0.70626,0.02117 1.05903,0.02117 2.62679,0 5.24369,-0.375356 7.84331,-0.817387 0.23566,0.0042 0.47026,0.0078 0.70485,0.0099 -0.87947,0.393348 -1.74237,0.834673 -2.59503,1.29787"
       style="fill:#b4b8bf;fill-opacity:1;fill-rule:nonzero;stroke:none;stroke-width:0.0352778"
       id="path5767" /><path
       d="m 455.63652,40.75782 c -2.2666,0 -4.53284,-0.04057 -6.79168,-0.110772 -0.42827,-0.01305 -0.85619,-0.02752 -1.28411,-0.04304 -1.64535,-0.05891 -3.50344,-0.04762 -5.40808,-0.05539 -2.11667,-0.0081 -4.29084,-0.03951 -6.29074,-0.216253 0.39617,-0.587375 0.82198,-1.167694 1.26401,-1.727553 1.63971,0.0762 3.27942,0.155223 4.91913,0.226484 0.72002,0.0314 1.44039,0.06138 2.16076,0.08925 2.44264,0.09349 4.88527,0.162277 7.32861,0.212372 3.09386,0.06315 6.18878,0.0956 9.28229,0.110066 -0.29774,0.485776 -0.60254,0.975784 -0.91652,1.464381 -1.41957,0.03457 -2.84198,0.05045 -4.26367,0.05045"
       style="fill:#a66755;fill-opacity:1;fill-rule:nonzero;stroke:none;stroke-width:0.0352778"
       id="path5769" /><path
       d="m 454.87099,37.838584 c -0.24659,0 -0.49353,-0.0011 -0.74154,-0.0035 -0.23459,-0.0021 -0.46919,-0.0056 -0.70485,-0.0099 0.57009,-0.09666 1.13912,-0.19685 1.70745,-0.296686 2.05175,-0.360891 4.10316,-0.721783 6.15491,-1.082675 0.33761,-0.05927 0.67945,-0.12065 1.016,-0.198261 -0.0762,0.409222 -0.23424,0.807509 -0.42792,1.193447 -0.025,0.0028 -0.0497,0.006 -0.0737,0.0092 -2.2292,0.276225 -4.5533,0.388408 -6.93032,0.388408 m 0.80786,-3.367264 c -1.25342,0 -2.50154,-0.103011 -3.71545,-0.4064 -1.64395,-0.410633 -3.17782,-1.17722 -4.80166,-1.661584 -0.32632,-0.09772 -0.65405,-0.183091 -0.98284,-0.25788 1.76283,-0.4064 3.67418,-0.589492 5.57318,-0.589492 2.37279,0 4.72617,0.285397 6.7497,0.775406 1.32362,0.320322 2.77919,0.964847 3.46005,2.05105 -0.52529,-0.09737 -1.07598,-0.131586 -1.6316,-0.131586 -0.67381,0 -1.35573,0.05045 -2.00872,0.101247 -0.877,0.06844 -1.76142,0.119239 -2.64266,0.119239"
       style="fill:#a66755;fill-opacity:1;fill-rule:nonzero;stroke:none;stroke-width:0.0352778"
       id="path5771" /><path
       d="m 453.85605,47.108879 c -0.15134,0 -0.30198,-3.53e-4 -0.45332,-7.05e-4 -3.51896,-0.0081 -7.01922,-0.111478 -10.43552,-0.286809 -1.41922,-0.07267 -2.82469,-0.158044 -4.2097,-0.254 -0.0392,-0.0028 -0.0797,-0.0056 -0.1217,-0.0085 -1.11796,-0.07585 -3.20746,-0.198261 -5.28744,-0.388761 0.0254,-0.284339 0.0734,-0.57785 0.14182,-0.879122 7.83978,-0.517878 15.72154,-0.487186 23.58602,-0.724958 -0.81492,0.9398 -1.70075,1.805164 -2.68076,2.542117 -0.17957,3.52e-4 -0.35984,7.05e-4 -0.5394,7.05e-4"
       style="fill:#a66755;fill-opacity:1;fill-rule:nonzero;stroke:none;stroke-width:0.0352778"
       id="path5773" /><path
       d="m 445.58129,38.642565 c -0.35277,0 -0.7059,-0.0071 -1.05903,-0.02117 -0.73907,-0.02999 -1.48132,-0.09525 -2.21792,-0.200731 -1.41605,-0.202141 -2.81234,-0.551039 -4.12891,-1.075619 1.6831,-1.915936 3.45123,-3.451931 4.66549,-4.047773 1.01106,-0.496005 2.1403,-0.875241 3.33798,-1.151819 0.32879,0.07479 0.65652,0.160161 0.98284,0.25788 1.62384,0.484364 3.15771,1.250951 4.80166,1.661584 1.21391,0.303389 2.46203,0.4064 3.71545,0.4064 0.88124,0 1.76566,-0.0508 2.64266,-0.119239 0.65299,-0.0508 1.33491,-0.101247 2.00872,-0.101247 0.55562,0 1.10631,0.03422 1.6316,0.131586 0.19861,0.316442 0.33125,0.670631 0.37535,1.065389 0.0303,0.27058 0.0148,0.53728 -0.0342,0.799747 -0.33655,0.07761 -0.67839,0.138995 -1.016,0.198261 -2.05175,0.360892 -4.10316,0.721784 -6.15491,1.082675 -0.56833,0.09984 -1.13736,0.200025 -1.70745,0.296686 -2.59962,0.442031 -5.21652,0.817387 -7.84331,0.817387"
       style="fill:#e3974f;fill-opacity:1;fill-rule:nonzero;stroke:none;stroke-width:0.0352778"
       id="path5775" /><path
       d="m 433.49019,45.291015 c 0.17568,-0.772231 0.48683,-1.594203 0.8957,-2.433108 1.63583,-0.396875 3.29847,-0.696384 4.97558,-0.918281 1.32997,-0.175683 2.66912,-0.302331 4.01355,-0.390525 1.35996,-0.0889 2.72556,-0.138289 4.08976,-0.158045 0.48471,-0.0067 0.96978,-0.01023 1.45415,-0.01023 0.95214,0 1.90253,0.0127 2.85079,0.03457 2.49203,0.05715 4.98687,0.172861 7.48101,0.278342 -0.6724,0.99448 -1.391,1.968147 -2.17452,2.872317 -7.86448,0.237772 -15.74624,0.20708 -23.58602,0.724958"
       style="fill:#e3974f;fill-opacity:1;fill-rule:nonzero;stroke:none;stroke-width:0.0352778"
       id="path5777" /></g></svg>
