<?xml version="1.0" encoding="UTF-8" standalone="no"?>
<!-- Created with Inkscape (http://www.inkscape.org/) -->

<svg
   width="79.527328mm"
   height="41.663536mm"
   viewBox="0 0 79.527328 41.663536"
   version="1.1"
   id="svg5"
   xml:space="preserve"
   xmlns:inkscape="http://www.inkscape.org/namespaces/inkscape"
   xmlns:sodipodi="http://sodipodi.sourceforge.net/DTD/sodipodi-0.dtd"
   xmlns="http://www.w3.org/2000/svg"
   xmlns:svg="http://www.w3.org/2000/svg"><sodipodi:namedview
     id="namedview7"
     pagecolor="#ffffff"
     bordercolor="#666666"
     borderopacity="1.0"
     inkscape:showpageshadow="2"
     inkscape:pageopacity="0.0"
     inkscape:pagecheckerboard="0"
     inkscape:deskcolor="#d1d1d1"
     inkscape:document-units="mm"
     showgrid="false" /><defs
     id="defs2"><clipPath
       clipPathUnits="userSpaceOnUse"
       id="clipPath5809"><path
         d="m 2149.11,1747.71 c 84.13,-310.23 -99.16,-629.93 -409.4,-714.07 -310.23,-84.128 -629.93,99.16 -714.07,409.39 -84.128,310.25 99.16,629.95 409.4,714.08 310.23,84.14 629.94,-99.15 714.07,-409.4"
         id="path5807" /></clipPath></defs><g
     id="g8519"
     transform="translate(-235.90507,-98.981679)"><path
       d="m 237.10461,135.78522 c -0.10845,-0.24835 -0.16327,-0.51752 -0.16369,-0.82267 -0.001,-0.5648 0.19897,-1.25836 0.62424,-2.04788 0.74083,-1.38254 2.15582,-3.03601 4.13741,-4.82882 2.97244,-2.6924 7.21392,-5.71077 12.36172,-8.77464 5.14837,-3.06423 11.20416,-6.17679 17.81415,-9.07274 7.44291,-3.26108 14.611,-5.81943 20.88516,-7.56003 6.27168,-1.74167 11.65683,-2.66242 15.49153,-2.661 1.70286,-10e-4 3.09739,0.18309 4.10668,0.53304 0.50518,0.17427 0.91193,0.38876 1.21991,0.63077 0.30797,0.24306 0.51823,0.50976 0.65123,0.81209 l 0.94862,-0.41592 c -0.20638,-0.47272 -0.53799,-0.87948 -0.95956,-1.21038 -0.63429,-0.497066 -1.46473,-0.835733 -2.46309,-1.058688 -0.99942,-0.221897 -2.1717,-0.326672 -3.50379,-0.326672 -3.99345,0.0014 -9.43716,0.942622 -15.76882,2.6984 -6.32918,1.75648 -13.5389,4.33034 -21.02344,7.60941 -10.12931,4.4383 -18.96653,9.38001 -25.2935,13.91674 -3.16399,2.26942 -5.70053,4.43582 -7.46566,6.40609 -0.8825,0.98601 -1.57289,1.92299 -2.05094,2.81199 -0.47653,0.88829 -0.74634,1.7332 -0.74771,2.53824 -2.8e-4,0.43215 0.0809,0.8516 0.25079,1.2386 l 0.94876,-0.41593"
       style="fill:#b6b0c0;fill-opacity:1;fill-rule:nonzero;stroke:none;stroke-width:0.0352778"
       id="path5779" /><path
       d="m 238.45469,135.19362 c -0.1028,-0.23531 -0.15505,-0.49037 -0.15529,-0.78105 -0.002,-0.53799 0.18986,-1.20298 0.59887,-1.96215 0.71247,-1.32998 2.0767,-2.92489 3.989,-4.65456 2.86812,-2.5982 6.96295,-5.5125 11.93342,-8.47054 4.97053,-2.95875 10.81817,-5.96406 17.20098,-8.76053 7.18679,-3.1489 14.10829,-5.61905 20.16549,-7.29968 6.05508,-1.68134 11.25396,-2.56999 14.95248,-2.56858 1.64219,-10e-4 2.98592,0.17674 3.9557,0.51294 0.48507,0.16757 0.87454,0.37289 1.16805,0.60396 0.29422,0.23212 0.49318,0.48507 0.61912,0.77152 l 0.97755,-0.42827 c -0.20214,-0.46214 -0.52599,-0.85972 -0.93698,-1.18181 -0.61806,-0.48471 -1.42487,-0.8128 -2.39218,-1.028696 -0.96838,-0.215194 -2.10291,-0.316442 -3.39126,-0.316442 -3.86185,0.0014 -9.12107,0.911228 -15.23788,2.607378 -6.11434,1.69651 -13.07853,4.18289 -20.30836,7.35048 -9.78429,4.28696 -18.32081,9.06075 -24.43392,13.44401 -3.05717,2.19287 -5.50855,4.28625 -7.21568,6.1916 -0.85341,0.95391 -1.52192,1.86055 -1.98533,2.72204 -0.46178,0.86113 -0.72457,1.68204 -0.72609,2.46733 -2.8e-4,0.42156 0.0791,0.83114 0.24501,1.20932 l 0.9773,-0.42827"
       style="fill:#908f9c;fill-opacity:1;fill-rule:nonzero;stroke:none;stroke-width:0.0352778"
       id="path5781" /><path
       d="m 239.80488,134.60236 c -0.097,-0.2226 -0.14662,-0.4639 -0.1469,-0.73978 -0.002,-0.51117 0.18066,-1.14758 0.57354,-1.87642 0.68393,-1.27706 1.99761,-2.81376 3.84045,-4.48063 2.76394,-2.50367 6.71216,-5.31354 11.50497,-8.1661 4.79319,-2.85292 10.43234,-5.75134 16.58761,-8.44797 6.93067,-3.03671 13.60558,-5.41902 19.44652,-7.03968 5.83883,-1.62137 10.85145,-2.47791 14.4138,-2.47615 1.5815,-0.001 2.87443,0.17039 3.804,0.49283 0.46531,0.16051 0.83749,0.35701 1.11689,0.57714 0.27976,0.22084 0.46779,0.46003 0.58703,0.73096 l 1.00577,-0.44062 c -0.19756,-0.45155 -0.514,-0.83961 -0.91405,-1.15358 -0.60219,-0.47167 -1.38501,-0.78952 -2.32128,-0.99872 -0.93733,-0.20814 -2.03376,-0.30585 -3.27836,-0.30621 -3.73063,0.002 -8.80534,0.88018 -14.70731,2.51637 -5.89986,1.63724 -12.61851,4.03613 -19.59363,7.09189 -9.43963,4.13597 -17.67523,8.74113 -23.57434,12.97093 -2.95011,2.11632 -5.31633,4.13632 -6.96557,5.97747 -0.82447,0.9211 -1.47076,1.79776 -1.9196,2.63207 -0.44718,0.83397 -0.70309,1.6309 -0.70446,2.39642 -2.5e-4,0.41064 0.077,0.81069 0.23925,1.1804 l 1.00567,-0.44062"
       style="fill:#b6b0c0;fill-opacity:1;fill-rule:nonzero;stroke:none;stroke-width:0.0352778"
       id="path5783" /><path
       d="m 241.15496,134.01075 c -0.0915,-0.20955 -0.13822,-0.43674 -0.1385,-0.6985 -0.002,-0.48366 0.17155,-1.09149 0.54832,-1.79035 0.65539,-1.22414 1.91837,-2.70263 3.69178,-4.30635 2.65988,-2.40912 6.46134,-5.11528 11.07673,-7.86166 4.61575,-2.74778 10.04641,-5.53896 15.97449,-8.13611 6.67455,-2.92453 13.10287,-5.21864 18.72721,-6.77898 5.62221,-1.5614 10.44892,-2.38584 13.87475,-2.38407 1.52082,-0.001 2.76295,0.16404 3.65266,0.47272 0.4452,0.15381 0.80045,0.34149 1.06539,0.55033 0.26564,0.20955 0.44238,0.43533 0.55492,0.69004 l 1.03399,-0.45297 c -0.19262,-0.44062 -0.50165,-0.8195 -0.89112,-1.12466 -0.58561,-0.45896 -1.34479,-0.76658 -2.25002,-0.96872 -0.90664,-0.20144 -1.96532,-0.29563 -3.16582,-0.29563 -3.59904,0.001 -8.48925,0.84808 -14.17673,2.42499 -5.68466,1.57762 -12.15814,3.88867 -18.87855,6.8326 -9.09462,3.98533 -17.02951,8.42222 -22.71473,12.49857 -2.84332,2.03941 -5.1241,3.98674 -6.71548,5.76298 -0.79551,0.889 -1.41979,1.73531 -1.85399,2.54247 -0.43257,0.8068 -0.68132,1.57938 -0.68283,2.3248 -3.9e-4,0.40005 0.0751,0.79093 0.23343,1.15147 l 1.0341,-0.45297"
       style="fill:#908f9c;fill-opacity:1;fill-rule:nonzero;stroke:none;stroke-width:0.0352778"
       id="path5785" /><path
       d="m 242.50504,133.41914 c -0.0857,-0.19649 -0.12983,-0.40957 -0.13025,-0.65652 -0.002,-0.4572 0.1626,-1.03611 0.5231,-1.70497 0.62703,-1.17122 1.83928,-2.59115 3.54323,-4.13209 2.5557,-2.31493 6.21069,-4.91666 10.64817,-7.55756 4.4383,-2.64195 9.66082,-5.32588 15.36136,-7.82355 6.41844,-2.81234 12.60017,-5.01862 18.00825,-6.51898 5.40561,-1.50142 10.04605,-2.29341 13.33571,-2.292 1.46014,-10e-4 2.65147,0.15805 3.50131,0.45297 0.4251,0.14675 0.76306,0.32561 1.01389,0.52317 0.25153,0.19861 0.41698,0.41098 0.52246,0.64981 l 1.06257,-0.46531 c -0.18768,-0.43039 -0.4893,-0.79939 -0.86783,-1.09643 -0.56974,-0.44591 -1.30493,-0.74331 -2.17947,-0.93874 -0.87559,-0.19439 -1.89618,-0.28505 -3.05293,-0.2854 -3.46746,0.002 -8.17351,0.81703 -13.6458,2.33398 -5.47053,1.518 -11.69847,3.74156 -18.16383,6.57436 -8.74994,3.83399 -16.38406,8.1026 -21.85529,12.02549 -2.73621,1.96286 -4.93197,3.83717 -6.46532,5.54849 -0.76662,0.85655 -1.36867,1.67287 -1.7883,2.45287 -0.41794,0.77928 -0.6598,1.52788 -0.66132,2.25354 -2.8e-4,0.38947 0.0732,0.77047 0.22765,1.12219 l 1.06264,-0.46532"
       style="fill:#b6b0c0;fill-opacity:1;fill-rule:nonzero;stroke:none;stroke-width:0.0352778"
       id="path5787" /><path
       d="m 243.85508,132.82753 c -0.08,-0.18344 -0.12139,-0.38276 -0.12167,-0.61524 -0.002,-0.42968 0.15325,-0.98037 0.49759,-1.6189 0.59849,-1.11866 1.76019,-2.48003 3.39468,-3.95781 2.45138,-2.22074 5.95972,-4.7184 10.21997,-7.25382 4.26085,-2.53612 9.27488,-5.11316 14.74788,-7.51099 6.16267,-2.70016 12.0978,-4.81824 17.28928,-6.25863 5.18936,-1.44145 9.64354,-2.20134 12.79702,-2.19957 1.39947,-0.001 2.53964,0.15169 3.34962,0.43286 0.40534,0.1397 0.72602,0.30974 0.96238,0.49636 0.23742,0.18732 0.39194,0.38593 0.49036,0.60889 l 1.09114,-0.47801 c -0.18309,-0.41946 -0.47731,-0.77894 -0.84525,-1.06716 -0.55351,-0.43356 -1.26471,-0.72037 -2.1082,-0.90911 -0.84455,-0.18767 -1.82704,-0.27446 -2.94005,-0.27481 -3.33587,0.002 -7.85742,0.78528 -13.11522,2.24296 -5.25533,1.45839 -11.23809,3.5941 -17.4491,6.31508 -8.40528,3.68335 -15.73847,7.78333 -20.99567,11.55276 -2.62933,1.88631 -4.73979,3.68759 -6.21539,5.33436 -0.73765,0.82444 -1.31766,1.61008 -1.72268,2.3629 -0.40308,0.75213 -0.63789,1.47673 -0.63955,2.18264 -4.2e-4,0.37853 0.0713,0.75036 0.22186,1.09326 l 1.091,-0.47802"
       style="fill:#908f9c;fill-opacity:1;fill-rule:nonzero;stroke:none;stroke-width:0.0352778"
       id="path5789" /><path
       d="m 246.31073,131.75156 c -0.0633,-0.14499 -0.0957,-0.30268 -0.0959,-0.48401 -0.002,-0.37606 0.15007,-0.85972 0.47844,-1.41958 0.5716,-0.98107 1.66592,-2.17699 3.1951,-3.4865 4.58985,-3.93806 13.0683,-8.93128 23.19761,-13.36746 5.89104,-2.58127 11.53901,-4.62491 16.41793,-6.02156 4.8768,-1.39735 8.99301,-2.14454 11.78207,-2.14313 1.08303,-7e-4 1.96392,0.1136 2.59433,0.32915 0.31538,0.10689 0.56691,0.23812 0.75459,0.38417 0.18803,0.14711 0.31292,0.30551 0.39159,0.48401 l 0.68438,-0.29986 c -0.13264,-0.30339 -0.34642,-0.56374 -0.617,-0.77364 -0.40711,-0.31574 -0.93698,-0.5274 -1.57304,-0.66675 -0.63676,-0.139 -1.38359,-0.20391 -2.23485,-0.20426 -2.915,0.002 -7.06861,0.76482 -11.98774,2.17205 -4.91737,1.40759 -10.59251,3.46217 -16.51212,6.05579 -7.75546,3.39795 -14.54573,7.11411 -19.41213,10.46586 -2.4336,1.67675 -4.38629,3.26107 -5.74516,4.68242 -0.67952,0.7112 -1.2113,1.38183 -1.58048,2.01295 -0.36766,0.63076 -0.57905,1.22625 -0.58056,1.79634 -2.9e-4,0.2727 0.0511,0.53869 0.15875,0.78387 l 0.68417,-0.29986"
       style="fill:#b6b0c0;fill-opacity:1;fill-rule:nonzero;stroke:none;stroke-width:0.0352778"
       id="path5791" /><path
       d="m 247.33753,131.30212 c -0.0598,-0.13723 -0.0906,-0.28575 -0.0908,-0.45826 -0.002,-0.35665 0.14302,-0.8202 0.45886,-1.35854 0.54973,-0.94368 1.60503,-2.09762 3.08077,-3.36162 4.42941,-3.80048 12.61661,-8.6226 22.39737,-12.90603 5.6889,-2.49237 11.14249,-4.46581 15.85313,-5.81448 4.70888,-1.34902 8.68292,-2.0701 11.3725,-2.06869 1.04457,-7e-4 1.89301,0.11007 2.49802,0.31644 0.30268,0.10266 0.54328,0.2286 0.72178,0.3676 0.17886,0.1397 0.29669,0.28963 0.37077,0.45826 l 0.70485,-0.30904 c -0.12982,-0.29704 -0.33937,-0.55174 -0.60325,-0.75635 -0.39723,-0.30798 -0.91228,-0.51329 -1.52894,-0.64876 -0.61701,-0.13441 -1.33985,-0.1972 -2.16323,-0.19756 -2.8194,0.001 -6.8319,0.73943 -11.58417,2.09868 -4.7505,1.3596 -10.23232,3.34398 -15.95014,5.84905 -7.49123,3.28225 -14.04973,6.87176 -18.75151,10.11026 -2.3512,1.61996 -4.23814,3.15102 -5.55237,4.52544 -0.65719,0.68791 -1.1719,1.33667 -1.52979,1.94839 -0.3562,0.61172 -0.56236,1.19027 -0.56402,1.74695 -2.8e-4,0.2667 0.05,0.5267 0.15543,0.76694 l 0.70475,-0.30868"
       style="fill:#908f9c;fill-opacity:1;fill-rule:nonzero;stroke:none;stroke-width:0.0352778"
       id="path5793" /><path
       d="m 248.36404,130.85198 c -0.0562,-0.12877 -0.0852,-0.26847 -0.0854,-0.4318 -0.002,-0.33761 0.13585,-0.7807 0.43931,-1.29787 0.52765,-0.90629 1.54393,-2.01789 2.96623,-3.23603 4.26921,-3.66325 12.16508,-8.31392 21.59766,-12.44494 5.4864,-2.40383 10.74561,-4.30707 15.28833,-5.60741 4.5406,-1.30104 8.37247,-1.99601 10.96292,-1.9946 1.00542,-7.1e-4 1.82174,0.10618 2.40101,0.30409 0.28998,0.0984 0.51964,0.21837 0.68897,0.35066 0.17004,0.13265 0.28046,0.27376 0.35031,0.43216 l 0.72531,-0.31786 c -0.127,-0.29033 -0.33196,-0.53975 -0.58914,-0.73942 -0.38735,-0.30021 -0.88759,-0.49918 -1.48484,-0.63006 -0.59761,-0.13053 -1.29646,-0.19121 -2.09162,-0.19121 -2.7238,10e-4 -6.59553,0.71367 -11.18094,2.0253 -4.58329,1.31198 -9.87178,3.22651 -15.38817,5.64303 -7.227,3.16689 -13.55443,6.62941 -18.09115,9.75431 -2.26896,1.56351 -4.09003,3.04059 -5.35947,4.36845 -0.63486,0.66428 -1.13249,1.29152 -1.47906,1.88383 -0.34491,0.59232 -0.54571,1.15429 -0.54737,1.69757 -2.8e-4,0.26 0.0488,0.5147 0.15187,0.74965 l 0.72528,-0.31785"
       style="fill:#b6b0c0;fill-opacity:1;fill-rule:nonzero;stroke:none;stroke-width:0.0352778"
       id="path5795" /><path
       d="m 249.39066,130.40254 c -0.0526,-0.12065 -0.0799,-0.25188 -0.0802,-0.40569 -0.002,-0.31856 0.1287,-0.7419 0.4196,-1.23755 0.5056,-0.86889 1.48304,-1.93851 2.85171,-3.11044 4.10888,-3.52566 11.71371,-8.00559 20.79809,-11.98386 5.28355,-2.31528 10.34873,-4.14796 14.72318,-5.39997 4.37233,-1.25307 8.06238,-1.92194 10.55299,-1.92052 0.96697,-7.1e-4 1.75084,0.1023 2.30505,0.29139 0.27729,0.0942 0.49566,0.20884 0.65617,0.33373 0.16087,0.12594 0.26423,0.25823 0.3295,0.4064 l 0.74577,-0.32667 c -0.12418,-0.28434 -0.32456,-0.52776 -0.57538,-0.72214 -0.37748,-0.29245 -0.86254,-0.48507 -1.44039,-0.61207 -0.57856,-0.12594 -1.25342,-0.1845 -2.02072,-0.18486 -2.62819,0.002 -6.35882,0.68827 -10.77701,1.95192 -4.41607,1.26436 -9.51159,3.10868 -14.82583,5.43701 -6.96313,3.05083 -13.05913,6.38705 -17.43111,9.39836 -2.18662,1.50671 -3.94183,2.93052 -5.16661,4.21111 -0.61256,0.64135 -1.09308,1.24671 -1.42836,1.81998 -0.33362,0.57291 -0.52916,1.11795 -0.53079,1.64818 -2.8e-4,0.25364 0.0477,0.5027 0.14852,0.73236 l 0.74581,-0.32667"
       style="fill:#908f9c;fill-opacity:1;fill-rule:nonzero;stroke:none;stroke-width:0.0352778"
       id="path5797" /><path
       d="m 250.41717,129.9524 c -0.0491,-0.11254 -0.0746,-0.2346 -0.0748,-0.37924 -0.002,-0.29951 0.12153,-0.70273 0.39991,-1.17687 0.48369,-0.83114 1.42211,-1.85878 2.73745,-2.98485 1.97305,-1.69228 4.79033,-3.6195 8.20416,-5.59788 3.41383,-1.97873 7.42527,-4.01073 11.79407,-5.9249 5.08141,-2.22638 9.95221,-3.98886 14.15874,-5.19289 4.20405,-1.20474 7.75194,-1.8475 10.14306,-1.84609 0.92816,-7e-4 1.67958,0.0981 2.20839,0.27905 0.26459,0.0896 0.47202,0.19861 0.62301,0.31644 0.15169,0.11889 0.248,0.24236 0.30938,0.38065 l 0.76589,-0.33585 c -0.12136,-0.27763 -0.31715,-0.5154 -0.56127,-0.70485 -0.3676,-0.28469 -0.8382,-0.47095 -1.3963,-0.59372 -0.5588,-0.12171 -1.20967,-0.1778 -1.9491,-0.17815 -2.53224,0.002 -6.1221,0.66251 -10.37343,1.87819 -4.24921,1.21637 -9.15105,2.99085 -14.26421,5.23098 -6.69855,2.93512 -12.56348,6.14469 -16.77071,9.04241 -2.10414,1.44991 -3.79374,2.8201 -4.97374,4.05412 -0.59009,0.61771 -1.05354,1.20156 -1.37764,1.75542 -0.32233,0.55351 -0.51248,1.08197 -0.51413,1.59879 -2.9e-4,0.2473 0.0464,0.49071 0.14495,0.71508 l 0.76634,-0.33584"
       style="fill:#b6b0c0;fill-opacity:1;fill-rule:nonzero;stroke:none;stroke-width:0.0352778"
       id="path5799" /><path
       d="m 251.44365,129.50296 c -0.0453,-0.10443 -0.0692,-0.21767 -0.0694,-0.35349 -0.002,-0.2801 0.11437,-0.66322 0.38033,-1.11583 0.46165,-0.79375 1.36109,-1.77941 2.62284,-2.85962 1.89275,-1.62384 4.5975,-3.4738 7.87481,-5.37316 3.27766,-1.89971 7.12893,-3.85092 11.32346,-5.68854 4.87892,-2.13748 9.55569,-3.82976 13.59394,-4.98581 4.03578,-1.15676 7.44149,-1.77341 9.73314,-1.77165 0.8897,-7e-4 1.60866,0.0942 2.11208,0.26635 0.25188,0.0854 0.44838,0.18873 0.59055,0.29986 0.14252,0.11148 0.23177,0.22648 0.28857,0.35454 l 0.7867,-0.34466 c -0.11854,-0.27129 -0.3101,-0.50377 -0.54787,-0.68792 -0.35771,-0.27693 -0.81315,-0.45685 -1.35184,-0.57538 -0.5394,-0.11748 -1.16629,-0.17145 -1.87819,-0.1718 -2.43629,0.002 -5.88539,0.63711 -9.9695,1.80481 -4.08235,1.16875 -8.79087,2.87337 -13.70224,5.02496 -6.43432,2.81941 -12.06783,5.90233 -16.11031,8.68645 -2.02177,1.39312 -3.64568,2.71004 -4.78088,3.89714 -0.56776,0.59443 -1.01409,1.1564 -1.32694,1.69086 -0.31101,0.53446 -0.49579,1.04599 -0.49759,1.5494 -2.8e-4,0.24095 0.0453,0.47872 0.14168,0.69815 l 0.78669,-0.34466"
       style="fill:#908f9c;fill-opacity:1;fill-rule:nonzero;stroke:none;stroke-width:0.0352778"
       id="path5801" /><g
       id="g5803"
       transform="matrix(0.03527778,0,0,-0.03527778,220,176.38889)"><g
         id="g5805"
         clip-path="url(#clipPath5809)"><path
           d="m 2149.11,1747.71 c 84.13,-310.23 -99.16,-629.93 -409.4,-714.07 -310.23,-84.128 -629.93,99.16 -714.07,409.39 -84.128,310.25 99.16,629.95 409.4,714.08 310.23,84.14 629.94,-99.15 714.07,-409.4"
           style="fill:#a96226;fill-opacity:1;fill-rule:nonzero;stroke:none"
           id="path5811" /><path
           d="m 629.766,1663.59 c 67.074,-32.97 144.91,-33.54 219.632,-32.32 253.762,4.11 509.282,21.32 754.402,87.09 245.11,65.78 480.87,182.84 657.9,364.68 6.8,6.99 15.21,14.67 24.82,13.04 9.92,-1.68 15.29,-12.27 19.13,-21.55 20.63,-49.94 40.71,-109.3 12.32,-155.27 -13.56,-21.97 -36.13,-36.59 -58.43,-49.59 -91.59,-53.37 -190.96,-91.82 -289.84,-130.04 -195.06,-75.39 -390.12,-150.79 -585.18,-226.19 -80.74,-31.21 -162.02,-62.57 -247.06,-78.75 -85.04,-16.19 -174.948,-16.48 -256.136,13.56 -80.054,29.61 -151.324,92.96 -172.508,175.64 l -79.05,39.7"
           style="fill:#cd922b;fill-opacity:1;fill-rule:nonzero;stroke:none"
           id="path5813" /><path
           d="m 893.711,1735.94 c 47.648,-23.9 103.473,-24.67 156.569,-19.96 136.77,12.17 268.52,57.13 395.29,109.87 212.8,88.51 416.04,199.96 605.08,331.8 49.98,34.86 100.54,71.89 159.58,86.94 5.44,1.38 11.31,2.56 16.59,0.61 15.04,-5.56 11.55,-27.75 4.73,-42.26 -40.29,-85.77 -98.86,-162.89 -170.67,-224.72 -86.01,-74.06 -189.33,-125.29 -294.86,-167.06 -292.75,-115.89 -612.07,-164.04 -925.973,-139.65 l 53.664,64.43"
           style="fill:#cd922b;fill-opacity:1;fill-rule:nonzero;stroke:none"
           id="path5815" /><path
           d="m 2071.44,2341.78 c -197.35,-274.39 -522,-435.91 -853.44,-502.14 -65.88,-13.17 -168.42,-39.06 -231.52,-12.27 18.37,32.97 84.86,37.64 118.91,48.33 47.79,15 95.17,31.32 142.12,48.78 95.6,35.55 189.38,75.88 281.52,119.6 186.46,88.47 365.99,190.8 542.41,297.7"
           style="fill:#cd922b;fill-opacity:1;fill-rule:nonzero;stroke:none"
           id="path5817" /><path
           d="m 992.648,1944.38 c 190.032,70.53 374.092,157.13 549.582,258.58 135.54,78.35 267.33,166.18 414.97,218.27 -210.98,-237.52 -487.72,-416.01 -791.11,-510.25 -69.01,-21.43 -141.85,-38.72 -213.074,-26.52 -14.442,2.47 -30.039,7.08 -37.996,19.38 -7.954,12.31 -1.286,33.42 13.363,33.34 l 64.265,7.2"
           style="fill:#cd922b;fill-opacity:1;fill-rule:nonzero;stroke:none"
           id="path5819" /><path
           d="m 1589.74,1470.1 c 264.35,93.06 499.92,251.87 753.23,371.76 -61.53,-107.48 -160.4,-189.75 -268.49,-250.19 -108.09,-60.44 -226.01,-100.84 -343.19,-140.91 -101.56,-34.74 -203.11,-69.46 -304.67,-104.19 -80.75,-27.62 -162.08,-55.26 -246.13,-71.09 -65.59,-12.35 -197.748,-37.99 -256.47,6.62 -62.95,47.83 29.707,92.39 75.101,95.63 94.539,6.75 187.739,2.79 282.279,16.54 104.9,15.27 208.35,40.63 308.34,75.83"
           style="fill:#cd922b;fill-opacity:1;fill-rule:nonzero;stroke:none"
           id="path5821" /><path
           d="m 979.496,1224 c 197.584,-39.36 404.334,-7.58 593.894,60.66 189.56,68.23 364.29,171.64 534.84,278.86 77,48.42 154.16,98.12 239.42,129.76 -15.44,-75.84 -65.75,-141.05 -126.57,-188.9 -60.82,-47.86 -132.03,-80.42 -202.9,-111.52 -213.32,-93.64 -430.58,-178.32 -651,-253.73 -49.07,-16.79 -100.48,-33.35 -151.85,-26.15 -57.07,7.99 -108.03,44.69 -165.61,47.27"
           style="fill:#cd922b;fill-opacity:1;fill-rule:nonzero;stroke:none"
           id="path5823" /><path
           d="m 2164.38,1406.44 c 53.73,32.51 109.09,68.1 171.72,72.85 -19.8,-1.5 -64.87,-51.63 -81.9,-64.39 -32.85,-24.61 -66.36,-48.32 -100.5,-71.1 -64.33,-42.95 -130.86,-82.6 -199.21,-118.82 -138.1,-73.17 -283.65,-132.28 -433.7,-176 -72.74,-21.2 -146.54,-38.79 -221.03,-52.601 -52.45,-9.731 -98.79,-2.828 -54.07,57.971 36.48,49.61 125.97,45.03 181.31,57.24 81.15,17.9 161.37,39.96 240.26,66.04 173.55,57.4 340.7,134.19 497.12,228.81"
           style="fill:#cd922b;fill-opacity:1;fill-rule:nonzero;stroke:none"
           id="path5825" /><path
           d="m 2150.86,1282.16 c 29.95,13.88 60.97,28.33 93.98,28.57 -67.78,-93.61 -164.12,-163.94 -268.34,-213.88 -104.23,-49.94 -216.61,-80.57 -329.42,-105.702 -33.85,-7.539 -217.6,-61.027 -226.2,-26.968 -14.91,59 157.42,89.55 189.62,100.6 183.72,63.05 364.16,135.64 540.36,217.38"
           style="fill:#cd922b;fill-opacity:1;fill-rule:nonzero;stroke:none"
           id="path5827" /><path
           d="m 2147.81,2293.22 c 19.08,-46.92 -16.93,-97.04 -52.43,-133.18 -254.6,-259.25 -613.63,-408.85 -975.82,-419.13 -103.61,-2.94 -203.337,10.08 -305.494,24.69 375.094,35.61 741.844,155.74 1066.464,346.75 92.78,54.59 182.15,114.99 267.28,180.87"
           style="fill:#7e374b;fill-opacity:1;fill-rule:nonzero;stroke:none"
           id="path5829" /><path
           d="m 1036.19,1637.18 c 1.51,9.37 3.35,18.92 5.49,28.58 228.85,4.65 456.95,47.09 672,125.5 -7.43,-16.26 -15.42,-32.18 -24.12,-47.63 -28.41,-9.14 -57.02,-17.56 -85.76,-25.27 -185.02,-49.65 -375.96,-71.62 -567.61,-81.18 m 19.04,79.26 c 2.52,8.12 5.19,16.23 8.01,24.36 8.81,-0.2 17.65,-0.31 26.51,-0.31 9.9,0 19.85,0.13 29.81,0.42 34.53,0.98 69.01,3.22 103.39,6.71 -55.04,-14.81 -110.95,-25.8 -167.72,-31.18"
           style="fill:#c87d1e;fill-opacity:1;fill-rule:nonzero;stroke:none"
           id="path5831" /><path
           d="m 1139.88,1458.91 c -98.24,0 -119.52,79.62 -103.69,178.27 191.65,9.56 382.59,31.53 567.61,81.18 28.74,7.71 57.35,16.13 85.76,25.27 -23.68,-42.03 -52.52,-80.52 -88.92,-112.44 -96.42,-84.54 -271.3,-131.72 -395.92,-163.17 -24.57,-6.21 -46.12,-9.11 -64.84,-9.11"
           style="fill:#e0b92f;fill-opacity:1;fill-rule:nonzero;stroke:none"
           id="path5833" /><path
           d="m 1041.68,1665.76 c 3.68,16.62 8.26,33.61 13.55,50.68 56.77,5.38 112.68,16.37 167.72,31.18 186.43,18.9 369.49,74.29 535.08,162.04 -12.61,-40 -26.88,-80.12 -44.35,-118.4 -215.05,-78.41 -443.15,-120.85 -672,-125.5"
           style="fill:#e0b92f;fill-opacity:1;fill-rule:nonzero;stroke:none"
           id="path5835" /><path
           d="m 1089.4,1807.13 c 1.57,3.57 3.16,7.11 4.76,10.64 44.03,4.41 89.05,14.91 123.84,21.87 13.8,2.75 27.6,5.68 41.37,8.77 -56.18,-15.67 -112.87,-29.45 -169.97,-41.28 m 37.4,75.38 c 3.85,6.93 7.73,13.68 11.63,20.22 9.27,2.64 18.5,5.41 27.66,8.25 170.64,53.01 332.87,132.68 479.69,234.5 2.2,0.08 4.38,0.16 6.56,0.23 2.98,0.09 5.99,0.14 9.02,0.14 18.75,0 38.43,-1.84 56.72,-6.5 -62.31,-33.13 -125.27,-65.01 -189.05,-95.27 -92.14,-43.72 -185.92,-84.05 -281.52,-119.6 -39.93,-14.85 -80.17,-28.88 -120.71,-41.97 m 573.78,133.3 c 31.32,17.83 61.87,36.86 91.5,57.08 0.64,-3.15 1.1,-6.32 1.4,-9.52 -30.64,-16.48 -61.62,-32.33 -92.9,-47.56"
           style="fill:#c87d1e;fill-opacity:1;fill-rule:nonzero;stroke:none"
           id="path5837" /><path
           d="m 1094.16,1817.77 c 10.33,22.65 21.36,44.47 32.64,64.74 40.54,13.09 80.78,27.12 120.71,41.97 95.6,35.55 189.38,75.88 281.52,119.6 63.78,30.26 126.74,62.14 189.05,95.27 31.23,-7.95 58.42,-24.11 70.08,-53.29 1.72,-4.31 3.01,-8.71 3.92,-13.17 -29.63,-20.22 -60.18,-39.25 -91.5,-57.08 -141.6,-68.95 -289.48,-125.08 -441.21,-167.4 -13.77,-3.09 -27.57,-6.02 -41.37,-8.77 -34.79,-6.96 -79.81,-17.46 -123.84,-21.87"
           style="fill:#e0b92f;fill-opacity:1;fill-rule:nonzero;stroke:none"
           id="path5839" /><path
           d="m 1138.43,1902.73 c 23.81,40.02 48,72.23 68.38,90.27 107.48,95.15 293.48,146.6 438.97,152.48 -146.82,-101.82 -309.05,-181.49 -479.69,-234.5 -9.16,-2.84 -18.39,-5.61 -27.66,-8.25"
           style="fill:#e0b92f;fill-opacity:1;fill-rule:nonzero;stroke:none"
           id="path5841" /><path
           d="m 1089.75,1740.49 c -8.86,0 -17.7,0.11 -26.51,0.31 7.76,22.37 16.61,44.68 26.16,66.33 57.1,11.83 113.79,25.61 169.97,41.28 151.73,42.32 299.61,98.45 441.21,167.4 31.28,15.23 62.26,31.08 92.9,47.56 2.12,-23.12 -4.3,-47.45 -10.78,-70.25 -7.77,-27.32 -15.81,-55.36 -24.67,-83.46 -165.59,-87.75 -348.65,-143.14 -535.08,-162.04 -34.38,-3.49 -68.86,-5.73 -103.39,-6.71 -9.96,-0.29 -19.91,-0.42 -29.81,-0.42"
           style="fill:#a64662;fill-opacity:1;fill-rule:nonzero;stroke:none"
           id="path5843" /></g></g><path
       d="m 314.23295,101.99334 c 0.1083,0.24836 0.16333,0.51753 0.16369,0.82268 0.001,0.5648 -0.19897,1.25836 -0.62442,2.04788 -0.74083,1.38253 -2.15583,3.036 -4.13738,4.82847 -2.9725,2.6924 -7.21395,5.71112 -12.36169,8.77464 -5.14843,3.06458 -11.20422,6.17714 -17.81422,9.07309 -7.4429,3.26108 -14.61099,5.81942 -20.88479,7.56003 -6.27197,1.74166 -11.65691,2.66241 -15.49185,2.66065 -1.70258,10e-4 -3.09729,-0.18309 -4.10669,-0.53305 -0.50507,-0.17427 -0.912,-0.38841 -1.21973,-0.63041 -0.30826,-0.24307 -0.51826,-0.50977 -0.65126,-0.8121 l -0.94876,0.41593 c 0.20655,0.47272 0.53812,0.87947 0.9598,1.21038 0.63419,0.49706 1.46473,0.83573 2.46309,1.05869 0.99925,0.22189 2.17153,0.32631 3.50355,0.32667 3.99369,-10e-4 9.43733,-0.94298 15.76878,-2.6984 6.32918,-1.75648 13.5389,-4.33035 21.02344,-7.60942 10.12931,-4.43829 18.96639,-9.38036 25.29346,-13.91673 3.16406,-2.26977 5.70054,-4.43583 7.46584,-6.40609 0.88229,-0.98601 1.57303,-1.92334 2.05105,-2.81199 0.47625,-0.8883 0.74612,-1.7332 0.74753,-2.53824 3.5e-4,-0.43215 -0.0808,-0.8516 -0.25082,-1.23825 l -0.94862,0.41557"
       style="fill:#b6b0c0;fill-opacity:1;fill-rule:nonzero;stroke:none;stroke-width:0.0352778"
       id="path5845" /><path
       d="m 312.88251,102.58495 c 0.10302,0.2353 0.15523,0.49036 0.15558,0.78105 10e-4,0.53799 -0.19015,1.20297 -0.59902,1.96215 -0.71261,1.32997 -2.0768,2.92488 -3.98886,4.65455 -2.86843,2.59786 -6.96312,5.51216 -11.93341,8.4702 -4.97064,2.95874 -10.81828,5.96441 -17.20109,8.76053 -7.18644,3.14889 -14.10829,5.61904 -20.16584,7.30003 -6.05518,1.68134 -11.25411,2.56999 -14.95263,2.56857 -1.64193,0.001 -2.98577,-0.17674 -3.95524,-0.51329 -0.48507,-0.16721 -0.87478,-0.37253 -1.16829,-0.6036 -0.29394,-0.23213 -0.49294,-0.48507 -0.61902,-0.77152 l -0.9773,0.42827 c 0.202,0.46214 0.52599,0.85972 0.9368,1.1818 0.61817,0.48472 1.42473,0.8128 2.39212,1.0287 0.96834,0.2152 2.10276,0.31609 3.39093,0.31644 3.86211,-0.001 9.12139,-0.91122 15.23803,-2.60738 6.11469,-1.69686 13.07888,-4.18324 20.30871,-7.35047 9.78464,-4.28731 18.32081,-9.06075 24.43409,-13.44401 3.05682,-2.19287 5.50828,-4.28625 7.21537,-6.19161 0.85337,-0.95391 1.52188,-1.86055 1.98543,-2.72203 0.46179,-0.86113 0.72461,-1.68204 0.72602,-2.46733 3.5e-4,-0.42121 -0.079,-0.83114 -0.24483,-1.20932 l -0.97755,0.42827"
       style="fill:#908f9c;fill-opacity:1;fill-rule:nonzero;stroke:none;stroke-width:0.0352778"
       id="path5847" /><path
       d="m 311.53279,103.17656 c 0.097,0.22225 0.1464,0.4632 0.14675,0.73942 0.001,0.51082 -0.18062,1.14724 -0.57361,1.87643 -0.68404,1.2767 -1.99743,2.8134 -3.84034,4.48028 -2.76402,2.50366 -6.71231,5.31354 -11.50515,8.1661 -4.79319,2.85326 -10.43234,5.75169 -16.58761,8.44832 -6.93067,3.03671 -13.60593,5.41902 -19.44652,7.03968 -5.83897,1.62137 -10.85159,2.47791 -14.41394,2.47615 -1.58132,0.001 -2.87418,-0.17039 -3.80383,-0.49283 -0.46506,-0.16052 -0.83756,-0.35701 -1.11675,-0.57715 -0.27986,-0.22084 -0.46771,-0.46002 -0.58691,-0.7306 l -1.00567,0.44062 c 0.19717,0.4512 0.51372,0.83926 0.91391,1.15323 0.60191,0.47166 1.38465,0.78952 2.32117,0.99871 0.93719,0.20814 2.03369,0.30586 3.27808,0.30621 3.73063,-0.002 8.80537,-0.88018 14.70745,-2.51636 5.89986,-1.63724 12.61851,-4.03613 19.59363,-7.09189 9.43963,-4.13632 17.67523,-8.74148 23.57438,-12.97129 2.95028,-2.11631 5.31636,-4.13632 6.9656,-5.97747 0.82444,-0.9211 1.47073,-1.79775 1.91981,-2.63207 0.44697,-0.83397 0.70274,-1.63089 0.7045,-2.39607 3.5e-4,-0.41063 -0.0773,-0.81103 -0.23918,-1.18004 l -1.00577,0.44062"
       style="fill:#b6b0c0;fill-opacity:1;fill-rule:nonzero;stroke:none;stroke-width:0.0352778"
       id="path5849" /><path
       d="m 310.18235,103.76782 c 0.0917,0.20955 0.13829,0.43673 0.13864,0.69814 0.001,0.48401 -0.17145,1.09185 -0.54821,1.7907 -0.65546,1.22414 -1.91841,2.70263 -3.69182,4.30601 -2.65995,2.40947 -6.46148,5.11528 -11.07652,7.86201 -4.61574,2.74743 -10.04676,5.53861 -15.97448,8.13576 -6.67491,2.92452 -13.10323,5.21899 -18.72757,6.77933 -5.62239,1.56139 -10.44885,2.38583 -13.87478,2.38407 -1.52069,0.001 -2.76282,-0.16404 -3.65249,-0.47272 -0.4451,-0.15381 -0.80038,-0.34149 -1.06549,-0.55034 -0.26557,-0.20955 -0.44235,-0.43532 -0.55467,-0.69003 l -1.0341,0.45297 c 0.19254,0.44097 0.50161,0.8195 0.8909,1.12465 0.58597,0.45897 1.34483,0.76659 2.25034,0.96873 0.90635,0.20144 1.96497,0.29563 3.16551,0.29598 3.599,-0.002 8.48938,-0.84843 14.17641,-2.42535 5.68501,-1.57762 12.15849,-3.88867 18.8789,-6.83295 9.09497,-3.98533 17.02965,-8.42222 22.71501,-12.49821 2.84304,-2.03976 5.1241,-3.98674 6.71513,-5.76298 0.79587,-0.889 1.41993,-1.73531 1.8542,-2.54247 0.4325,-0.8068 0.68121,-1.57938 0.68262,-2.32516 3.6e-4,-0.39969 -0.0748,-0.79057 -0.23318,-1.15111 l -1.03399,0.45297"
       style="fill:#908f9c;fill-opacity:1;fill-rule:nonzero;stroke:none;stroke-width:0.0352778"
       id="path5851" /><path
       d="m 308.83227,104.35942 c 0.0857,0.1965 0.12982,0.40958 0.13018,0.65688 0.001,0.45684 -0.16263,1.03575 -0.52282,1.70462 -0.62724,1.17122 -1.83938,2.59115 -3.5433,4.13209 -2.55587,2.31492 -6.21065,4.91666 -10.6486,7.55755 -4.43794,2.64196 -9.66046,5.32624 -15.361,7.82356 -6.41879,2.81234 -12.60052,5.01861 -18.00825,6.51898 -5.40597,1.50142 -10.04626,2.29341 -13.33578,2.292 -1.46014,0.001 -2.65147,-0.15805 -3.50118,-0.45297 -0.42523,-0.14676 -0.76316,-0.32561 -1.01395,-0.52317 -0.25149,-0.19861 -0.41712,-0.41063 -0.52253,-0.64982 l -1.06264,0.46567 c 0.18785,0.43004 0.48948,0.79904 0.86804,1.09573 0.56967,0.44626 1.30486,0.74365 2.17936,0.93909 0.87549,0.19438 1.89604,0.28505 3.0529,0.2854 3.46742,-0.002 8.17358,-0.81703 13.64587,-2.33398 5.47017,-1.518 11.69811,-3.74156 18.16347,-6.57437 8.7503,-3.83399 16.38441,-8.1026 21.85565,-12.02549 2.73614,-1.96285 4.93183,-3.83716 6.46535,-5.54848 0.76659,-0.85655 1.36878,-1.67288 1.78824,-2.45252 0.41768,-0.77963 0.65969,-1.52823 0.6611,-2.25389 3.5e-4,-0.38947 -0.073,-0.77047 -0.22754,-1.12219 l -1.06257,0.46531"
       style="fill:#b6b0c0;fill-opacity:1;fill-rule:nonzero;stroke:none;stroke-width:0.0352778"
       id="path5853" /><path
       d="m 307.48219,104.95068 c 0.0801,0.18344 0.12136,0.38276 0.12171,0.61524 0.002,0.42969 -0.15346,0.98037 -0.49742,1.6189 -0.59866,1.11866 -1.76036,2.48038 -3.39478,3.95817 -2.45145,2.22073 -5.95983,4.71805 -10.21997,7.25346 -4.26085,2.53648 -9.27488,5.11352 -14.74788,7.51135 -6.16267,2.70016 -12.09781,4.81824 -17.28928,6.25863 -5.18936,1.4411 -9.64354,2.20098 -12.79688,2.19922 -1.3994,0.001 -2.53986,-0.15135 -3.34973,-0.43251 -0.4053,-0.14005 -0.72594,-0.31009 -0.96259,-0.49636 -0.23728,-0.18768 -0.3919,-0.38594 -0.49029,-0.60925 l -1.091,0.47802 c 0.18316,0.41945 0.47738,0.77928 0.84501,1.0675 0.55372,0.43357 1.26492,0.72038 2.10841,0.90911 0.84459,0.18733 1.82728,0.27446 2.94019,0.27482 3.33594,-0.002 7.85763,-0.78564 13.11508,-2.24296 5.25533,-1.45839 11.23809,-3.59446 17.44874,-6.31508 8.40564,-3.68335 15.73848,-7.78334 20.99593,-11.55312 2.62925,-1.88595 4.73992,-3.68723 6.21524,-5.33435 0.73766,-0.82409 1.31798,-1.61008 1.72296,-2.36291 0.40288,-0.75212 0.63783,-1.47673 0.63924,-2.18264 7e-4,-0.37853 -0.0709,-0.75035 -0.22155,-1.09325 l -1.09114,0.47801"
       style="fill:#908f9c;fill-opacity:1;fill-rule:nonzero;stroke:none;stroke-width:0.0352778"
       id="path5855" /><path
       d="m 305.02651,106.02665 c 0.0635,0.14535 0.096,0.30269 0.096,0.48437 0.002,0.3757 -0.14993,0.85936 -0.47837,1.41957 -0.5715,0.98108 -1.66617,2.177 -3.1951,3.48651 -4.59,3.93806 -13.06866,8.93127 -23.19726,13.36745 -5.89139,2.58128 -11.53901,4.62492 -16.41793,6.02157 -4.87715,1.397 -8.99336,2.14453 -11.78249,2.14312 -1.08303,7.1e-4 -1.96385,-0.11394 -2.5943,-0.32914 -0.31545,-0.10724 -0.56709,-0.23812 -0.75462,-0.38453 -0.18796,-0.14675 -0.31281,-0.30515 -0.39166,-0.48401 l -0.68417,0.29986 c 0.13257,0.30339 0.34642,0.56374 0.61693,0.77365 0.40721,0.31573 0.93695,0.5274 1.57318,0.6671 0.6368,0.13864 1.3837,0.2039 2.23464,0.2039 2.91521,-0.001 7.06868,-0.76482 11.98781,-2.17205 4.91737,-1.40758 10.59286,-3.46181 16.51212,-6.05508 7.75546,-3.39831 14.54538,-7.11447 19.41195,-10.46621 2.43381,-1.67675 4.38644,-3.26108 5.74534,-4.68242 0.67945,-0.7112 1.21144,-1.38183 1.58044,-2.01295 0.3676,-0.63112 0.57891,-1.22661 0.58067,-1.79634 0,-0.27305 -0.0512,-0.5387 -0.15875,-0.78423 l -0.68438,0.29986"
       style="fill:#b6b0c0;fill-opacity:1;fill-rule:nonzero;stroke:none;stroke-width:0.0352778"
       id="path5857" /><path
       d="m 303.99992,106.4768 c 0.06,0.13687 0.0907,0.28539 0.0907,0.4579 0.002,0.35666 -0.14288,0.82021 -0.45862,1.35855 -0.54962,0.94368 -1.60513,2.09762 -3.0808,3.36127 -4.42948,3.80082 -12.61675,8.62294 -22.39751,12.90637 -5.6889,2.49273 -11.14249,4.46582 -15.85313,5.81449 -4.70888,1.34902 -8.68289,2.0701 -11.37254,2.06869 -1.04425,7e-4 -1.89272,-0.11007 -2.4978,-0.31645 -0.30276,-0.10266 -0.54325,-0.22824 -0.72182,-0.36759 -0.1789,-0.1397 -0.29658,-0.28963 -0.37084,-0.45826 l -0.70475,0.30903 c 0.12968,0.29704 0.33916,0.55175 0.60318,0.75636 0.39716,0.30797 0.91211,0.51329 1.5288,0.64876 0.61722,0.13441 1.34013,0.1972 2.16323,0.19755 2.81933,-0.001 6.83193,-0.73942 11.5842,-2.09832 4.75051,-1.35996 10.23232,-3.34433 15.95015,-5.84941 7.49123,-3.2826 14.05008,-6.87176 18.75155,-10.11026 2.35126,-1.62031 4.23827,-3.15101 5.55237,-4.52543 0.65722,-0.68792 1.17193,-1.33668 1.53,-1.94839 0.35595,-0.61172 0.56232,-1.19027 0.56373,-1.74696 3.6e-4,-0.26634 -0.0497,-0.52669 -0.15522,-0.76694 l -0.70485,0.30904"
       style="fill:#908f9c;fill-opacity:1;fill-rule:nonzero;stroke:none;stroke-width:0.0352778"
       id="path5859" /><path
       d="m 302.97334,106.92624 c 0.0561,0.12876 0.0854,0.26881 0.0854,0.4318 0.002,0.3376 -0.13582,0.78105 -0.43921,1.29822 -0.5274,0.90628 -1.54375,2.01789 -2.96615,3.23568 -4.26932,3.66359 -12.16519,8.31426 -21.59777,12.44529 -5.4864,2.40383 -10.74561,4.30671 -15.28797,5.60705 -4.54061,1.30105 -8.37259,1.99602 -10.96289,1.99461 -1.00556,7e-4 -1.82178,-0.10584 -2.4014,-0.3041 -0.29005,-0.0984 -0.5195,-0.21837 -0.68901,-0.35031 -0.16975,-0.13299 -0.28028,-0.2741 -0.35027,-0.4325 l -0.72513,0.31785 c 0.12678,0.29069 0.33182,0.53975 0.58924,0.73942 0.38735,0.30022 0.88745,0.49918 1.48456,0.63042 0.59778,0.13017 1.29674,0.19085 2.09201,0.19085 2.72383,-0.001 6.5955,-0.71367 11.18055,-2.02494 4.58329,-1.31198 9.87178,-3.22651 15.38817,-5.64304 7.227,-3.16653 13.55443,-6.6294 18.09115,-9.7543 2.26906,-1.56352 4.0901,-3.0406 5.35975,-4.36845 0.63465,-0.66463 1.13242,-1.29152 1.47885,-1.88419 0.34501,-0.59231 0.54574,-1.15429 0.54751,-1.69756 3.5e-4,-0.26 -0.049,-0.51471 -0.15205,-0.74966 l -0.72531,0.31786"
       style="fill:#b6b0c0;fill-opacity:1;fill-rule:nonzero;stroke:none;stroke-width:0.0352778"
       id="path5861" /><path
       d="m 301.94676,107.37638 c 0.0526,0.1203 0.0801,0.25153 0.0801,0.40534 0.002,0.31856 -0.12842,0.74189 -0.41946,1.23755 -0.50553,0.86854 -1.48307,1.93816 -2.85185,3.11044 -4.10881,3.52566 -11.71364,8.00558 -20.79767,11.98351 -5.2839,2.31528 -10.34944,4.14831 -14.72388,5.40032 -4.37233,1.25307 -8.06217,1.92193 -10.55282,1.92052 -0.967,7.1e-4 -1.75066,-0.1023 -2.30491,-0.29175 -0.27728,-0.0938 -0.49569,-0.20849 -0.65596,-0.33337 -0.16083,-0.12594 -0.26416,-0.25823 -0.32963,-0.4064 l -0.74581,0.32667 c 0.12404,0.28434 0.3247,0.52776 0.57535,0.72214 0.37743,0.29245 0.86264,0.48507 1.44032,0.61207 0.57838,0.12594 1.25321,0.1845 2.02064,0.1845 2.62802,-0.001 6.35864,-0.68792 10.77718,-1.95157 4.41608,-1.26435 9.5116,-3.10867 14.8262,-5.43736 6.96277,-3.05082 13.05877,-6.38669 17.43075,-9.39835 2.18651,-1.50637 3.94194,-2.93018 5.16678,-4.21111 0.61242,-0.641 1.09291,-1.24637 1.4284,-1.81963 0.33337,-0.57291 0.52881,-1.11795 0.53058,-1.64818 3.5e-4,-0.25365 -0.0476,-0.50271 -0.14852,-0.73236 l -0.74577,0.32702"
       style="fill:#908f9c;fill-opacity:1;fill-rule:nonzero;stroke:none;stroke-width:0.0352778"
       id="path5863" /><path
       d="m 300.92017,107.82582 c 0.049,0.11254 0.0748,0.2346 0.0751,0.37959 10e-4,0.29915 -0.1217,0.70238 -0.40005,1.17651 -0.48365,0.8315 -1.42204,1.85914 -2.73755,2.98521 -1.97309,1.69227 -4.79037,3.6195 -8.20385,5.59788 -3.41418,1.97873 -7.42527,4.01073 -11.79407,5.9249 -5.08141,2.22638 -9.95256,3.98886 -14.15873,5.19289 -4.20406,1.20473 -7.75194,1.8475 -10.14307,1.84573 -0.92823,0.001 -1.67982,-0.0981 -2.20857,-0.27869 -0.26458,-0.09 -0.47198,-0.19897 -0.62329,-0.3168 -0.15158,-0.11853 -0.24793,-0.24236 -0.30896,-0.38064 l -0.7662,0.33584 c 0.12129,0.27799 0.31722,0.51576 0.56141,0.70485 0.36767,0.28504 0.83813,0.47131 1.39623,0.59372 0.55894,0.12207 1.20978,0.17816 1.94938,0.17851 2.53224,-0.002 6.1221,-0.66252 10.37343,-1.87819 4.24921,-1.21673 9.15106,-2.9912 14.26386,-5.23099 6.69855,-2.93511 12.56348,-6.14468 16.77071,-9.0424 2.10432,-1.44992 3.79377,-2.8201 4.97381,-4.05447 0.5902,-0.61772 1.05375,-1.20121 1.3776,-1.75507 0.32244,-0.55386 0.51259,-1.08197 0.51435,-1.59879 3.5e-4,-0.2473 -0.0466,-0.49072 -0.14534,-0.71544 l -0.76624,0.33585"
       style="fill:#b6b0c0;fill-opacity:1;fill-rule:nonzero;stroke:none;stroke-width:0.0352778"
       id="path5865" /><path
       d="m 299.89394,108.27561 c 0.0452,0.10442 0.0692,0.21766 0.0695,0.35348 0.002,0.28011 -0.11465,0.66323 -0.3803,1.11584 -0.46178,0.79375 -1.36137,1.77941 -2.62325,2.85962 -1.89265,1.62348 -4.5974,3.4738 -7.87436,5.3728 -3.27765,1.89971 -7.12928,3.85093 -11.32381,5.68855 -4.87892,2.13783 -9.55604,3.8301 -13.59394,4.9858 -4.03578,1.15676 -7.44185,1.77342 -9.73349,1.77201 -0.88939,7e-4 -1.6086,-0.0942 -2.11184,-0.26635 -0.25177,-0.0854 -0.44827,-0.18909 -0.59037,-0.29986 -0.14263,-0.11148 -0.23177,-0.22649 -0.28843,-0.35454 l -0.78669,0.34466 c 0.11849,0.27129 0.31019,0.50377 0.54761,0.68792 0.35775,0.27693 0.81333,0.45684 1.35185,0.57502 0.53936,0.11748 1.16624,0.17181 1.87787,0.17181 2.43663,-10e-4 5.88539,-0.63677 9.96985,-1.80481 4.08199,-1.16876 8.79087,-2.87303 13.70224,-5.02497 6.43432,-2.8194 12.06783,-5.90197 16.11031,-8.68645 2.02177,-1.39312 3.6456,-2.70968 4.78084,-3.89678 0.56798,-0.59443 1.01424,-1.15641 1.32715,-1.69087 0.3108,-0.53445 0.49566,-1.04598 0.49742,-1.5494 3.5e-4,-0.24094 -0.0452,-0.47872 -0.14146,-0.69814 l -0.7867,0.34466"
       style="fill:#908f9c;fill-opacity:1;fill-rule:nonzero;stroke:none;stroke-width:0.0352778"
       id="path5867" /></g></svg>
