<?xml version="1.0" encoding="UTF-8" standalone="no"?>
<!-- Created with Inkscape (http://www.inkscape.org/) -->

<svg
   width="41.065098mm"
   height="41.065098mm"
   viewBox="0 0 41.065098 41.065098"
   version="1.1"
   id="svg5"
   xml:space="preserve"
   xmlns:inkscape="http://www.inkscape.org/namespaces/inkscape"
   xmlns:sodipodi="http://sodipodi.sourceforge.net/DTD/sodipodi-0.dtd"
   xmlns="http://www.w3.org/2000/svg"
   xmlns:svg="http://www.w3.org/2000/svg"><sodipodi:namedview
     id="namedview7"
     pagecolor="#ffffff"
     bordercolor="#666666"
     borderopacity="1.0"
     inkscape:showpageshadow="2"
     inkscape:pageopacity="0.0"
     inkscape:pagecheckerboard="0"
     inkscape:deskcolor="#d1d1d1"
     inkscape:document-units="mm"
     showgrid="false" /><defs
     id="defs2"><clipPath
       clipPathUnits="userSpaceOnUse"
       id="clipPath5875"><path
         d="m 4138.48,1596.37 c 0,-321.44 -260.58,-582.02 -582.02,-582.02 -321.44,0 -582.03,260.58 -582.03,582.02 0,321.45 260.59,582.03 582.03,582.03 321.44,0 582.02,-260.58 582.02,-582.03"
         id="path5873" /></clipPath></defs><g
     id="g8474"
     transform="translate(-324.93131,-99.539777)"><g
       id="g5869"
       transform="matrix(0.03527778,0,0,-0.03527778,220,176.38889)"><g
         id="g5871"
         clip-path="url(#clipPath5875)"><path
           d="m 4138.48,1596.37 c 0,-321.44 -260.58,-582.02 -582.02,-582.02 -321.44,0 -582.03,260.58 -582.03,582.02 0,321.45 260.59,582.03 582.03,582.03 321.44,0 582.02,-260.58 582.02,-582.03"
           style="fill:#3a69bb;fill-opacity:1;fill-rule:nonzero;stroke:none"
           id="path5877" /><path
           d="m 2858.25,1427.69 c 52.8,72.4 108.53,147.38 188.3,188.23 22.43,11.49 47.75,20.15 72.58,15.79 45.75,-8.04 71.92,-54.7 104.1,-88.2 34.26,-35.66 79.36,-58.54 123.54,-80.75 53.15,-26.72 106.3,-53.44 159.46,-80.16 42.56,-21.4 86.72,-43.23 134.3,-45.62 87.14,-4.37 162.13,55.67 234.92,103.78 65.79,43.48 136.59,79.37 210.54,106.75 38.75,14.33 88.64,23.82 116.06,-7.08 8.89,-10.03 13.94,-23.18 23.63,-32.45 26.7,-25.51 70.61,-9.5 102.31,9.46 88.87,53.13 169.25,120.44 237.18,198.58 34.03,39.14 66.38,94.07 41.81,139.75 -10.88,20.21 -31.17,33.76 -52.28,42.8 -88.84,38.11 -193.41,7.05 -274.8,-45.09 -81.41,-52.13 -148.63,-123.83 -228.67,-178.04 4.96,35.16 9.92,70.33 14.89,105.5 1.26,8.94 2.32,18.8 -2.67,26.32 -9.03,13.59 -29.79,9.87 -44.78,3.41 -66.47,-28.59 -120.75,-78.87 -175.34,-126.36 -54.61,-47.49 -113.12,-94.26 -182.91,-113.35 -69.81,-19.07 -153.92,-3.61 -196.56,54.87 -36.6,50.2 -43.67,128.79 -101.8,150.73 -55.02,20.78 -110.53,-26.92 -168.18,-38.53 -32.65,-6.58 -66.91,-1.47 -100.81,3.64 -45.02,6.79 -89.42,13.59 -128.56,-7.02 -60.17,-31.67 -74.12,-110.26 -79.55,-178.03 l -26.71,-128.93"
           style="fill:#3581cc;fill-opacity:1;fill-rule:nonzero;stroke:none"
           id="path5879" /><path
           d="m 3312.91,1915.62 c 32.46,13.4 71.72,23.94 100.85,4.34 13.85,-9.32 22.95,-24.13 30.36,-39.09 19.59,-39.63 30.12,-83.17 48.58,-123.33 18.46,-40.17 47.47,-78.7 89.27,-93.09 58.54,-20.17 122.72,13.06 167.06,56.29 44.33,43.22 78.09,97.31 127.4,134.76 12.44,9.44 26.34,17.93 41.84,19.83 25.07,3.07 48.55,-11.39 73.09,-17.34 42.49,-10.32 87.93,5.76 122.66,32.32 34.73,26.57 60.68,62.71 86.1,98.27 25.76,36.04 51.05,87.86 20.95,120.36 -23.21,25.07 -64.04,19.18 -96.24,7.79 -57.56,-20.37 -111.07,-52.11 -156.53,-92.87 -41.57,-37.26 -77.84,-82.91 -128.84,-105.65 -37.27,-16.62 -80.41,-19.91 -114.36,-42.58 -27.76,-18.52 -48.9,-49.59 -81.64,-56.09 -6.52,-1.29 -13.53,-1.45 -19.56,1.38 -6.88,3.22 -11.5,9.86 -15.05,16.59 -30.2,57.23 -4.67,134.81 -43.03,186.94 -28.73,39.05 -83.91,48.69 -131.92,41.95 -48.01,-6.73 -93.46,-26.37 -141.39,-33.59 -41.33,-6.21 -84.23,-3.16 -124.19,-15.43 -58.01,-17.8 -99.74,-63.57 -146.36,-99.68 -29.96,-23.21 -117.29,-45.37 -105.31,-81.63 40.62,-122.99 336.71,54.98 396.26,79.55"
           style="fill:#3581cc;fill-opacity:1;fill-rule:nonzero;stroke:none"
           id="path5881" /><path
           d="m 3605.85,2052.62 c 53.43,-68.23 159.66,-74.46 237.47,-36.3 77.81,38.17 133.06,109.89 182.48,181.08 -104.57,-8.95 -202.85,-73.85 -306.94,-60.29 -47.49,6.19 -91.16,28.39 -134.03,49.72 -43.47,21.63 -103.68,55.22 -153.21,44.94 28.59,-27.33 73.28,-27.3 102.75,-57.87 33.08,-34.29 42.39,-84.16 71.48,-121.28"
           style="fill:#3581cc;fill-opacity:1;fill-rule:nonzero;stroke:none"
           id="path5883" /><path
           d="m 2939.35,1317.2 c 45.95,71.26 121.27,131.68 206.04,129.25 104.85,-3 181.89,-95.89 275.43,-143.38 90.47,-45.91 198.14,-48.43 297.18,-26.44 99.05,22 191.35,66.8 281.88,112.6 34.97,17.69 72.64,36.1 111.47,30.89 22.55,-3.02 43.29,-13.87 62.49,-26.06 42.15,-26.73 79.59,-60.85 110.12,-100.32 9.06,-11.72 17.54,-28.63 8.31,-40.21 -6.69,-8.38 -19.05,-8.79 -29.76,-8.48 -84.02,2.42 -168.03,4.84 -252.04,7.25 -86.13,2.48 -174.06,4.74 -256.47,-20.43 -92.82,-28.36 -182.74,-91.39 -277.8,-71.84 -27.8,5.72 -53.61,18.33 -79.31,30.36 -68.25,31.94 -138.07,60.57 -209.09,85.76 -54.68,19.38 -112.23,36.94 -169.81,29.87 -57.57,-7.08 -115.18,-45.21 -127.21,-101.96"
           style="fill:#3581cc;fill-opacity:1;fill-rule:nonzero;stroke:none"
           id="path5885" /><path
           d="m 3016.82,1165.91 c 29.01,19.96 67.06,19.87 102.06,16.07 161.11,-17.5 316.32,-97.55 477.3,-78.96 120.71,13.95 228.22,82.02 345.98,112.02 19.99,5.09 44.54,7.78 58.16,-7.71 9.9,-11.26 9.89,-28.14 6.79,-42.82 -17.77,-84 -109.08,-128.65 -191.84,-151.5 -255.91,-70.651 -536.51,-47.908 -777.72,63.03 -36.4,16.75 -72.78,36.07 -99.51,65.93"
           style="fill:#3581cc;fill-opacity:1;fill-rule:nonzero;stroke:none"
           id="path5887" /><path
           d="m 2858.39,1797.08 c 143.85,163.14 388.27,229.17 594.69,160.65 39.33,-13.05 78.14,-31.15 106.97,-60.91 20.06,-20.7 34.5,-46.22 53.73,-67.7 19.21,-21.49 45.8,-39.51 74.56,-37.56 20.68,1.4 39.19,12.85 56.17,24.74 82.94,58.09 152.12,134.39 236.62,190.17 84.51,55.79 193.93,89.5 287.16,49.97 -172.23,-98.97 -344.46,-197.95 -516.68,-296.91 -56.48,-32.45 -121.09,-66.06 -183.69,-48.09 -51.69,14.84 -86.93,60.82 -126.05,97.72 -63.83,60.2 -147.31,100.74 -234.81,107.22 -87.5,6.5 -178.3,-22.63 -241.51,-83.49 l -107.16,-35.81"
           style="fill:#21aae8;fill-opacity:1;fill-rule:nonzero;stroke:none"
           id="path5889" /><path
           d="m 2892.76,1547.15 c 68.07,64.43 141.45,131.36 225.04,135.48 107.35,5.29 199.69,-92.99 300.13,-143.46 139.75,-70.23 297.33,-46.4 439.93,12.94 142.6,59.33 275.86,152.22 415.73,222.05 13.73,6.85 28.28,13.59 42.76,10.45 14.49,-3.14 28.37,-19.85 26.77,-39.16 -0.75,-9.02 -4.62,-17 -8.6,-24.37 -41.05,-75.99 -104.19,-125.55 -168.29,-164.53 -216.41,-131.66 -465.96,-165.4 -697.99,-94.39 -121.95,37.34 -239.93,102.77 -364.8,114.27 -98.34,9.07 -204.99,-21.3 -271.74,-117.4 l 61.06,88.12"
           style="fill:#21aae8;fill-opacity:1;fill-rule:nonzero;stroke:none"
           id="path5891" /><path
           d="m 3535.8,1310.12 c 98.77,-24.91 201.21,-46.47 301.86,-30.87 159.87,24.78 295.89,140.15 456.62,158.53 3.36,-11.65 -7.98,-21.92 -18.12,-28.59 -216.74,-142.64 -486.55,-190.12 -745.19,-169.35 -95.45,7.67 -189.95,24.18 -285.42,31.62 -47.43,3.69 -95.17,5.54 -142.7,2.55 -31.8,-2 -69.61,-20.66 -60.76,19.1 14.85,66.81 164.26,70.03 213.27,69.06 95.54,-1.89 188.44,-28.85 280.44,-52.05"
           style="fill:#21aae8;fill-opacity:1;fill-rule:nonzero;stroke:none"
           id="path5893" /><path
           d="m 3029.52,1086.03 c 74.87,42.53 160.87,65.28 246.97,65.32 104.26,0.07 205.37,-32.19 306.82,-56.24 101.44,-24.05 209.56,-39.76 308.63,-7.32 87.48,28.64 159.11,91.97 242.52,130.91 23.87,11.14 51.81,20.25 75.96,9.72 -32.69,-76.91 -104.57,-132.04 -182.81,-161.41 -78.23,-29.38 -163,-35.95 -246.53,-38.71 -212.64,-7.02 -425.25,8.83 -637.86,16.48 -39.04,1.41 -78.9,2.43 -116.33,-8.76 -37.43,-11.19 -72.68,-36.829 -85.31,-73.809"
           style="fill:#21aae8;fill-opacity:1;fill-rule:nonzero;stroke:none"
           id="path5895" /><path
           d="m 3088.11,2052.02 c 103.61,40.91 215.1,82.55 323.76,57.97 53.49,-12.11 102.06,-39.57 153.35,-59 189.69,-71.82 419.4,-22.38 562.74,121.13 -235.37,-29.25 -476.45,-58.26 -707.67,-5.49 -70.86,16.17 -142.22,40.09 -214.44,32.05 -72.4,-8.07 -140.29,-50.05 -179.85,-111.21 l 62.11,-35.45"
           style="fill:#21aae8;fill-opacity:1;fill-rule:nonzero;stroke:none"
           id="path5897" /></g></g><path
       d="m 343.22352,120.06474 c -0.38735,-0.28822 -0.73413,-0.63112 -1.02623,-1.03152 -1.29117,-1.77095 -1.54058,-4.54343 -3.59128,-5.31742 -0.34007,-0.12841 -0.68051,-0.18274 -1.02164,-0.18274 -1.60761,0 -3.23356,1.20438 -4.91137,1.54199 -0.38982,0.0787 -0.7867,0.11007 -1.1871,0.11007 -0.78176,0 -1.57833,-0.11924 -2.36926,-0.23848 -0.7366,-0.11113 -1.46896,-0.22225 -2.17981,-0.23707 0.21484,-0.63041 0.49918,-1.2834 0.83608,-1.94239 2.86032,-0.76412 6.22794,-2.54529 8.07685,-3.47134 2.07151,0.63183 3.99239,1.78012 5.57177,3.2699 0.59161,0.5581 1.15817,1.17475 1.75578,1.73884 0.0123,0.0275 0.0247,0.055 0.0374,0.0822 0.65123,1.41711 1.67464,2.77636 3.14925,3.28401 0.4258,0.14675 0.85972,0.21308 1.29469,0.21308 0.26212,0 0.52458,-0.024 0.78564,-0.0695 -0.5902,0.42016 -1.21285,0.79657 -1.87113,1.11901 -0.99731,0.48789 -2.13431,0.85549 -3.34963,1.13136 m 5.01227,-7.83378 c -0.13582,0 -0.26988,-0.0226 -0.39264,-0.0801 -0.24271,-0.11359 -0.4057,-0.34783 -0.53093,-0.58525 -1.06539,-2.01895 -0.16475,-4.7558 -1.51801,-6.59483 -0.81985,-1.11443 -2.25001,-1.54975 -3.66324,-1.54975 -0.33373,0 -0.66675,0.0243 -0.9906,0.0698 -1.69369,0.23741 -3.29706,0.93027 -4.98793,1.18498 -0.73307,0.11006 -1.48025,0.13793 -2.22109,0.19297 0.96097,-0.87137 1.85773,-1.536 2.57352,-1.89019 0.97437,-0.48295 2.05352,-0.86325 3.19722,-1.15217 0.22084,0.0349 0.44098,0.0769 0.66111,0.12665 1.88701,0.42721 3.60045,1.39594 5.40985,2.08139 0.68862,0.2607 1.39312,0.47625 2.10643,0.64734 1.11266,0.95815 2.6035,1.39947 4.12786,1.39983 1.23049,0 2.48285,-0.28787 3.57646,-0.82409 0.35313,-0.17357 0.69356,-0.36654 1.02164,-0.57644 0.13794,-0.0318 0.27517,-0.0653 0.41205,-0.0998 0.0681,0.18803 0.11606,0.38665 0.1404,0.5962 0.12841,1.10878 -0.46884,2.15759 -1.04422,3.11397 -0.0254,0.042 -0.0508,0.0843 -0.0762,0.12664 -0.19085,0.10936 -0.387,0.21026 -0.58984,0.30057 -1.31481,0.58632 -2.83669,0.70238 -4.03437,1.50213 -0.97931,0.65334 -1.72509,1.74942 -2.88008,1.97873 -0.0974,0.0194 -0.19791,0.0314 -0.29739,0.0314"
       style="fill:#4580ca;fill-opacity:1;fill-rule:nonzero;stroke:none;stroke-width:0.0352778"
       id="path5899" /><path
       d="m 338.28146,120.73396 c -2.61021,-1.7085 -5.15903,-3.71193 -7.99818,-3.71193 -0.0977,0 -0.19579,0.002 -0.29422,0.007 -1.18216,0.0582 -2.30611,0.47237 -3.38349,1.09432 -0.25118,-0.97755 -0.0981,-2.15301 0.33126,-3.41419 0.71085,0.0148 1.44321,0.12594 2.17981,0.23707 0.79093,0.11924 1.5875,0.23848 2.36926,0.23848 0.4004,0 0.79728,-0.0314 1.1871,-0.11007 1.67781,-0.33761 3.30376,-1.54199 4.91137,-1.54199 0.34113,0 0.68157,0.0543 1.02164,0.18274 2.0507,0.77399 2.30011,3.54647 3.59128,5.31742 0.2921,0.4004 0.63888,0.7433 1.02623,1.03152 -1.56139,0.35454 -3.25332,0.55774 -4.94206,0.66922"
       style="fill:#3ea5e2;fill-opacity:1;fill-rule:nonzero;stroke:none;stroke-width:0.0352778"
       id="path5901" /><path
       d="m 347.65864,117.88387 c -0.43497,0 -0.86889,-0.0663 -1.29469,-0.21308 -1.47461,-0.50765 -2.49802,-1.8669 -3.14925,-3.28401 -0.0127,-0.0272 -0.0251,-0.0547 -0.0374,-0.0822 0.79657,0.75177 1.64888,1.40935 2.69099,1.70851 0.42686,0.12241 0.85619,0.17709 1.28622,0.17709 1.60232,0 3.20534,-0.75882 4.67537,-1.57939 -1.01,1.20545 -2.12478,2.30541 -3.38561,3.20358 -0.26106,0.0455 -0.52352,0.0695 -0.78564,0.0695 m 2.30647,-4.69195 c -0.95639,0 -1.8348,-0.6103 -2.47897,-1.33032 -0.6784,-0.75777 -1.18781,-1.65806 -1.89548,-2.38831 -1.01706,-1.04987 -2.38619,-1.68839 -3.77366,-2.14877 -1.92546,-0.63923 -3.943,-0.94615 -5.96548,-0.94615 -1.26682,0 -2.53435,0.1203 -3.78142,0.3556 0.62653,-0.6865 1.25624,-1.31657 1.86125,-1.86513 0.74084,-0.055 1.48802,-0.0829 2.22109,-0.19297 1.69087,-0.25471 3.29424,-0.94757 4.98793,-1.18498 0.32385,-0.0455 0.65687,-0.0698 0.9906,-0.0698 1.41323,0 2.84339,0.43532 3.66324,1.54975 1.35326,1.83903 0.45262,4.57588 1.51801,6.59483 0.12523,0.23742 0.28822,0.47166 0.53093,0.58525 0.12276,0.0575 0.25682,0.0801 0.39264,0.0801 0.0995,0 0.20002,-0.012 0.29739,-0.0314 1.15499,-0.22931 1.90077,-1.32539 2.88008,-1.97873 1.19768,-0.79975 2.71956,-0.91581 4.03437,-1.50213 0.20284,-0.0903 0.39899,-0.19121 0.58984,-0.30057 -0.29386,0.48789 -0.59302,0.98249 -0.89994,1.47885 -0.98213,0.84666 -1.97873,1.67393 -3.03953,2.41688 -0.59902,0.41945 -1.25201,0.82338 -1.98155,0.87277 -0.0508,0.004 -0.10125,0.005 -0.15134,0.005 m -22.1922,-0.42474 c 0.65723,-1.28552 1.51624,-2.59786 2.45922,-3.83293 0.67804,-0.12101 1.36701,-0.18274 2.05563,-0.18274 0.28364,0 0.56762,0.0106 0.8502,0.0318 0.92145,0.0681 1.83021,0.24341 2.7118,0.51258 -1.84891,0.92605 -5.21653,2.70722 -8.07685,3.47134"
       style="fill:#3ea5e2;fill-opacity:1;fill-rule:nonzero;stroke:none;stroke-width:0.0352778"
       id="path5903" /><path
       d="m 352.00734,106.08169 c -1.52436,-3.6e-4 -3.0152,-0.44168 -4.12786,-1.39983 1.41323,0.33902 2.86597,0.50448 4.32047,0.50448 1.47991,0 2.96122,-0.17145 4.40549,-0.50518 -0.32808,0.2099 -0.66851,0.40287 -1.02164,0.57644 -1.09361,0.53622 -2.34597,0.82409 -3.57646,0.82409"
       style="fill:#3ea5e2;fill-opacity:1;fill-rule:nonzero;stroke:none;stroke-width:0.0352778"
       id="path5905" /><path
       d="m 347.15452,116.19018 c -0.43003,0 -0.85936,-0.0547 -1.28622,-0.17709 -1.04211,-0.29916 -1.89442,-0.95674 -2.69099,-1.70851 -0.59761,-0.56409 -1.16417,-1.18074 -1.75578,-1.73884 -1.57938,-1.48978 -3.50026,-2.63807 -5.57177,-3.2699 -0.88159,-0.26917 -1.79035,-0.4445 -2.7118,-0.51258 -0.28258,-0.0212 -0.56656,-0.0318 -0.8502,-0.0318 -0.68862,0 -1.37759,0.0617 -2.05563,0.18274 0.58949,-0.77223 1.21214,-1.51448 1.83797,-2.20028 1.24707,-0.2353 2.5146,-0.3556 3.78142,-0.3556 2.02248,0 4.04002,0.30692 5.96548,0.94615 1.38747,0.46038 2.7566,1.0989 3.77366,2.14877 0.70767,0.73025 1.21708,1.63054 1.89548,2.38831 0.64417,0.72002 1.52258,1.33032 2.47897,1.33032 0.0501,0 0.10054,-0.002 0.15134,-0.005 0.72954,-0.0494 1.38253,-0.45332 1.98155,-0.87277 1.0608,-0.74295 2.0574,-1.57022 3.03953,-2.41688 -0.99695,1.61254 -2.07398,3.24167 -3.30764,4.71381 -1.47003,0.82057 -3.07305,1.57939 -4.67537,1.57939"
       style="fill:#1ab5ed;fill-opacity:1;fill-rule:nonzero;stroke:none;stroke-width:0.0352778"
       id="path5907" /><path
       d="m 334.0393,120.85849 c -0.85795,0 -1.68204,-0.0116 -2.45321,-0.0251 -3.09492,-0.0547 -4.57236,-1.12007 -4.98052,-2.70968 1.07738,-0.62195 2.20133,-1.03611 3.38349,-1.09432 0.0984,-0.005 0.1965,-0.007 0.29422,-0.007 2.83915,0 5.38797,2.00343 7.99818,3.71193 -1.44286,0.0956 -2.88396,0.12453 -4.24216,0.12453"
       style="fill:#1ab5ed;fill-opacity:1;fill-rule:nonzero;stroke:none;stroke-width:0.0352778"
       id="path5909" /><path
       d="m 352.19995,105.18634 c -1.4545,0 -2.90724,-0.16546 -4.32047,-0.50448 -0.71331,-0.17109 -1.41781,-0.38664 -2.10643,-0.64734 -1.8094,-0.68545 -3.52284,-1.65418 -5.40985,-2.08139 -0.22013,-0.0497 -0.44027,-0.0917 -0.66111,-0.12665 1.99249,-0.50306 4.18042,-0.72778 6.35036,-0.72778 2.47226,0 4.92089,0.29139 7.03192,0.79375 1.60655,0.38276 3.39866,1.21497 3.93312,2.68887 -0.13688,0.0346 -0.27411,0.0681 -0.41205,0.0998 -1.44427,0.33373 -2.92558,0.50518 -4.40549,0.50518"
       style="fill:#1ab5ed;fill-opacity:1;fill-rule:nonzero;stroke:none;stroke-width:0.0352778"
       id="path5911" /></g></svg>
