<?xml version="1.0" encoding="UTF-8" standalone="no"?>
<!-- Created with Inkscape (http://www.inkscape.org/) -->

<svg
   width="41.064739mm"
   height="41.065098mm"
   viewBox="0 0 41.064739 41.065098"
   version="1.1"
   id="svg5"
   xml:space="preserve"
   xmlns:inkscape="http://www.inkscape.org/namespaces/inkscape"
   xmlns:sodipodi="http://sodipodi.sourceforge.net/DTD/sodipodi-0.dtd"
   xmlns="http://www.w3.org/2000/svg"
   xmlns:svg="http://www.w3.org/2000/svg"><sodipodi:namedview
     id="namedview7"
     pagecolor="#ffffff"
     bordercolor="#666666"
     borderopacity="1.0"
     inkscape:showpageshadow="2"
     inkscape:pageopacity="0.0"
     inkscape:pagecheckerboard="0"
     inkscape:deskcolor="#d1d1d1"
     inkscape:document-units="mm"
     showgrid="false" /><defs
     id="defs2"><clipPath
       clipPathUnits="userSpaceOnUse"
       id="clipPath5919"><path
         d="m 5586.47,1596.37 c 0,-321.44 -260.57,-582.02 -582.02,-582.02 -321.45,0 -582.02,260.58 -582.02,582.02 0,321.45 260.57,582.03 582.02,582.03 321.45,0 582.02,-260.58 582.02,-582.03"
         id="path5917" /></clipPath></defs><g
     id="g8452"
     transform="translate(-376.01353,-99.539777)"><g
       id="g5913"
       transform="matrix(0.03527778,0,0,-0.03527778,220,176.38889)"><g
         id="g5915"
         clip-path="url(#clipPath5919)"><path
           d="m 5586.47,1596.37 c 0,-321.44 -260.57,-582.02 -582.02,-582.02 -321.45,0 -582.02,260.58 -582.02,582.02 0,321.45 260.57,582.03 582.02,582.03 321.45,0 582.02,-260.58 582.02,-582.03"
           style="fill:#385cb3;fill-opacity:1;fill-rule:nonzero;stroke:none"
           id="path5921" /><path
           d="m 4652.19,1456.74 c 5.91,-30.86 38.61,-50.21 69.88,-53.33 31.28,-3.11 62.32,5.78 93.4,10.46 31.08,4.69 65.42,4.43 90.73,-14.21 34,-25.04 39.44,-76.28 22.88,-115.13 -16.57,-38.84 -50,-67.67 -83.72,-93.09 -29.68,-22.37 -72.07,-43.28 -101.23,-20.23 -19.7,15.56 -22.41,43.67 -29.37,67.79 -35.66,123.6 -122.96,66.4 -176.63,5.31 -64.64,-73.58 -156.29,-49.81 -186.68,49.66 -25.8,84.44 34.48,160.03 101.01,203.97 34.76,22.95 113.39,70.51 156.26,66.46 74.89,-7.07 33.15,-53.69 43.47,-107.66"
           style="fill:#346dbe;fill-opacity:1;fill-rule:nonzero;stroke:none"
           id="path5923" /><path
           d="m 4809.57,1858.49 c 21.79,-30.61 21.4,-71.77 37.48,-105.74 34.08,-72.08 128.19,-90.19 207.86,-87.04 79.66,3.16 165.49,16.94 234.32,-23.26 11.47,-6.69 22.98,-16.13 24.99,-29.24 3.89,-25.31 -27.34,-40 -52.32,-45.63 -108.26,-24.46 -218,-42.32 -328.42,-53.47 -11.84,-1.19 -25.81,-1.48 -33.24,7.82 -7.66,9.58 -3.86,23.43 -1.99,35.55 10.23,66.56 -55.04,125.35 -121.8,134.2 -66.76,8.84 -132.54,-17.59 -194.99,-42.78 -45.31,-18.27 -189.6,-80.11 -230.52,-24.15 -31.66,43.31 83.4,116.37 123.3,142.32 76.93,50.02 256.63,201.97 335.33,91.42"
           style="fill:#346dbe;fill-opacity:1;fill-rule:nonzero;stroke:none"
           id="path5925" /><path
           d="m 5334.74,2133.1 c 83.71,3.35 171.67,-19.72 231.42,-78.43 30.67,-30.15 52.49,-67.96 79.13,-101.73 55.93,-70.92 134.22,-123.94 220.84,-149.54 16.45,-4.87 37.21,-14.2 35.23,-31.24 -1.15,-10.03 -10.29,-16.97 -18.81,-22.37 -81.8,-51.78 -181.04,-75.46 -277.41,-66.15 -41.96,4.05 -88.11,17.62 -108.47,54.53 -8.13,14.75 -11.25,31.89 -19.8,46.4 -21.59,36.68 -71.99,46.23 -113.47,36.65 -41.47,-9.58 -77.92,-33.62 -117.09,-50.29 -53.39,-22.72 -112.59,-31.67 -170.34,-25.77 -41.37,4.24 -83.97,17.23 -112.56,47.53 -38.46,40.84 -28.09,81.52 -3.94,123.78 13.61,23.83 30.07,37.67 41.3,63.86 6.68,15.59 -2.7,34.55 7.79,49.75 48.18,69.81 248.36,99.9 326.18,103.02"
           style="fill:#346dbe;fill-opacity:1;fill-rule:nonzero;stroke:none"
           id="path5927" /><path
           d="m 5834.24,1564.59 c -90.32,32.09 -188.55,48.57 -282.5,29.51 -93.94,-19.06 -182.8,-77.64 -222.66,-164.82 -14.7,-32.12 -24.28,-69.56 -53.03,-90.07 -30.4,-21.7 -73.78,-16.4 -105.78,2.87 -32,19.25 -55.18,49.94 -77.53,79.86 -34.77,-51.76 -37.87,-123.07 -7.74,-177.65 11.41,-20.69 27.8,-42.29 22.49,-65.32 -8.45,-36.64 -58.9,-39.47 -96.23,-34.93 -111.46,13.54 -239.23,12.01 -317,-68.98 -4.55,-4.75 -9.08,-10.19 -9.69,-16.73 -1.49,-15.79 18.51,-23.59 34.22,-25.82 224.08,-31.95 458.21,11.18 656.23,120.85 -38.2,2.94 -43.29,62.97 -16.02,89.87 27.26,26.91 68.27,32.59 103.56,47.47 29.05,12.25 54.72,31.11 80.09,49.79 39.14,28.83 78.28,57.66 117.43,86.49 29.07,21.41 58.88,43.63 77.53,74.54 18.66,30.91 23.54,73.03 2.09,102.07"
           style="fill:#346dbe;fill-opacity:1;fill-rule:nonzero;stroke:none"
           id="path5929" /><path
           d="m 4245.87,1735.89 c 75.44,185.79 296.68,298.89 491.47,251.25 52.51,-12.85 106.31,-35.92 158.61,-22.27 90.81,23.71 119.67,137.74 188.33,201.71 46.14,42.99 113.23,62.32 175.15,50.5 4,27.5 -28.78,45.38 -56.35,48.92 -99.13,12.77 -191.51,-45.49 -286.41,-76.89 -115.1,-38.07 -239.74,-37.01 -356.6,-69.22 -116.88,-32.2 -235.04,-114.06 -249.99,-234.36 l -64.21,-149.64"
           style="fill:#346dbe;fill-opacity:1;fill-rule:nonzero;stroke:none"
           id="path5931" /><path
           d="m 4930.92,2161.88 c 7.33,-2.13 16.02,-6.6 15.62,-14.22 -0.2,-3.7 -2.65,-6.85 -5.04,-9.69 -25.97,-30.8 -57.52,-56.29 -88.87,-81.58 -39.37,-31.76 -79.14,-63.78 -124.42,-86.32 -29.16,-14.52 -155.44,-59.88 -168.57,-7.44 -7.54,30.12 64.19,84.74 85.22,104.96 76.13,73.18 178.78,125.54 286.06,94.29"
           style="fill:#2e59b0;fill-opacity:1;fill-rule:nonzero;stroke:none"
           id="path5933" /><path
           d="m 5256.42,1984.48 c 20.31,1.01 41.35,-0.18 59.73,-8.88 18.38,-8.7 33.64,-26.23 34.81,-46.53 0.09,-1.44 0.1,-2.87 0.04,-4.3 -0.75,-18.43 -13.01,-35.54 -28.95,-45.17 -17.19,-10.37 -37.97,-13.21 -58.04,-12.67 -69.67,1.85 -77.27,114.07 -7.59,117.55"
           style="fill:#385cb3;fill-opacity:1;fill-rule:nonzero;stroke:none"
           id="path5935" /><path
           d="m 5036.11,1944.11 c 11.02,3.88 25.42,6.05 32.51,-3.22 2.7,-3.54 3.66,-8.07 4.27,-12.46 5.02,-36.6 -11.46,-75.34 -41.29,-97.1 -27.17,-19.82 -114.14,-36.16 -114.47,18.2 -0.24,41.08 87.61,83.56 118.98,94.58"
           style="fill:#2e59b0;fill-opacity:1;fill-rule:nonzero;stroke:none"
           id="path5937" /><path
           d="m 5088.14,2124 c 27.97,-0.52 56.28,-13.68 71.63,-37.06 15.35,-23.39 15.38,-56.89 -2.74,-78.2 -15.33,-18.01 -40.64,-25.09 -64.24,-23.4 -35.68,2.55 -114.18,28.05 -110.59,74.47 3.14,40.52 73.14,64.79 105.94,64.19"
           style="fill:#385cb3;fill-opacity:1;fill-rule:nonzero;stroke:none"
           id="path5939" /><path
           d="m 4551.65,1760.71 c 22.16,-7.45 30.42,-34.01 34.66,-57.01 9.95,-53.96 16.28,-121 -21.68,-166.47 -27.13,-32.49 -59.76,-38.63 -87.36,-4.39 -40.43,50.17 -15.65,258.15 74.38,227.87"
           style="fill:#385cb3;fill-opacity:1;fill-rule:nonzero;stroke:none"
           id="path5941" /><path
           d="m 4858.02,1584.53 c 9.47,-27.46 9.76,-57.3 17.75,-85.22 10.98,-38.4 36.03,-71.63 46.88,-110.07 5.23,-18.53 6.41,-40.29 -5.72,-55.25 -57.33,-70.72 -169.1,67.37 -181.89,117.48 -15.26,59.82 98.66,203.64 122.98,133.06"
           style="fill:#346dbe;fill-opacity:1;fill-rule:nonzero;stroke:none"
           id="path5943" /><path
           d="m 5302.51,1807.12 c 12,0.22 24.38,-0.43 35.25,-5.52 10.88,-5.09 19.97,-15.53 20.29,-27.52 0.28,-10.26 -5.62,-19.58 -11.66,-27.87 -56.37,-77.53 -146.04,-129.96 -241.26,-141.08 -96.08,-11.23 -21.58,89.34 6.66,118.16 49.75,50.76 119.41,82.48 190.72,83.83"
           style="fill:#2e59b0;fill-opacity:1;fill-rule:nonzero;stroke:none"
           id="path5945" /><path
           d="m 5140.05,1426.57 c 26.16,-0.26 56.14,-4.81 70.17,-26.89 7.65,-12.02 8.84,-27.25 6.3,-41.27 -6.97,-38.54 -40.32,-68.59 -77.66,-80.4 -45.3,-14.32 -180.51,-13.77 -177.31,59.17 3.09,70.21 128.34,89.89 178.5,89.39"
           style="fill:#2e59b0;fill-opacity:1;fill-rule:nonzero;stroke:none"
           id="path5947" /><path
           d="m 5465.66,1611.3 c 11.22,7.21 23.14,14 36.33,16.02 13.17,2.03 27.96,-1.58 36.19,-12.07 11.4,-14.5 6.7,-35.62 -0.3,-52.68 -18.16,-44.25 -117.26,-186.64 -176.95,-132.99 -64.32,57.82 65.84,156.68 104.73,181.72"
           style="fill:#2e59b0;fill-opacity:1;fill-rule:nonzero;stroke:none"
           id="path5949" /><path
           d="m 5488.62,1905.59 c 33.32,-0.9 66.89,-17.63 83.83,-46.35 16.93,-28.71 14.09,-69.02 -9.85,-92.21 -20.55,-19.92 -52.13,-24.62 -80.33,-19.71 -110.69,19.28 -123.83,161.8 6.35,158.27"
           style="fill:#385cb3;fill-opacity:1;fill-rule:nonzero;stroke:none"
           id="path5951" /><path
           d="m 4771.47,1217.96 c 23.88,-39.76 46.76,-119.29 -1.83,-147.95 -32.48,-19.14 -87.31,-10.26 -108.61,20.17 -51.02,72.89 37.26,249.66 110.44,127.78"
           style="fill:#385cb3;fill-opacity:1;fill-rule:nonzero;stroke:none"
           id="path5953" /><path
           d="m 4492.81,1422.44 c 26.21,4.04 47.46,-20.9 59.19,-44.69 30.73,-62.29 47.2,-249.95 -68.55,-152.63 -41.25,34.68 -60.99,186.44 9.36,197.32"
           style="fill:#2e59b0;fill-opacity:1;fill-rule:nonzero;stroke:none"
           id="path5955" /><path
           d="m 5396.02,1356.48 c 8.53,6.25 17.55,12.42 27.92,14.46 10.38,2.05 22.48,-1.08 28.06,-10.06 4.73,-7.62 3.82,-17.32 2.67,-26.21 -6.64,-51.77 -15.98,-104.56 -42.29,-149.63 -26.3,-45.08 -72.9,-81.54 -125.09,-82.31 -71.04,-1.05 -80.99,71.6 -42.96,114.14 43.92,49.11 98.46,100.57 151.69,139.61"
           style="fill:#385cb3;fill-opacity:1;fill-rule:nonzero;stroke:none"
           id="path5957" /></g></g><path
       d="m 384.84001,120.85849 c -0.85795,0 -1.68204,-0.0116 -2.45321,-0.0251 -0.21273,-0.004 -0.41734,-0.0123 -0.6149,-0.0254 0.28787,-0.86395 0.33162,-1.81927 0.26282,-2.75413 1.78153,-0.71438 3.63503,-1.40512 5.51815,-1.40512 0.31574,0 0.63254,0.0194 0.94968,0.0614 1.96744,0.2607 3.89784,1.75083 4.27002,3.60291 -0.45402,0.0783 -0.91686,0.14605 -1.38288,0.20462 -0.003,-0.009 -0.006,-0.0183 -0.01,-0.0275 -0.16263,-0.47202 -0.43885,-0.6724 -0.77646,-0.6724 -0.45579,0 -1.02306,0.36548 -1.57198,0.9197 -1.42558,0.0928 -2.84974,0.121 -4.19171,0.121 m 12.88627,-3.22016 c -2.66735,0 -5.61552,-0.7186 -6.73312,-3.08257 -0.56726,-1.19839 -0.5535,-2.65042 -1.32221,-3.73027 -0.7112,-0.99872 -1.65558,-1.3903 -2.71321,-1.3903 -2.97639,0 -6.84742,3.09986 -8.9214,4.48698 0.82338,-1.97838 2.23414,-4.1021 3.7719,-5.96441 0.20144,0.0434 0.4251,0.0628 0.66358,0.0628 1.52788,0 3.6576,-0.79728 4.32893,-1.13136 0.28999,-0.14428 0.57397,-0.29986 0.85231,-0.46425 1.282,0.34925 2.58128,0.79516 3.86574,0.79516 0.40146,0 0.80187,-0.0437 1.19945,-0.14746 1.39982,-0.36548 2.38231,-1.33915 3.24696,-2.5079 0.13512,0.22895 0.3295,0.43674 0.56127,0.62265 -0.0772,0.44203 0.0674,0.92463 -0.11042,1.33985 -0.39617,0.92393 -0.97684,1.41217 -1.45697,2.25284 -0.13123,0.23001 -0.25118,0.45826 -0.35489,0.6858 -0.65652,0.51823 -1.14194,1.10067 -1.13877,1.6757 0.005,0.73378 0.45649,1.10243 1.06645,1.2386 0.13899,0.25576 0.32561,0.51082 0.56621,0.76659 1.00859,1.06891 2.51142,1.52717 3.97086,1.67675 0.40817,0.0416 0.81774,0.0624 1.22802,0.0624 0.28187,0 0.56409,-0.01 0.84526,-0.0293 -0.28328,0.23107 -0.55386,0.47766 -0.80963,0.73836 -0.39617,0.40429 -1.05057,1.20897 -1.48202,2.00696 -0.17533,0.009 -0.35066,0.0173 -0.52458,0.0243 -0.19791,0.008 -0.39793,0.012 -0.59972,0.012 m 3.80647,-15.42838 c -0.55492,-0.47519 -1.29787,-0.73731 -2.03447,-0.75106 -0.0138,-3.6e-4 -0.0279,-3.6e-4 -0.042,-3.6e-4 -0.43321,0 -1.03434,0.11571 -1.62666,0.33302 0.15629,-0.22436 0.31574,-0.44485 0.48084,-0.65934 1.76706,0.0804 3.49038,0.30445 5.05037,0.64171 -0.60996,0.12523 -1.22661,0.27058 -1.8281,0.43603"
       style="fill:#3e6ebf;fill-opacity:1;fill-rule:nonzero;stroke:none;stroke-width:0.0352778"
       id="path5959" /><path
       d="m 392.77257,120.31309 c -0.37218,-1.85208 -2.30258,-3.34221 -4.27002,-3.60291 -0.31714,-0.042 -0.63394,-0.0614 -0.94968,-0.0614 -1.88312,0 -3.73662,0.69074 -5.51815,1.40512 -0.0448,-0.60855 -0.13687,-1.20792 -0.23988,-1.76777 -0.14958,-0.81139 -0.44098,-1.74837 -1.22273,-2.01119 -0.21379,-0.072 -0.41734,-0.10583 -0.61031,-0.10583 -1.43792,0 -2.29623,1.87924 -2.57563,3.87244 -0.26917,-1.16382 0.0169,-2.59892 0.65017,-4.11939 2.07398,-1.38712 5.94501,-4.48698 8.9214,-4.48698 1.05763,0 2.00201,0.39158 2.71321,1.3903 0.76871,1.07985 0.75495,2.53188 1.32221,3.73027 1.1176,2.36397 4.06577,3.08257 6.73312,3.08257 0.20179,0 0.40181,-0.004 0.59972,-0.012 0.17392,-0.007 0.34925,-0.0152 0.52458,-0.0243 -0.12453,0.23071 -0.23071,0.46073 -0.30656,0.68051 -0.37712,0.23565 -0.76729,0.45332 -1.17052,0.65087 -1.33279,0.65229 -2.91535,1.08938 -4.60093,1.37971"
       style="fill:#4587ce;fill-opacity:1;fill-rule:nonzero;stroke:none;stroke-width:0.0352778"
       id="path5961" /><path
       d="m 400.29697,114.88596 c -0.41028,0 -0.81985,-0.0208 -1.22802,-0.0624 -1.45944,-0.14958 -2.96227,-0.60784 -3.97086,-1.67675 -0.2406,-0.25577 -0.42722,-0.51083 -0.56621,-0.76659 0.1972,0.0441 0.41063,0.0639 0.63147,0.0639 0.87983,0 1.86725,-0.31503 2.34033,-0.6604 1.05233,-0.76764 1.63371,-2.1343 1.45662,-3.42547 -0.0215,-0.15487 -0.0554,-0.31468 -0.15064,-0.43956 -0.13017,-0.17004 -0.32985,-0.23107 -0.54645,-0.23107 -0.19967,0 -0.41381,0.0519 -0.60043,0.11748 -0.66745,0.23459 -2.06022,0.87312 -3.05858,1.66087 0.10371,-0.22754 0.22366,-0.45579 0.35489,-0.6858 0.48013,-0.84067 1.0608,-1.32891 1.45697,-2.25284 0.1778,-0.41522 0.0332,-0.89782 0.11042,-1.33985 0.88618,0.7112 2.32446,1.10526 3.13585,1.16311 0.0794,0.006 0.1591,0.008 0.23918,0.008 0.76023,0 1.53776,-0.25929 2.02706,-0.83397 0.63923,-0.75177 0.63817,-1.93357 0.0967,-2.75872 -0.13723,-0.2092 -0.30409,-0.39511 -0.49248,-0.55633 0.60149,-0.16545 1.21814,-0.3108 1.8281,-0.43603 0.17709,0.0381 0.35136,0.0776 0.52387,0.11853 1.81152,0.43145 3.85904,1.43475 4.07353,3.28507 0.0635,0.54998 -0.0512,1.08514 -0.2533,1.60161 -0.0533,-0.0307 -0.10795,-0.0589 -0.16298,-0.085 -0.5267,-0.24942 -1.11513,-0.32385 -1.70145,-0.32385 -0.13582,0 -0.27128,0.004 -0.40569,0.0106 -2.40595,0.11995 -2.19992,3.91619 0.115,4.13773 -0.61136,0.96838 -1.25518,1.93499 -1.94768,2.86209 -0.88477,0.37041 -1.71662,0.86995 -2.45992,1.47602 -0.28117,0.0194 -0.56339,0.0293 -0.84526,0.0293"
       style="fill:#4587ce;fill-opacity:1;fill-rule:nonzero;stroke:none;stroke-width:0.0352778"
       id="path5963" /><path
       d="m 391.5188,107.2201 c -1.28446,0 -2.58374,-0.44591 -3.86574,-0.79516 1.25413,-0.74119 2.4003,-1.66405 3.53695,-2.58092 1.01741,-0.82057 2.04082,-1.64748 2.91113,-2.62008 0.90981,-0.0847 1.83232,-0.12524 2.75166,-0.12524 0.48789,0 0.97438,0.0113 1.45768,0.0335 -0.1651,0.21449 -0.32455,0.43498 -0.48084,0.65934 -1.01317,0.37183 -1.99954,1.04035 -2.06868,1.93182 -0.0236,0.30656 0.054,0.58702 0.20425,0.84137 -0.86465,1.16875 -1.84714,2.14242 -3.24696,2.5079 -0.39758,0.10372 -0.79799,0.14746 -1.19945,0.14746"
       style="fill:#4587ce;fill-opacity:1;fill-rule:nonzero;stroke:none;stroke-width:0.0352778"
       id="path5965" /><path
       d="m 382.47182,108.02055 c -0.23848,0 -0.46214,-0.0194 -0.66358,-0.0628 1.9364,-2.34456 4.07388,-4.27461 5.49698,-4.97911 1.95298,-0.96731 4.32682,-1.5247 6.79592,-1.75471 -0.87031,0.9726 -1.89372,1.79951 -2.91113,2.62008 -1.13665,0.91687 -2.28282,1.83973 -3.53695,2.58092 -0.27834,0.16439 -0.56232,0.31997 -0.85231,0.46425 -0.67133,0.33408 -2.80105,1.13136 -4.32893,1.13136"
       style="fill:#2d6abc;fill-opacity:1;fill-rule:nonzero;stroke:none;stroke-width:0.0352778"
       id="path5967" /><path
       d="m 405.54983,110.51857 c -2.31492,-0.22154 -2.52095,-4.01778 -0.115,-4.13773 0.13441,-0.007 0.26987,-0.0106 0.40569,-0.0106 0.58632,0 1.17475,0.0744 1.70145,0.32385 0.055,0.0261 0.10971,0.0543 0.16298,0.085 -0.20531,0.52493 -0.50059,1.03046 -0.79057,1.51236 -0.44062,0.73201 -0.89288,1.48025 -1.36455,2.22708"
       style="fill:#3e6ebf;fill-opacity:1;fill-rule:nonzero;stroke:none;stroke-width:0.0352778"
       id="path5969" /><path
       d="m 395.16335,112.44403 c -0.22084,0 -0.43427,-0.0198 -0.63147,-0.0639 -0.60996,-0.13617 -1.06186,-0.50482 -1.06645,-1.2386 -0.003,-0.57503 0.48225,-1.15747 1.13877,-1.6757 0.99836,-0.78775 2.39113,-1.42628 3.05858,-1.66087 0.18662,-0.0656 0.40076,-0.11748 0.60043,-0.11748 0.2166,0 0.41628,0.061 0.54645,0.23107 0.0952,0.12488 0.12912,0.28469 0.15064,0.43956 0.17709,1.29117 -0.40429,2.65783 -1.45662,3.42547 -0.47308,0.34537 -1.4605,0.6604 -2.34033,0.6604"
       style="fill:#2d6abc;fill-opacity:1;fill-rule:nonzero;stroke:none;stroke-width:0.0352778"
       id="path5971" /><path
       d="m 399.90151,106.35897 c -0.0801,0 -0.15981,-0.003 -0.23918,-0.008 -0.81139,-0.0579 -2.24967,-0.45191 -3.13585,-1.16311 -0.23177,-0.18591 -0.42615,-0.3937 -0.56127,-0.62265 -0.15028,-0.25435 -0.22789,-0.53481 -0.20425,-0.84137 0.0691,-0.89147 1.05551,-1.55999 2.06868,-1.93182 0.59232,-0.21731 1.19345,-0.33302 1.62666,-0.33302 0.0141,0 0.0282,0 0.042,3.6e-4 0.7366,0.0138 1.47955,0.27587 2.03447,0.75106 0.18839,0.16122 0.35525,0.34713 0.49248,0.55633 0.54151,0.82515 0.54257,2.00695 -0.0967,2.75872 -0.4893,0.57468 -1.26683,0.83397 -2.02706,0.83397"
       style="fill:#3e6ebf;fill-opacity:1;fill-rule:nonzero;stroke:none;stroke-width:0.0352778"
       id="path5973" /><path
       d="m 381.7719,120.80804 c -2.72732,-0.18133 -4.0333,-1.24178 -4.38573,-2.76648 0.2794,-1.9932 1.13771,-3.87244 2.57563,-3.87244 0.19297,0 0.39652,0.0339 0.61031,0.10583 0.78175,0.26282 1.07315,1.1998 1.22273,2.01119 0.10301,0.55985 0.19508,1.15922 0.23988,1.76777 0.0688,0.93486 0.0251,1.89018 -0.26282,2.75413"
       style="fill:#3e6ebf;fill-opacity:1;fill-rule:nonzero;stroke:none;stroke-width:0.0352778"
       id="path5975" /><path
       d="m 389.03172,120.73749 c 0.54892,-0.55422 1.11619,-0.9197 1.57198,-0.9197 0.33761,0 0.61383,0.20038 0.77646,0.6724 0.003,0.009 0.006,0.0183 0.01,0.0275 -0.77788,0.097 -1.5681,0.16827 -2.35797,0.21978"
       style="fill:#4587ce;fill-opacity:1;fill-rule:nonzero;stroke:none;stroke-width:0.0352778"
       id="path5977" /><path
       d="m 398.54402,118.28251 c 0.0759,-0.21978 0.18203,-0.4498 0.30656,-0.68051 0.43145,-0.79799 1.08585,-1.60267 1.48202,-2.00696 0.25577,-0.2607 0.52635,-0.50729 0.80963,-0.73836 0.7433,-0.60607 1.57515,-1.10561 2.45992,-1.47602 -1.43016,1.91382 -3.06811,3.6583 -5.05813,4.90185"
       style="fill:#2d6abc;fill-opacity:1;fill-rule:nonzero;stroke:none;stroke-width:0.0352778"
       id="path5979" /></g></svg>
