<?xml version="1.0" encoding="UTF-8" standalone="no"?>
<!-- Created with Inkscape (http://www.inkscape.org/) -->

<svg
   width="31.75mm"
   height="31.750147mm"
   viewBox="0 0 31.75 31.750147"
   version="1.1"
   id="svg5"
   xml:space="preserve"
   inkscape:version="1.2.1 (9c6d41e410, 2022-07-14)"
   sodipodi:docname="como_serias-Logo.svg"
   xmlns:inkscape="http://www.inkscape.org/namespaces/inkscape"
   xmlns:sodipodi="http://sodipodi.sourceforge.net/DTD/sodipodi-0.dtd"
   xmlns="http://www.w3.org/2000/svg"
   xmlns:svg="http://www.w3.org/2000/svg"><sodipodi:namedview
     id="namedview7"
     pagecolor="#ffffff"
     bordercolor="#666666"
     borderopacity="1.0"
     inkscape:showpageshadow="2"
     inkscape:pageopacity="0.0"
     inkscape:pagecheckerboard="0"
     inkscape:deskcolor="#d1d1d1"
     inkscape:document-units="mm"
     showgrid="false"
     inkscape:zoom="1.0137907"
     inkscape:cx="246.59923"
     inkscape:cy="207.14335"
     inkscape:window-width="1360"
     inkscape:window-height="697"
     inkscape:window-x="-8"
     inkscape:window-y="-8"
     inkscape:window-maximized="1"
     inkscape:current-layer="layer1" /><defs
     id="defs2" /><g
     inkscape:label="Capa 1"
     inkscape:groupmode="layer"
     id="layer1"
     transform="translate(-4.5969655,-18.168064)"><g
       id="Galaxy"
       transform="matrix(0.52916803,0,0,0.52916803,3.5385475,17.109791)"
       inkscape:export-filename="..\..\..\Downloads\Galaxy.svg"
       inkscape:export-xdpi="1200"
       inkscape:export-ydpi="1200"><path
         d="m 43.7339,29.9492 -1.668,-1.8037 0.0532,-2.4551 a 1,1 0 0 0 -0.6655,-0.9638 l -2.3149,-0.8213 -1.0938,-2.1992 a 1,1 0 0 0 -1.0376,-0.545 l -2.4311,0.35 -1.9908,-1.4384 a 1.0011,1.0011 0 0 0 -1.1708,0 l -1.9908,1.4384 -2.4311,-0.35 a 1.0075,1.0075 0 0 0 -1.0376,0.545 l -1.0938,2.1992 -2.3149,0.8213 a 1,1 0 0 0 -0.6655,0.9638 l 0.0532,2.4551 -1.668,1.8037 a 0.9982,0.9982 0 0 0 -0.1411,1.1621 l 1.188,2.1494 -0.6392,2.3711 a 1,1 0 0 0 0.4156,1.0957 l 2.0506,1.3506 0.5357,2.3975 a 1.0009,1.0009 0 0 0 0.8769,0.7773 l 2.4439,0.2432 1.5888,1.873 a 0.992,0.992 0 0 0 1.1377,0.28 L 32,42.73 l 2.2769,0.92 a 0.987,0.987 0 0 0 0.3745,0.0733 0.9987,0.9987 0 0 0 0.7632,-0.3536 l 1.5888,-1.873 2.4439,-0.2432 a 1.0009,1.0009 0 0 0 0.8769,-0.7773 l 0.5357,-2.3975 2.0507,-1.3506 a 1,1 0 0 0 0.4156,-1.0957 l -0.6392,-2.3711 1.188,-2.1494 a 0.9982,0.9982 0 0 0 -0.1411,-1.1627 z"
         style="fill:#f7be16"
         id="path217" /><circle
         cx="32"
         cy="31.970699"
         r="7"
         style="fill:#eef5b2"
         id="circle219" /><path
         d="M 32,53 A 21,21 0 1 1 53,32 c 0,0.3887 -0.01,0.7676 -0.0312,1.1455 A 1.0000995,1.0000995 0 0 1 50.9717,33.0342 C 50.9907,32.6934 51,32.3516 51,32 A 19.0185,19.0185 0 1 0 48.1206,42.043 1.0000441,1.0000441 0 1 1 49.82,43.0977 20.8436,20.8436 0 0 1 32,53 Z"
         style="fill:#ede682"
         id="path221" /><path
         d="M 10.4805,52.44 A 0.9988,0.9988 0 0 1 9.7383,52.1109 30.0011,30.0011 0 0 1 11.31,10.2764 1,1 0 0 1 12.69,11.7236 28.0014,28.0014 0 0 0 11.2217,50.77 1,1 0 0 1 10.4805,52.4409 Z"
         style="fill:#ede682"
         id="path223" /><path
         d="M 32,62 A 29.9727,29.9727 0 0 1 17.8154,58.44 1,1 0 1 1 18.7646,56.68 28.002,28.002 0 1 0 32,4 27.6238,27.6238 0 0 0 20.7158,6.374 1.0000602,1.0000602 0 1 1 19.9043,4.5459 29.6077,29.6077 0 0 1 32,2 30,30 0 0 1 32,62 Z"
         style="fill:#ede682"
         id="path225" /><circle
         cx="51"
         cy="38"
         r="6"
         style="fill:#febf63"
         id="circle227" /><circle
         cx="14"
         cy="55"
         r="6"
         style="fill:#febf63"
         id="circle229" /><circle
         cx="16"
         cy="8"
         r="6"
         style="fill:#febf63"
         id="circle231" /><g
         style="opacity:0.1"
         id="g239"><path
           d="m 42.07,28.15 0.05,-2.46 a 0.9908,0.9908 0 0 0 -0.67,-0.96 l -2.31,-0.82 -1.1,-2.2 a 0.9867,0.9867 0 0 0 -1.03,-0.55 l -2.43,0.35 -1.99,-1.44 a 1.022,1.022 0 0 0 -1.18,0 l -1.52,1.1 c 1.14,1.26 2.25,2.57 3.31,3.91 a 68.7037,68.7037 0 0 1 5.63,8.43 q 1.215,2.16 2.27,4.41 l 1.81,-1.19 a 1.0126,1.0126 0 0 0 0.42,-1.1 l -0.64,-2.37 1.19,-2.15 a 1,1 0 0 0 -0.15,-1.16 z"
           id="path233" /><path
           d="M 49.3705,43.7692 A 5.9941,5.9941 0 0 0 52.99,32.3463 V 32.34 C 53,32.23 53,32.12 53,32 A 21.0231,21.0231 0 0 0 32,11 20.7861,20.7861 0 0 0 21.81,13.65 c 0.57,0.45 1.12,0.91 1.67,1.38 A 18.7771,18.7771 0 0 1 32,13 19.0172,19.0172 0 0 1 51,32 5.9948,5.9948 0 0 0 47.55,42.9006 18.3181,18.3181 0 0 1 44.41,46.38 c 0.23,0.69 0.43,1.4 0.63,2.1 a 20.2791,20.2791 0 0 0 4.33,-4.71 z"
           id="path235" /><path
           d="M 32,2 A 29.7609,29.7609 0 0 0 20.66,4.22 5.997,5.997 0 0 0 10.25,6.3 67.0079,67.0079 0 0 1 20.11,12.36 5.9694,5.9694 0 0 0 22,8 5.8177,5.8177 0 0 0 21.65,5.99 27.5088,27.5088 0 0 1 32,4 27.9925,27.9925 0 0 1 46.65,55.85 c 0.12,0.71 0.22,1.42 0.32,2.13 A 29.9886,29.9886 0 0 0 32,2 Z"
           id="path237" /></g></g></g></svg>
